<svg width="82" height="82" viewBox="0 0 82 82" fill="none" xmlns="http://www.w3.org/2000/svg">
<path fill-rule="evenodd" clip-rule="evenodd" d="M12.3036 1.05615L12.1469 1.21283L1.52555 11.9606L1.3689 12.1172V12.3366V67.3287V67.548L1.52555 67.6734L14.2461 80.3952L14.3715 80.5519H14.5908H65.6925H65.8804L66.0371 80.4265L80.6689 67.8614L80.8569 67.7047V67.454V12.4933V12.2426L80.6376 12.0859L80.2929 11.8352L80.0736 11.5219L79.9796 11.5846L66.2878 1.18149L66.1311 1.05615H65.9744H12.5229H12.3036ZM13.9019 2.0589H65.0349L61.5885 7.57378H17.9437L13.9019 2.0589ZM12.7096 2.09044L16.8767 7.76199L8.13517 16.5983L2.43284 12.4935L12.7096 2.09044ZM66.068 2.27803L79.1646 12.1797L73.5249 16.3472L62.5275 7.98092L66.068 2.27803ZM18.6953 8.57617H60.9615L57.2957 14.4671H23.019L18.6953 8.57617ZM17.4733 8.6077L21.9224 14.6239L15.0608 21.5802L8.98245 17.1934L17.4733 8.6077ZM61.9943 8.82683L72.7097 16.9425L66.7253 21.392L58.2032 14.9057L61.9943 8.82683ZM79.8538 12.9321V66.1381L74.3395 62.4406V17.1936V17.0056L79.8538 12.9321ZM2.37139 13.6841L7.88573 17.6322V62.6913L2.37139 66.2321V13.6841ZM22.5182 15.4702L26.4033 20.7658L21.2336 25.9986L15.9072 22.1758L22.5182 15.4702ZM23.77 15.4702H56.6681L53.4723 20.6091H27.5298L23.77 15.4702ZM57.6699 15.7524L65.9101 21.988L60.6778 25.8422L54.3801 21.048L57.6699 15.7524ZM73.3373 17.7577V61.7828L67.447 57.8346V22.1759V22.1132L73.3373 17.7577ZM8.88865 18.3529L14.779 22.6144V58.2731L8.88865 62.0646V18.3529ZM26.9676 21.6115H53.4113L60.3043 26.8444V53.9801L53.286 59.9963H28.0015L21.9232 53.9174V26.719L26.9676 21.6115ZM66.4433 22.8341V57.1454L61.3049 53.6986V26.6256L66.4433 22.8341ZM15.7811 23.3354L20.8881 27.0016L20.9195 26.9702V54.1059V54.3253L15.7811 57.6467V23.3354ZM60.9605 54.7008L66.2556 58.2416L57.4514 65.8559L54.005 60.6857L60.9605 54.7008ZM21.6715 55.0768L27.1231 60.529L23.6453 65.8872L16.2824 58.5236L21.6715 55.0768ZM67.132 58.8367L73.2103 62.9102L61.931 72.6239L57.9832 66.7017L67.132 58.8367ZM15.4038 59.0882L23.0487 66.7338L19.0383 72.8441L9.2315 63.0364L15.4038 59.0882ZM28.0303 60.9989H53.0329L56.448 66.1378H24.6465L28.0303 60.9989ZM74.0587 63.4748L79.6984 67.2663L79.8551 67.047V67.2036L66.1632 78.9854L62.4661 73.4392L74.0587 63.4748ZM8.35531 63.6002L18.4754 73.7212L14.7156 79.4554L14.8723 79.5494H14.8096L14.7156 79.4554L2.55898 67.2976L8.35531 63.6002ZM23.9916 67.141H57.109L61.0254 73.0319H20.1378L23.9916 67.141ZM19.478 74.0343H61.6189H61.6815L65.3473 79.5491H15.8749L19.478 74.0343Z" fill="#D2AB8B"/>
<path d="M12.3036 1.05615V0.228152H11.9606L11.7181 0.470695L12.3036 1.05615ZM12.1469 1.21283L11.5614 0.627358L11.558 0.630813L12.1469 1.21283ZM1.52555 11.9606L2.11108 12.546L2.11449 12.5426L1.52555 11.9606ZM1.3689 12.1172L0.783385 11.5318L0.540896 11.7743V12.1172H1.3689ZM1.3689 67.548H0.540896V67.946L0.851618 68.1946L1.3689 67.548ZM1.52555 67.6734L2.11107 67.0879L2.07864 67.0555L2.04283 67.0268L1.52555 67.6734ZM14.2461 80.3952L14.8927 79.878L14.8641 79.8422L14.8317 79.8097L14.2461 80.3952ZM14.3715 80.5519L13.7249 81.0691L13.9735 81.3799H14.3715V80.5519ZM65.8804 80.5519V81.3799H66.1709L66.3977 81.1984L65.8804 80.5519ZM66.0371 80.4265L66.5544 81.0731L66.5656 81.0641L66.5765 81.0547L66.0371 80.4265ZM80.6689 67.8614L80.1387 67.2253L80.1295 67.2332L80.6689 67.8614ZM80.8569 67.7047L81.387 68.3408L81.6849 68.0925V67.7047H80.8569ZM80.8569 12.2426H81.6849V11.8165L81.3382 11.5688L80.8569 12.2426ZM80.6376 12.0859L80.1505 12.7555L80.1563 12.7597L80.6376 12.0859ZM80.2929 11.8352L79.6146 12.31L79.694 12.4234L79.8059 12.5048L80.2929 11.8352ZM80.0736 11.5219L80.752 11.0471L80.2878 10.3839L79.6143 10.833L80.0736 11.5219ZM79.9796 11.5846L79.4787 12.2438L79.9483 12.6006L80.4389 12.2735L79.9796 11.5846ZM66.2878 1.18149L65.7705 1.82802L65.7786 1.8345L65.7868 1.84078L66.2878 1.18149ZM66.1311 1.05615L66.6484 0.409626L66.4216 0.228152H66.1311V1.05615ZM13.9019 2.0589V1.2309H12.2685L13.2341 2.54835L13.9019 2.0589ZM65.0349 2.0589L65.7371 2.49771L66.5288 1.2309H65.0349V2.0589ZM61.5885 7.57378V8.40178H62.0474L62.2906 8.01259L61.5885 7.57378ZM17.9437 7.57378L17.2759 8.06323L17.524 8.40178H17.9437V7.57378ZM12.7096 2.09044L13.3768 1.60018L12.8024 0.818313L12.1205 1.50854L12.7096 2.09044ZM16.8767 7.76199L17.4653 8.3443L17.9626 7.84159L17.5439 7.27173L16.8767 7.76199ZM8.13517 16.5983L7.65144 17.2703L8.22596 17.6839L8.72381 17.1806L8.13517 16.5983ZM2.43284 12.4935L1.84379 11.9116L1.16366 12.6001L1.9491 13.1655L2.43284 12.4935ZM66.068 2.27803L66.5673 1.61755L65.8433 1.07013L65.3645 1.84131L66.068 2.27803ZM79.1646 12.1797L79.6566 12.8457L80.5475 12.1873L79.6639 11.5193L79.1646 12.1797ZM73.5249 16.3472L73.0236 17.0062L73.5177 17.3821L74.017 17.0131L73.5249 16.3472ZM62.5275 7.98092L61.8241 7.54419L61.4269 8.18396L62.0262 8.6399L62.5275 7.98092ZM18.6953 8.57617V7.74817H17.0605L18.0278 9.06609L18.6953 8.57617ZM60.9615 8.57617L61.6645 9.01363L62.4519 7.74817H60.9615V8.57617ZM57.2957 14.4671V15.2951H57.7557L57.9987 14.9045L57.2957 14.4671ZM23.019 14.4671L22.3515 14.957L22.5997 15.2951H23.019V14.4671ZM17.4733 8.6077L18.139 8.11538L17.5643 7.33818L16.8846 8.02548L17.4733 8.6077ZM21.9224 14.6239L22.5118 15.2054L23.0093 14.7011L22.5881 14.1316L21.9224 14.6239ZM15.0608 21.5802L14.5762 22.2516L15.1518 22.667L15.6502 22.1617L15.0608 21.5802ZM8.98245 17.1934L8.39372 16.6111L7.71367 17.2988L8.49789 17.8648L8.98245 17.1934ZM61.9943 8.82683L62.4942 8.16678L61.7715 7.6194L61.2917 8.38867L61.9943 8.82683ZM72.7097 16.9425L73.2037 17.6069L74.0891 16.9486L73.2096 16.2824L72.7097 16.9425ZM66.7253 21.392L66.2239 22.0508L66.7195 22.4281L67.2194 22.0564L66.7253 21.392ZM58.2032 14.9057L57.5006 14.4676L57.1014 15.1077L57.7017 15.5646L58.2032 14.9057ZM79.8538 12.9321H80.6818V11.291L79.3618 12.2661L79.8538 12.9321ZM79.8538 66.1381L79.3927 66.8258L80.6818 67.6902V66.1381H79.8538ZM74.3395 62.4406H73.5115V62.8823L73.8783 63.1283L74.3395 62.4406ZM74.3395 17.0056L73.8475 16.3396L73.5115 16.5878V17.0056H74.3395ZM2.37139 13.6841L2.85341 13.0108L1.54339 12.0729V13.6841H2.37139ZM7.88573 17.6322H8.71373V17.2067L8.36775 16.959L7.88573 17.6322ZM7.88573 62.6913L8.33311 63.388L8.71373 63.1436V62.6913H7.88573ZM2.37139 66.2321H1.54339V67.7477L2.81877 66.9288L2.37139 66.2321ZM22.5182 15.4702L23.1858 14.9804L22.6109 14.1968L21.9286 14.8889L22.5182 15.4702ZM26.4033 20.7658L26.9923 21.3477L27.4886 20.8453L27.0709 20.276L26.4033 20.7658ZM21.2336 25.9986L20.7508 26.6713L21.3255 27.0838L21.8226 26.5806L21.2336 25.9986ZM15.9072 22.1758L15.3176 21.5945L14.6379 22.284L15.4245 22.8485L15.9072 22.1758ZM23.77 15.4702V14.6422H22.1383L23.1018 15.9591L23.77 15.4702ZM56.6681 15.4702L57.3712 15.9075L58.1581 14.6422H56.6681V15.4702ZM53.4723 20.6091V21.4371H53.9324L54.1754 21.0464L53.4723 20.6091ZM27.5298 20.6091L26.8615 21.098L27.1096 21.4371H27.5298V20.6091ZM57.6699 15.7524L58.1696 15.0922L57.4457 14.5444L56.9666 15.3155L57.6699 15.7524ZM65.9101 21.988L66.4012 22.6547L67.2941 21.997L66.4098 21.3277L65.9101 21.988ZM60.6778 25.8422L60.1762 26.501L60.6696 26.8766L61.1688 26.5088L60.6778 25.8422ZM54.3801 21.048L53.6768 20.611L53.2794 21.2507L53.8786 21.7068L54.3801 21.048ZM73.3373 17.7577H74.1653V16.1157L72.845 17.092L73.3373 17.7577ZM73.3373 61.7828L72.8763 62.4706L74.1653 63.3346V61.7828H73.3373ZM67.447 57.8346H66.619V58.2764L66.986 58.5224L67.447 57.8346ZM67.447 22.1132L66.9547 21.4475L66.619 21.6957V22.1132H67.447ZM8.88865 18.3529L9.37399 17.682L8.06065 16.7319V18.3529H8.88865ZM14.779 22.6144H15.607V22.1914L15.2643 21.9435L14.779 22.6144ZM14.779 58.2731L15.2271 58.9693L15.607 58.7248V58.2731H14.779ZM8.88865 62.0646H8.06065V63.5822L9.33681 62.7608L8.88865 62.0646ZM26.9676 21.6115V20.7835H26.6216L26.3784 21.0297L26.9676 21.6115ZM53.4113 21.6115L53.912 20.952L53.69 20.7835H53.4113V21.6115ZM60.3043 26.8444H61.1323V26.4334L60.8049 26.1849L60.3043 26.8444ZM60.3043 53.9801L60.8432 54.6087L61.1323 54.3609V53.9801H60.3043ZM53.286 59.9963V60.8243H53.5923L53.8249 60.625L53.286 59.9963ZM28.0015 59.9963L27.416 60.5818L27.6585 60.8243H28.0015V59.9963ZM21.9232 53.9174H21.0952V54.2604L21.3377 54.5029L21.9232 53.9174ZM21.9232 26.719L21.3341 26.1372L21.0952 26.3791V26.719H21.9232ZM66.4433 22.8341H67.2713V21.1941L65.9517 22.1678L66.4433 22.8341ZM66.4433 57.1454L65.982 57.833L67.2713 58.6979V57.1454H66.4433ZM61.3049 53.6986H60.4769V54.1402L60.8437 54.3862L61.3049 53.6986ZM61.3049 26.6256L60.8133 25.9593L60.4769 26.2075V26.6256H61.3049ZM15.7811 23.3354L16.264 22.6628L14.9531 21.7218V23.3354H15.7811ZM20.8881 27.0016L20.4053 27.6742L20.9765 28.0842L21.4737 27.587L20.8881 27.0016ZM20.9195 26.9702H21.7475V24.9711L20.334 26.3848L20.9195 26.9702ZM20.9195 54.3253L21.369 55.0207L21.7475 54.776V54.3253H20.9195ZM15.7811 57.6467H14.9531V59.1679L16.2306 58.3421L15.7811 57.6467ZM60.9605 54.7008L61.4208 54.0125L60.8976 53.6626L60.4205 54.0731L60.9605 54.7008ZM66.2556 58.2416L66.7972 58.8679L67.6189 58.1572L66.7158 57.5533L66.2556 58.2416ZM57.4514 65.8559L56.7625 66.3151L57.2831 67.0962L57.993 66.4821L57.4514 65.8559ZM54.005 60.6857L53.4649 60.058L52.9098 60.5356L53.316 61.1449L54.005 60.6857ZM21.6715 55.0768L22.257 54.4913L21.7862 54.0205L21.2253 54.3792L21.6715 55.0768ZM27.1231 60.529L27.8177 60.9798L28.1826 60.4175L27.7086 59.9435L27.1231 60.529ZM23.6453 65.8872L23.0598 66.4726L23.783 67.1959L24.3399 66.338L23.6453 65.8872ZM16.2824 58.5236L15.8363 57.826L14.9688 58.3809L15.6969 59.109L16.2824 58.5236ZM67.132 58.8367L67.593 58.1489L67.0698 57.7983L66.5923 58.2089L67.132 58.8367ZM73.2103 62.9102L73.7507 63.5376L74.5748 62.8279L73.6713 62.2224L73.2103 62.9102ZM61.931 72.6239L61.242 73.0832L61.7616 73.8626L62.4713 73.2513L61.931 72.6239ZM57.9832 66.7017L57.4435 66.0738L56.8879 66.5514L57.2943 67.161L57.9832 66.7017ZM15.4038 59.0882L15.9893 58.5028L15.5185 58.0319L14.9576 58.3907L15.4038 59.0882ZM23.0487 66.7338L23.7409 67.1882L24.1106 66.6249L23.6342 66.1484L23.0487 66.7338ZM19.0383 72.8441L18.4527 73.4295L19.1722 74.149L19.7305 73.2984L19.0383 72.8441ZM9.2315 63.0364L8.78533 62.3388L7.91793 62.8937L8.64599 63.6218L9.2315 63.0364ZM28.0303 60.9989V60.1709H27.5842L27.3388 60.5436L28.0303 60.9989ZM53.0329 60.9989L53.7225 60.5406L53.4768 60.1709H53.0329V60.9989ZM56.448 66.1378V66.9658H57.9924L57.1376 65.6795L56.448 66.1378ZM24.6465 66.1378L23.955 65.6824L23.1099 66.9658H24.6465V66.1378ZM74.0587 63.4748L74.5207 62.7877L73.9973 62.4358L73.519 62.8469L74.0587 63.4748ZM79.6984 67.2663L79.2364 67.9535L79.9044 68.4025L80.3722 67.7475L79.6984 67.2663ZM79.8551 67.047H80.6831V64.463L79.1813 66.5657L79.8551 67.047ZM79.8551 67.2036L80.3951 67.8313L80.6831 67.5835V67.2036H79.8551ZM66.1632 78.9854L65.4742 79.4447L65.9936 80.2237L66.7033 79.6131L66.1632 78.9854ZM62.4661 73.4392L61.9264 72.8113L61.3707 73.2889L61.7771 73.8985L62.4661 73.4392ZM8.35531 63.6002L8.94082 63.0147L8.47064 62.5445L7.91001 62.9021L8.35531 63.6002ZM18.4754 73.7212L19.1678 74.1752L19.5371 73.612L19.0609 73.1358L18.4754 73.7212ZM14.7156 79.4554L14.0232 79.0014L13.5507 79.722L14.2896 80.1654L14.7156 79.4554ZM14.8723 79.5494V80.3774H17.8614L15.2983 78.8395L14.8723 79.5494ZM14.8096 79.5494L14.2241 80.1349L14.4666 80.3774H14.8096V79.5494ZM14.7156 79.4554L15.3011 78.87H15.3011L14.7156 79.4554ZM2.55898 67.2976L2.11369 66.5996L1.24448 67.154L1.97347 67.8831L2.55898 67.2976ZM23.9916 67.141V66.313H23.5438L23.2987 66.6877L23.9916 67.141ZM57.109 67.141L57.7985 66.6826L57.5528 66.313H57.109V67.141ZM61.0254 73.0319V73.8599H62.5702L61.7149 72.5735L61.0254 73.0319ZM20.1378 73.0319L19.4449 72.5786L18.6067 73.8599H20.1378V73.0319ZM19.478 74.0343V73.2063H19.0299L18.7849 73.5814L19.478 74.0343ZM61.6815 74.0343L62.3711 73.5759L62.1254 73.2063H61.6815V74.0343ZM65.3473 79.5491V80.3771H66.8919L66.0369 79.0908L65.3473 79.5491ZM15.8749 79.5491L15.1817 79.0963L14.3449 80.3771H15.8749V79.5491ZM11.7181 0.470695L11.5614 0.627368L12.7324 1.79828L12.8891 1.64161L11.7181 0.470695ZM11.558 0.630813L0.936617 11.3786L2.11449 12.5426L12.7359 1.79484L11.558 0.630813ZM0.940042 11.3751L0.783385 11.5318L1.95441 12.7027L2.11107 12.546L0.940042 11.3751ZM0.540896 12.1172V12.3366H2.1969V12.1172H0.540896ZM0.540896 12.3366V67.3287H2.1969V12.3366H0.540896ZM0.540896 67.3287V67.548H2.1969V67.3287H0.540896ZM0.851618 68.1946L1.00828 68.3199L2.04283 67.0268L1.88618 66.9015L0.851618 68.1946ZM0.940041 68.2588L13.6606 80.9807L14.8317 79.8097L2.11107 67.0879L0.940041 68.2588ZM13.5995 80.9124L13.7249 81.0691L15.0181 80.0347L14.8927 79.878L13.5995 80.9124ZM14.3715 81.3799H14.5908V79.7239H14.3715V81.3799ZM14.5908 81.3799H65.6925V79.7239H14.5908V81.3799ZM65.6925 81.3799H65.8804V79.7239H65.6925V81.3799ZM66.3977 81.1984L66.5544 81.0731L65.5198 79.78L65.3632 79.9053L66.3977 81.1984ZM66.5765 81.0547L81.2083 68.4896L80.1295 67.2332L65.4977 79.7984L66.5765 81.0547ZM81.199 68.4975L81.387 68.3408L80.3268 67.0687L80.1388 67.2253L81.199 68.4975ZM81.6849 67.7047V67.454H80.0289V67.7047H81.6849ZM81.6849 67.454V12.4933H80.0289V67.454H81.6849ZM81.6849 12.4933V12.2426H80.0289V12.4933H81.6849ZM81.3382 11.5688L81.1189 11.4122L80.1563 12.7597L80.3756 12.9163L81.3382 11.5688ZM81.1246 11.4163L80.78 11.1656L79.8059 12.5048L80.1505 12.7555L81.1246 11.4163ZM80.9713 11.3604L80.752 11.0471L79.3953 11.9967L79.6146 12.31L80.9713 11.3604ZM79.6143 10.833L79.5203 10.8956L80.4389 12.2735L80.5329 12.2108L79.6143 10.833ZM80.4805 10.9253L66.7887 0.522204L65.7868 1.84078L79.4787 12.2438L80.4805 10.9253ZM66.805 0.534964L66.6484 0.409626L65.6138 1.70268L65.7705 1.82802L66.805 0.534964ZM66.1311 0.228152H65.9744V1.88415H66.1311V0.228152ZM65.9744 0.228152H12.5229V1.88415H65.9744V0.228152ZM12.5229 0.228152H12.3036V1.88415H12.5229V0.228152ZM13.9019 2.8869H65.0349V1.2309H13.9019V2.8869ZM64.3328 1.62009L60.8863 7.13497L62.2906 8.01259L65.7371 2.49771L64.3328 1.62009ZM61.5885 6.74578H17.9437V8.40178H61.5885V6.74578ZM18.6115 7.08433L14.5698 1.56945L13.2341 2.54835L17.2759 8.06323L18.6115 7.08433ZM12.0423 2.58069L16.2094 8.25224L17.5439 7.27173L13.3768 1.60018L12.0423 2.58069ZM16.288 7.17967L7.54654 16.016L8.72381 17.1806L17.4653 8.3443L16.288 7.17967ZM8.61891 15.9263L2.91658 11.8215L1.9491 13.1655L7.65144 17.2703L8.61891 15.9263ZM3.02189 13.0754L13.2986 2.67233L12.1205 1.50854L1.84379 11.9116L3.02189 13.0754ZM65.5686 2.9385L78.6652 12.8402L79.6639 11.5193L66.5673 1.61755L65.5686 2.9385ZM78.6725 11.5138L73.0328 15.6813L74.017 17.0131L79.6566 12.8457L78.6725 11.5138ZM74.0262 15.6883L63.0289 7.32193L62.0262 8.6399L73.0236 17.0062L74.0262 15.6883ZM63.231 8.41764L66.7715 2.71475L65.3645 1.84131L61.8241 7.54419L63.231 8.41764ZM18.6953 9.40417H60.9615V7.74817H18.6953V9.40417ZM60.2585 8.1387L56.5927 14.0296L57.9987 14.9045L61.6645 9.01363L60.2585 8.1387ZM57.2957 13.6391H23.019V15.2951H57.2957V13.6391ZM23.6865 13.9771L19.3628 8.08624L18.0278 9.06609L22.3515 14.957L23.6865 13.9771ZM16.8075 9.10002L21.2566 15.1163L22.5881 14.1316L18.139 8.11538L16.8075 9.10002ZM21.3329 14.0425L14.4713 20.9987L15.6502 22.1617L22.5118 15.2054L21.3329 14.0425ZM15.5453 20.9088L9.46702 16.522L8.49789 17.8648L14.5762 22.2516L15.5453 20.9088ZM9.57118 17.7756L18.062 9.18993L16.8846 8.02548L8.39372 16.6111L9.57118 17.7756ZM61.4944 9.48688L72.2097 17.6025L73.2096 16.2824L62.4942 8.16678L61.4944 9.48688ZM72.2156 16.278L66.2313 20.7275L67.2194 22.0564L73.2037 17.6069L72.2156 16.278ZM67.2268 20.7331L58.7046 14.2469L57.7017 15.5646L66.2239 22.0508L67.2268 20.7331ZM58.9057 15.3439L62.6968 9.26499L61.2917 8.38867L57.5006 14.4676L58.9057 15.3439ZM79.0258 12.9321V66.1381H80.6818V12.9321H79.0258ZM80.3149 65.4504L74.8006 61.7529L73.8783 63.1283L79.3927 66.8258L80.3149 65.4504ZM75.1675 62.4406V17.1936H73.5115V62.4406H75.1675ZM75.1675 17.1936V17.0056H73.5115V17.1936H75.1675ZM74.8314 17.6715L80.3458 13.5981L79.3618 12.2661L73.8475 16.3396L74.8314 17.6715ZM1.88937 14.3573L7.40371 18.3054L8.36775 16.959L2.85341 13.0108L1.88937 14.3573ZM7.05773 17.6322V62.6913H8.71373V17.6322H7.05773ZM7.43835 61.9945L1.92401 65.5353L2.81877 66.9288L8.33311 63.388L7.43835 61.9945ZM3.19939 66.2321V13.6841H1.54339V66.2321H3.19939ZM21.8506 15.96L25.7357 21.2556L27.0709 20.276L23.1858 14.9804L21.8506 15.96ZM25.8143 20.1839L20.6446 25.4167L21.8226 26.5806L26.9923 21.3477L25.8143 20.1839ZM21.7164 25.326L16.39 21.5031L15.4245 22.8485L20.7508 26.6713L21.7164 25.326ZM16.4969 22.7571L23.1078 16.0515L21.9286 14.8889L15.3176 21.5945L16.4969 22.7571ZM23.77 16.2982H56.6681V14.6422H23.77V16.2982ZM55.965 15.033L52.7691 20.1718L54.1754 21.0464L57.3712 15.9075L55.965 15.033ZM53.4723 19.7811H27.5298V21.4371H53.4723V19.7811ZM28.198 20.1202L24.4383 14.9813L23.1018 15.9591L26.8615 21.098L28.198 20.1202ZM57.1703 16.4127L65.4105 22.6483L66.4098 21.3277L58.1696 15.0922L57.1703 16.4127ZM65.4191 21.3213L60.1867 25.1755L61.1688 26.5088L66.4012 22.6547L65.4191 21.3213ZM61.1793 25.1833L54.8817 20.3892L53.8786 21.7068L60.1762 26.501L61.1793 25.1833ZM55.0835 21.4849L58.3733 16.1894L56.9666 15.3155L53.6768 20.611L55.0835 21.4849ZM72.5093 17.7577V61.7828H74.1653V17.7577H72.5093ZM73.7983 61.095L67.908 57.1468L66.986 58.5224L72.8763 62.4706L73.7983 61.095ZM68.275 57.8346V22.1759H66.619V57.8346H68.275ZM68.275 22.1759V22.1132H66.619V22.1759H68.275ZM67.9393 22.779L73.8296 18.4235L72.845 17.092L66.9547 21.4475L67.9393 22.779ZM8.40332 19.0237L14.2936 23.2852L15.2643 21.9435L9.37399 17.682L8.40332 19.0237ZM13.951 22.6144V58.2731H15.607V22.6144H13.951ZM14.3308 57.5768L8.4405 61.3683L9.33681 62.7608L15.2271 58.9693L14.3308 57.5768ZM9.71665 62.0646V18.3529H8.06065V62.0646H9.71665ZM26.9676 22.4395H53.4113V20.7835H26.9676V22.4395ZM52.9107 22.271L59.8036 27.5039L60.8049 26.1849L53.912 20.952L52.9107 22.271ZM59.4763 26.8444V53.9801H61.1323V26.8444H59.4763ZM59.7654 53.3514L52.7471 59.3677L53.8249 60.625L60.8432 54.6087L59.7654 53.3514ZM53.286 59.1683H28.0015V60.8243H53.286V59.1683ZM28.587 59.4109L22.5087 53.332L21.3377 54.5029L27.416 60.5818L28.587 59.4109ZM22.7512 53.9174V26.719H21.0952V53.9174H22.7512ZM22.5123 27.3009L27.5567 22.1933L26.3784 21.0297L21.3341 26.1372L22.5123 27.3009ZM65.6153 22.8341V57.1454H67.2713V22.8341H65.6153ZM66.9046 56.4578L61.7662 53.011L60.8437 54.3862L65.982 57.833L66.9046 56.4578ZM62.1329 53.6986V26.6256H60.4769V53.6986H62.1329ZM61.7966 27.2918L66.9349 23.5004L65.9517 22.1678L60.8133 25.9593L61.7966 27.2918ZM15.2983 24.0081L20.4053 27.6742L21.371 26.3289L16.264 22.6628L15.2983 24.0081ZM21.4737 27.587L21.505 27.5557L20.334 26.3848L20.3026 26.4161L21.4737 27.587ZM20.0915 26.9702V54.1059H21.7475V26.9702H20.0915ZM20.0915 54.1059V54.3253H21.7475V54.1059H20.0915ZM20.47 53.6299L15.3316 56.9514L16.2306 58.3421L21.369 55.0207L20.47 53.6299ZM16.6091 57.6467V23.3354H14.9531V57.6467H16.6091ZM60.5003 55.3891L65.7953 58.9299L66.7158 57.5533L61.4208 54.0125L60.5003 55.3891ZM65.7139 57.6153L56.9098 65.2296L57.993 66.4821L66.7972 58.8679L65.7139 57.6153ZM58.1404 65.3966L54.6939 60.2264L53.316 61.1449L56.7625 66.3151L58.1404 65.3966ZM54.545 61.3133L61.5006 55.3284L60.4205 54.0731L53.4649 60.058L54.545 61.3133ZM21.0859 55.6622L26.5376 61.1144L27.7086 59.9435L22.257 54.4913L21.0859 55.6622ZM26.4286 60.0782L22.9508 65.4364L24.3399 66.338L27.8177 60.9798L26.4286 60.0782ZM24.2308 65.3017L16.8679 57.9381L15.6969 59.109L23.0598 66.4726L24.2308 65.3017ZM16.7286 59.2211L22.1176 55.7743L21.2253 54.3792L15.8363 57.826L16.7286 59.2211ZM66.6711 59.5246L72.7494 63.598L73.6713 62.2224L67.593 58.1489L66.6711 59.5246ZM72.67 62.2828L61.3907 71.9965L62.4713 73.2513L73.7507 63.5376L72.67 62.2828ZM62.62 72.1647L58.6722 66.2424L57.2943 67.161L61.242 73.0832L62.62 72.1647ZM58.523 67.3296L67.6718 59.4646L66.5923 58.2089L57.4435 66.0738L58.523 67.3296ZM14.8183 59.6737L22.4632 67.3193L23.6342 66.1484L15.9893 58.5028L14.8183 59.6737ZM22.3565 66.2795L18.346 72.3897L19.7305 73.2984L23.7409 67.1882L22.3565 66.2795ZM19.6238 72.2586L9.81701 62.4509L8.64599 63.6218L18.4527 73.4295L19.6238 72.2586ZM9.67766 63.7339L15.85 59.7857L14.9576 58.3907L8.78533 62.3388L9.67766 63.7339ZM28.0303 61.8269H53.0329V60.1709H28.0303V61.8269ZM52.3433 61.4572L55.7584 66.5961L57.1376 65.6795L53.7225 60.5406L52.3433 61.4572ZM56.448 65.3098H24.6465V66.9658H56.448V65.3098ZM25.3381 66.5931L28.7219 61.4543L27.3388 60.5436L23.955 65.6824L25.3381 66.5931ZM73.5968 64.162L79.2364 67.9535L80.1604 66.5792L74.5207 62.7877L73.5968 64.162ZM80.3722 67.7475L80.5288 67.5282L79.1813 66.5657L79.0246 66.7851L80.3722 67.7475ZM79.0271 67.047V67.2036H80.6831V67.047H79.0271ZM79.315 66.576L65.6231 78.3578L66.7033 79.6131L80.3951 67.8313L79.315 66.576ZM66.8521 78.5262L63.155 72.9799L61.7771 73.8985L65.4742 79.4447L66.8521 78.5262ZM63.0058 74.0671L74.5984 64.1027L73.519 62.8469L61.9264 72.8113L63.0058 74.0671ZM7.7698 64.1856L17.8899 74.3067L19.0609 73.1358L8.94082 63.0147L7.7698 64.1856ZM17.783 73.2672L14.0232 79.0014L15.408 79.9094L19.1678 74.1752L17.783 73.2672ZM14.2896 80.1654L14.4462 80.2594L15.2983 78.8395L15.1416 78.7455L14.2896 80.1654ZM14.8723 78.7214H14.8096V80.3774H14.8723V78.7214ZM15.3951 78.964L15.3011 78.87L14.1301 80.0409L14.2241 80.1349L15.3951 78.964ZM15.3011 78.87L3.1445 66.7122L1.97347 67.8831L14.1301 80.0409L15.3011 78.87ZM3.00428 67.9957L8.8006 64.2982L7.91001 62.9021L2.11369 66.5996L3.00428 67.9957ZM23.9916 67.969H57.109V66.313H23.9916V67.969ZM56.4194 67.5994L60.3359 73.4903L61.7149 72.5735L57.7985 66.6826L56.4194 67.5994ZM61.0254 72.2039H20.1378V73.8599H61.0254V72.2039ZM20.8307 73.4852L24.6845 67.5943L23.2987 66.6877L19.4449 72.5786L20.8307 73.4852ZM19.478 74.8623H61.6189V73.2063H19.478V74.8623ZM61.6189 74.8623H61.6815V73.2063H61.6189V74.8623ZM60.992 74.4926L64.6578 80.0075L66.0369 79.0908L62.3711 73.5759L60.992 74.4926ZM65.3473 78.7211H15.8749V80.3771H65.3473V78.7211ZM16.5681 80.002L20.1712 74.4871L18.7849 73.5814L15.1817 79.0963L16.5681 80.002Z" fill="#D2AB8B"/>
</svg>
