<svg width="80" height="80" viewBox="0 0 80 80" fill="none" xmlns="http://www.w3.org/2000/svg">
<path d="M2.68359 5.02455L75.2837 77.6246L77.6256 75.2827L5.02553 2.68262L2.68359 5.02455Z" fill="#D2AB8B"/>
<path d="M74.5787 2.68262L2.94873 74.3126L5.29067 76.6546L76.9207 5.02455L74.5787 2.68262Z" fill="#D2AB8B"/>
<path fill-rule="evenodd" clip-rule="evenodd" d="M79.5456 0.0561523H0.0576172V79.5442H79.5456V0.0561523ZM76.2336 76.2322H3.36962V3.36815H76.2336V76.2322Z" fill="#D2AB8B"/>
<path fill-rule="evenodd" clip-rule="evenodd" d="M69.6092 9.99219H9.99316V69.6082H69.6092V9.99219ZM66.297 66.2962H13.305V13.3042H66.297V66.2962Z" fill="#D2AB8B"/>
<path fill-rule="evenodd" clip-rule="evenodd" d="M59.6734 19.9282H19.9294V59.6722H59.6734V19.9282ZM56.3614 56.3602H23.2414V23.2402H56.3614V56.3602Z" fill="#D2AB8B"/>
<rect x="29.8652" y="29.8643" width="19.872" height="19.872" fill="white"/>
<path fill-rule="evenodd" clip-rule="evenodd" d="M49.737 29.8643H29.865V49.7363H49.737V29.8643ZM46.425 46.4243H33.177V33.1763H46.425V46.4243Z" fill="#D2AB8B"/>
</svg>
