<svg width="76" height="86" viewBox="0 0 76 86" fill="none" xmlns="http://www.w3.org/2000/svg">
<path fill-rule="evenodd" clip-rule="evenodd" d="M29.8336 1.08008C14.0731 1.08008 1.3689 13.7842 1.3689 29.5448V56.6871C1.3689 72.4477 14.0731 85.1518 29.8336 85.1518H45.9669C61.7275 85.1518 74.4316 72.4477 74.4316 56.6871V29.5448C74.4316 13.7842 61.7275 1.08008 45.9669 1.08008H29.8336ZM29.8332 2.13764H36.6436L17.7994 11.5598V4.91469C21.429 3.14755 25.5075 2.13764 29.8332 2.13764ZM38.8584 2.13764H45.9663C50.2287 2.13764 54.2453 3.12978 57.8348 4.84857V11.5928L38.8584 2.13764ZM37.7674 2.76592L56.4794 12.0558L37.7674 21.1804L19.1546 12.0558L37.7674 2.76592ZM58.8921 5.37768C61.7642 6.90925 64.3207 8.91706 66.4628 11.3285H66.1653H58.8921V5.37768ZM16.7404 5.44398V11.3287H9.6656H9.335C11.4383 8.9609 13.9314 6.96543 16.7404 5.44398ZM9.13728 11.5602V11.8577V21.941H3.48401C4.5971 18.0549 6.56317 14.5238 9.13728 11.5602ZM66.6966 11.5933C69.2556 14.5496 71.2082 18.0704 72.3168 21.9411H66.6966V11.8578V11.5933ZM10.1953 12.3866H16.7412V21.9409H10.1953V12.3866ZM58.8921 12.3866H65.6363V21.9409H58.8921V12.3866ZM17.7994 12.5192L37.0073 21.9413H17.7994V12.5192ZM57.8355 12.5192V21.9413H38.5285L57.8355 12.5192ZM3.21981 22.9986H9.33592L9.17062 23.4283L2.42637 42.2395V29.5444C2.42637 27.2773 2.70655 25.1023 3.21981 22.9986ZM10.0304 22.9986H16.7416V42.0742L10.1626 23.4283L10.0304 22.9986ZM17.7994 22.9986H57.8351V63.0343H17.7994V22.9986ZM58.8921 22.9986H65.8016L65.6363 23.4283L58.8921 41.942V22.9986ZM66.4961 22.9986H72.5792C73.0924 25.1023 73.3726 27.2773 73.3726 29.5444V42.4379L66.6283 23.4283L66.4961 22.9986ZM9.66622 25.1809L16.0468 43.2317L9.30256 61.2825L3.18645 43.2317L9.66622 25.1809ZM66.1341 25.1809L72.6139 43.4301L66.4647 61.3156L59.5551 43.1987L66.1341 25.1809ZM2.42637 44.2896L8.74084 63.0347H3.15369C2.67678 61.0021 2.42637 58.8701 2.42637 56.6872V44.2896ZM16.7408 44.4214V63.0342H9.76517L16.7408 44.4214ZM58.8921 44.4546L66 63.0343H58.8921V44.4546ZM73.3748 44.4546V56.6868C73.3748 58.8698 73.1244 61.0018 72.6475 63.0343H66.9942L73.3748 44.4546ZM3.41933 64.0921H8.67587V74.0762V74.1423C6.27802 71.234 4.45635 67.8356 3.41933 64.0921ZM9.73283 64.0921H16.7416V73.5473H9.73283V64.0921ZM17.7994 64.0921H36.8419L18.2291 73.5803L17.7994 73.8118V64.0921ZM38.6611 64.0921H57.8359V73.8779L57.2739 73.5803L38.6611 64.0921ZM58.8921 64.0921H66.0661V73.4481H58.8921V64.0921ZM67.1236 64.0921H72.3801C71.3431 67.8356 69.5214 71.234 67.1236 74.1423V73.9771V64.0921ZM37.7663 64.8198L55.8502 74.0436L37.7663 83.4657L19.6494 74.0766L37.7663 64.8198ZM57.8341 74.2416V81.4156C54.2446 83.1344 50.228 84.0935 45.9656 84.0935H38.8907L57.2721 74.5391L57.8341 74.2416ZM17.7994 74.3079L18.2291 74.5393L36.6105 84.0936H29.8332C25.5075 84.0936 21.429 83.1168 17.7994 81.3497V74.3079ZM58.8921 74.5068H66.5951H66.7934C64.5847 77.0898 61.9176 79.274 58.8921 80.8874V74.5068ZM9.07301 74.6054H9.20525H16.7429V80.8207C13.8161 79.2355 11.2289 77.1046 9.07301 74.6054Z" fill="#D2AB8B"/>
<path d="M36.6436 2.13764L37.0139 2.87823L36.6436 1.30964V2.13764ZM17.7994 11.5598H16.9714V12.8995L18.1697 12.3003L17.7994 11.5598ZM17.7994 4.91469L17.4369 4.17023L16.9714 4.39689V4.91469H17.7994ZM38.8584 2.13764V1.30964L38.4891 2.87874L38.8584 2.13764ZM57.8348 4.84857H58.6628V4.32701L58.1924 4.10177L57.8348 4.84857ZM57.8348 11.5928L57.4656 12.3339L58.6628 12.9305V11.5928H57.8348ZM37.7674 2.76592L38.1356 2.02429L37.7664 1.841L37.3976 2.02507L37.7674 2.76592ZM56.4794 12.0558L56.8423 12.8L58.3548 12.0625L56.8476 11.3142L56.4794 12.0558ZM37.7674 21.1804L37.4029 21.9238L37.7664 22.102L38.1303 21.9246L37.7674 21.1804ZM19.1546 12.0558L18.7848 11.3149L17.2871 12.0625L18.7901 12.7993L19.1546 12.0558ZM58.8921 5.37768L59.2817 4.64707L58.0641 3.99776V5.37768H58.8921ZM66.4628 11.3285V12.1565H68.3059L67.0819 10.7786L66.4628 11.3285ZM58.8921 11.3285H58.0641V12.1565H58.8921V11.3285ZM16.7404 5.44398H17.5685V4.05387L16.3461 4.71591L16.7404 5.44398ZM16.7404 11.3287V12.1567H17.5685V11.3287H16.7404ZM9.335 11.3287L8.71597 10.7788L7.49196 12.1567H9.335V11.3287ZM9.13728 11.5602H9.96528V9.34424L8.51216 11.0172L9.13728 11.5602ZM9.13728 21.941V22.769H9.96528V21.941H9.13728ZM3.48401 21.941L2.68802 21.7131L2.38556 22.769H3.48401V21.941ZM66.6966 11.5933L67.3227 11.0514L65.8686 9.37161V11.5933H66.6966ZM72.3168 21.9411V22.7691H73.4153L73.1128 21.7131L72.3168 21.9411ZM66.6966 21.9411H65.8686V22.7691H66.6966V21.9411ZM10.1953 12.3866V11.5586H9.36734V12.3866H10.1953ZM16.7412 12.3866H17.5692V11.5586H16.7412V12.3866ZM16.7412 21.9409V22.7689H17.5692V21.9409H16.7412ZM10.1953 21.9409H9.36734V22.7689H10.1953V21.9409ZM58.8921 12.3866V11.5586H58.0641V12.3866H58.8921ZM65.6363 12.3866H66.4643V11.5586H65.6363V12.3866ZM65.6363 21.9409V22.7689H66.4643V21.9409H65.6363ZM58.8921 21.9409H58.0641V22.7689H58.8921V21.9409ZM17.7994 12.5192L18.164 11.7758L16.9714 11.1908V12.5192H17.7994ZM37.0073 21.9413V22.7693L37.3719 21.1979L37.0073 21.9413ZM17.7994 21.9413H16.9714V22.7693H17.7994V21.9413ZM57.8355 12.5192H58.6635V11.1938L57.4724 11.7751L57.8355 12.5192ZM57.8355 21.9413V22.7693H58.6635V21.9413H57.8355ZM38.5285 21.9413L38.1653 21.1972L38.5285 22.7693V21.9413ZM3.21981 22.9986V22.1706H2.56954L2.41541 22.8023L3.21981 22.9986ZM9.33592 22.9986L10.1087 23.2958L10.5415 22.1706H9.33592V22.9986ZM9.17062 23.4283L8.39781 23.1311L8.39441 23.14L8.3912 23.1489L9.17062 23.4283ZM2.42637 42.2395H1.59837L3.20579 42.5189L2.42637 42.2395ZM10.0304 22.9986V22.1706H8.90931L9.239 23.2421L10.0304 22.9986ZM16.7416 22.9986H17.5696V22.1706H16.7416V22.9986ZM16.7416 42.0742L15.9608 42.3497L17.5696 42.0742H16.7416ZM10.1626 23.4283L9.37124 23.6718L9.3762 23.6879L9.38181 23.7038L10.1626 23.4283ZM17.7994 22.9986V22.1706H16.9714V22.9986H17.7994ZM57.8351 22.9986H58.6631V22.1706H57.8351V22.9986ZM57.8351 63.0343V63.8623H58.6631V63.0343H57.8351ZM17.7994 63.0343H16.9714V63.8623H17.7994V63.0343ZM58.8921 22.9986V22.1706H58.0641V22.9986H58.8921ZM65.8016 22.9986L66.5745 23.2958L67.0072 22.1706H65.8016V22.9986ZM65.6363 23.4283L64.8635 23.1311L64.8609 23.138L64.8584 23.1449L65.6363 23.4283ZM58.8921 41.942H58.0641L59.6701 42.2254L58.8921 41.942ZM66.4961 22.9986V22.1706H65.375L65.7047 23.2421L66.4961 22.9986ZM72.5792 22.9986L73.3836 22.8023L73.2294 22.1706H72.5792V22.9986ZM73.3726 42.4379L72.5923 42.7147L74.2006 42.4379H73.3726ZM66.6283 23.4283L65.837 23.6718L65.8421 23.6886L65.848 23.7052L66.6283 23.4283ZM9.66622 25.1809L10.4469 24.905L9.67224 22.7135L8.88691 24.9012L9.66622 25.1809ZM16.0468 43.2317L16.8224 43.5215L16.9278 43.2396L16.8275 42.9558L16.0468 43.2317ZM9.30256 61.2825L8.51835 61.5482L9.26446 63.7502L10.0782 61.5723L9.30256 61.2825ZM3.18645 43.2317L2.40714 42.952L2.30955 43.2239L2.40224 43.4974L3.18645 43.2317ZM66.1341 25.1809L66.9144 24.9039L66.145 22.7371L65.3563 24.8969L66.1341 25.1809ZM72.6139 43.4301L73.3969 43.6993L73.4909 43.4257L73.3941 43.153L72.6139 43.4301ZM66.4647 61.3156L65.691 61.6106L66.505 63.7449L67.2477 61.5848L66.4647 61.3156ZM59.5551 43.1987L58.7774 42.9147L58.6714 43.205L58.7815 43.4937L59.5551 43.1987ZM2.42637 44.2896L3.21105 44.0253L1.59837 44.2896H2.42637ZM8.74084 63.0347V63.8627H9.89348L9.52552 62.7704L8.74084 63.0347ZM3.15369 63.0347L2.34759 63.2238L2.49749 63.8627H3.15369V63.0347ZM16.7408 44.4214H17.5688L15.9655 44.1309L16.7408 44.4214ZM16.7408 63.0342V63.8622H17.5688V63.0342H16.7408ZM9.76517 63.0342L8.98983 62.7437L8.57061 63.8622H9.76517V63.0342ZM58.8921 44.4546L59.6654 44.1587L58.0641 44.4546H58.8921ZM66 63.0343V63.8623H67.2033L66.7733 62.7385L66 63.0343ZM58.8921 63.0343H58.0641V63.8623H58.8921V63.0343ZM73.3748 44.4546H74.2028L72.5917 44.1857L73.3748 44.4546ZM72.6475 63.0343V63.8623H73.3037L73.4536 63.2235L72.6475 63.0343ZM66.9942 63.0343L66.2111 62.7654L65.8344 63.8623H66.9942V63.0343ZM3.41933 64.0921V63.2641H2.33077L2.62138 64.3131L3.41933 64.0921ZM8.67587 64.0921H9.50387V63.2641H8.67587V64.0921ZM8.67587 74.1423L8.03701 74.6691L9.50387 76.4482V74.1423H8.67587ZM9.73283 64.0921V63.2641H8.90483V64.0921H9.73283ZM16.7416 64.0921H17.5696V63.2641H16.7416V64.0921ZM16.7416 73.5473V74.3753H17.5696V73.5473H16.7416ZM9.73283 73.5473H8.90483V74.3753H9.73283V73.5473ZM17.7994 64.0921V63.2641H16.9714V64.0921H17.7994ZM36.8419 64.0921L37.218 64.8298L36.8419 63.2641V64.0921ZM18.2291 73.5803L17.8531 72.8427L17.8448 72.8469L17.8366 72.8513L18.2291 73.5803ZM17.7994 73.8118H16.9714V75.198L18.1919 74.5408L17.7994 73.8118ZM38.6611 64.0921V63.2641L38.285 64.8298L38.6611 64.0921ZM57.8359 64.0921H58.6639V63.2641H57.8359V64.0921ZM57.8359 73.8779L57.4485 74.6096L58.6639 75.2531V73.8779H57.8359ZM57.2739 73.5803L57.6613 72.8485L57.6499 72.8427L57.2739 73.5803ZM58.8921 64.0921V63.2641H58.0641V64.0921H58.8921ZM66.0661 64.0921H66.8941V63.2641H66.0661V64.0921ZM66.0661 73.4481V74.2761H66.8941V73.4481H66.0661ZM58.8921 73.4481H58.0641V74.2761H58.8921V73.4481ZM67.1236 64.0921V63.2641H66.2956V64.0921H67.1236ZM72.3801 64.0921L73.1781 64.3131L73.4687 63.2641H72.3801V64.0921ZM67.1236 74.1423H66.2956V76.4483L67.7624 74.6691L67.1236 74.1423ZM37.7663 64.8198L38.1425 64.0822L37.766 63.8902L37.3896 64.0825L37.7663 64.8198ZM55.8502 74.0436L56.2328 74.7779L57.6572 74.0358L56.2264 73.306L55.8502 74.0436ZM37.7663 83.4657L37.3853 84.2008L37.7673 84.3988L38.1489 84.2L37.7663 83.4657ZM19.6494 74.0766L19.2727 73.3393L17.8398 74.0714L19.2684 74.8118L19.6494 74.0766ZM57.8341 74.2416H58.6621V72.8663L57.4467 73.5098L57.8341 74.2416ZM57.8341 81.4156L58.1917 82.1624L58.6621 81.9371V81.4156H57.8341ZM38.8907 84.0935L38.5088 83.3588L38.8907 84.9215V84.0935ZM57.2721 74.5391L57.654 75.2738L57.6595 75.2709L57.2721 74.5391ZM17.7994 74.3079L18.1919 73.5788L16.9714 72.9216V74.3079H17.7994ZM18.2291 74.5393L17.8365 75.2684L17.8473 75.274L18.2291 74.5393ZM36.6105 84.0936V84.9216L36.9924 83.359L36.6105 84.0936ZM17.7994 81.3497H16.9714V81.8675L17.4369 82.0941L17.7994 81.3497ZM58.8921 74.5068V73.6788H58.0641V74.5068H58.8921ZM66.7934 74.5068L67.4227 75.0449L68.5909 73.6788H66.7934V74.5068ZM58.8921 80.8874H58.0641V82.2673L59.2817 81.618L58.8921 80.8874ZM9.07301 74.6054V73.7774H7.26527L8.44605 75.1463L9.07301 74.6054ZM16.7429 74.6054H17.5709V73.7774H16.7429V74.6054ZM16.7429 80.8207L16.3486 81.5488L17.5709 82.2108V80.8207H16.7429ZM29.8336 0.252078C13.6158 0.252078 0.540896 13.3269 0.540896 29.5448H2.1969C2.1969 14.2415 14.5304 1.90808 29.8336 1.90808V0.252078ZM0.540896 29.5448V56.6871H2.1969V29.5448H0.540896ZM0.540896 56.6871C0.540896 72.905 13.6158 85.9798 29.8336 85.9798V84.3238C14.5304 84.3238 2.1969 71.9904 2.1969 56.6871H0.540896ZM29.8336 85.9798H45.9669V84.3238H29.8336V85.9798ZM45.9669 85.9798C62.1848 85.9798 75.2596 72.905 75.2596 56.6871H73.6036C73.6036 71.9904 61.2702 84.3238 45.9669 84.3238V85.9798ZM75.2596 56.6871V29.5448H73.6036V56.6871H75.2596ZM75.2596 29.5448C75.2596 13.3269 62.1848 0.252078 45.9669 0.252078V1.90808C61.2702 1.90808 73.6036 14.2415 73.6036 29.5448H75.2596ZM45.9669 0.252078H29.8336V1.90808H45.9669V0.252078ZM29.8332 2.96564H36.6436V1.30964H29.8332V2.96564ZM36.2733 1.39705L17.4291 10.8192L18.1697 12.3003L37.0139 2.87823L36.2733 1.39705ZM18.6274 11.5598V4.91469H16.9714V11.5598H18.6274ZM18.1618 5.65914C21.6829 3.94483 25.6379 2.96564 29.8332 2.96564V1.30964C25.3771 1.30964 21.175 2.35027 17.4369 4.17023L18.1618 5.65914ZM38.8584 2.96564H45.9663V1.30964H38.8584V2.96564ZM45.9663 2.96564C50.0985 2.96564 53.9934 3.92719 57.4772 5.59537L58.1924 4.10177C54.4972 2.33236 50.3588 1.30964 45.9663 1.30964V2.96564ZM57.0068 4.84857V11.5928H58.6628V4.84857H57.0068ZM58.2041 10.8517L39.2276 1.39654L38.4891 2.87874L57.4656 12.3339L58.2041 10.8517ZM37.3992 3.50755L56.1112 12.7974L56.8476 11.3142L38.1356 2.02429L37.3992 3.50755ZM56.1165 11.3116L37.4045 20.4361L38.1303 21.9246L56.8423 12.8L56.1165 11.3116ZM38.1318 20.4369L19.519 11.3123L18.7901 12.7993L37.4029 21.9238L38.1318 20.4369ZM19.5243 12.7966L38.1371 3.50677L37.3976 2.02507L18.7848 11.3149L19.5243 12.7966ZM58.5025 6.10829C61.2891 7.59429 63.7677 9.54126 65.8438 11.8784L67.0819 10.7786C64.8738 8.29286 62.2392 6.22421 59.2817 4.64707L58.5025 6.10829ZM66.4628 10.5005H66.1653V12.1565H66.4628V10.5005ZM66.1653 10.5005H58.8921V12.1565H66.1653V10.5005ZM59.7201 11.3285V5.37768H58.0641V11.3285H59.7201ZM15.9125 5.44398V11.3287H17.5685V5.44398H15.9125ZM16.7404 10.5007H9.6656V12.1567H16.7404V10.5007ZM9.6656 10.5007H9.335V12.1567H9.6656V10.5007ZM9.95403 11.8786C11.9948 9.58118 14.4123 7.64661 17.1348 6.17205L16.3461 4.71591C13.4505 6.28426 10.8818 8.34062 8.71597 10.7788L9.95403 11.8786ZM8.30928 11.5602V11.8577H9.96528V11.5602H8.30928ZM8.30928 11.8577V21.941H9.96528V11.8577H8.30928ZM9.13728 21.113H3.48401V22.769H9.13728V21.113ZM4.28001 22.169C5.35857 18.4034 7.26457 14.9789 9.7624 12.1031L8.51216 11.0172C5.86178 14.0686 3.83562 17.7064 2.68802 21.7131L4.28001 22.169ZM66.0706 12.1352C68.5534 15.0036 70.4464 18.418 71.5209 22.1691L73.1128 21.7131C71.9699 17.7228 69.9577 14.0957 67.3227 11.0514L66.0706 12.1352ZM72.3168 21.1131H66.6966V22.7691H72.3168V21.1131ZM67.5246 21.9411V11.8578H65.8686V21.9411H67.5246ZM67.5246 11.8578V11.5933H65.8686V11.8578H67.5246ZM10.1953 13.2146H16.7412V11.5586H10.1953V13.2146ZM15.9132 12.3866V21.9409H17.5692V12.3866H15.9132ZM16.7412 21.1129H10.1953V22.7689H16.7412V21.1129ZM11.0233 21.9409V12.3866H9.36734V21.9409H11.0233ZM58.8921 13.2146H65.6363V11.5586H58.8921V13.2146ZM64.8083 12.3866V21.9409H66.4643V12.3866H64.8083ZM65.6363 21.1129H58.8921V22.7689H65.6363V21.1129ZM59.7201 21.9409V12.3866H58.0641V21.9409H59.7201ZM17.4347 13.2626L36.6426 22.6847L37.3719 21.1979L18.164 11.7758L17.4347 13.2626ZM37.0073 21.1133H17.7994V22.7693H37.0073V21.1133ZM18.6274 21.9413V12.5192H16.9714V21.9413H18.6274ZM57.0075 12.5192V21.9413H58.6635V12.5192H57.0075ZM57.8355 21.1133H38.5285V22.7693H57.8355V21.1133ZM38.8916 22.6854L58.1987 13.2633L57.4724 11.7751L38.1653 21.1972L38.8916 22.6854ZM3.21981 23.8265H9.33592V22.1706H3.21981V23.8265ZM8.56311 22.7013L8.39781 23.1311L9.94343 23.7256L10.1087 23.2958L8.56311 22.7013ZM8.3912 23.1489L1.64695 41.9601L3.20579 42.5189L9.95004 23.7078L8.3912 23.1489ZM3.25437 42.2395V29.5444H1.59837V42.2395H3.25437ZM3.25437 29.5444C3.25437 27.3466 3.52587 25.2374 4.02422 23.1948L2.41541 22.8023C1.88723 24.9672 1.59837 27.2081 1.59837 29.5444H3.25437ZM10.0304 23.8265H16.7416V22.1706H10.0304V23.8265ZM15.9136 22.9986V42.0742H17.5696V22.9986H15.9136ZM17.5224 41.7987L10.9435 23.1528L9.38181 23.7038L15.9608 42.3497L17.5224 41.7987ZM10.954 23.1848L10.8218 22.755L9.239 23.2421L9.37124 23.6718L10.954 23.1848ZM17.7994 23.8265H57.8351V22.1706H17.7994V23.8265ZM57.0071 22.9986V63.0343H58.6631V22.9986H57.0071ZM57.8351 62.2063H17.7994V63.8623H57.8351V62.2063ZM18.6274 63.0343V22.9986H16.9714V63.0343H18.6274ZM58.8921 23.8265H65.8016V22.1706H58.8921V23.8265ZM65.0288 22.7013L64.8635 23.1311L66.4092 23.7256L66.5745 23.2958L65.0288 22.7013ZM64.8584 23.1449L58.1141 41.6586L59.6701 42.2254L66.4143 23.7117L64.8584 23.1449ZM59.7201 41.942V22.9986H58.0641V41.942H59.7201ZM66.4961 23.8265H72.5792V22.1706H66.4961V23.8265ZM71.7747 23.1948C72.2731 25.2374 72.5446 27.3466 72.5446 29.5444H74.2006C74.2006 27.2081 73.9117 24.9672 73.3836 22.8023L71.7747 23.1948ZM72.5446 29.5444V42.4379H74.2006V29.5444H72.5446ZM74.1529 42.161L67.4087 23.1515L65.848 23.7052L72.5923 42.7147L74.1529 42.161ZM67.4197 23.1848L67.2875 22.755L65.7047 23.2421L65.837 23.6718L67.4197 23.1848ZM8.88556 25.4569L15.2661 43.5077L16.8275 42.9558L10.4469 24.905L8.88556 25.4569ZM15.2712 42.9419L8.52693 60.9927L10.0782 61.5723L16.8224 43.5215L15.2712 42.9419ZM10.0868 61.0168L3.97066 42.966L2.40224 43.4974L8.51835 61.5482L10.0868 61.0168ZM3.96576 43.5115L10.4455 25.4607L8.88691 24.9012L2.40714 42.952L3.96576 43.5115ZM65.3538 25.458L71.8336 43.7071L73.3941 43.153L66.9144 24.9039L65.3538 25.458ZM71.8308 43.1609L65.6817 61.0464L67.2477 61.5848L73.3969 43.6993L71.8308 43.1609ZM67.2383 61.0205L60.3288 42.9036L58.7815 43.4937L65.691 61.6106L67.2383 61.0205ZM60.3329 43.4827L66.9119 25.4649L65.3563 24.8969L58.7774 42.9147L60.3329 43.4827ZM1.6417 44.554L7.95617 63.299L9.52552 62.7704L3.21105 44.0253L1.6417 44.554ZM8.74084 62.2067H3.15369V63.8627H8.74084V62.2067ZM3.9598 62.8455C3.49754 60.8754 3.25437 58.8069 3.25437 56.6872H1.59837C1.59837 58.9333 1.85601 61.1288 2.34759 63.2238L3.9598 62.8455ZM3.25437 56.6872V44.2896H1.59837V56.6872H3.25437ZM15.9128 44.4214V63.0342H17.5688V44.4214H15.9128ZM16.7408 62.2062H9.76517V63.8622H16.7408V62.2062ZM10.5405 63.3248L17.5162 44.712L15.9655 44.1309L8.98983 62.7437L10.5405 63.3248ZM58.1188 44.7504L65.2267 63.3302L66.7733 62.7385L59.6654 44.1587L58.1188 44.7504ZM66 62.2063H58.8921V63.8623H66V62.2063ZM59.7201 63.0343V44.4546H58.0641V63.0343H59.7201ZM72.5468 44.4546V56.6868H74.2028V44.4546H72.5468ZM72.5468 56.6868C72.5468 58.8066 72.3036 60.8751 71.8414 62.8452L73.4536 63.2235C73.9452 61.1284 74.2028 58.933 74.2028 56.6868H72.5468ZM72.6475 62.2063H66.9942V63.8623H72.6475V62.2063ZM67.7773 63.3033L74.1579 44.7235L72.5917 44.1857L66.2111 62.7654L67.7773 63.3033ZM3.41933 64.9201H8.67587V63.2641H3.41933V64.9201ZM7.84787 64.0921V74.0762H9.50387V64.0921H7.84787ZM7.84787 74.0762V74.1423H9.50387V74.0762H7.84787ZM9.31474 73.6156C6.98742 70.7928 5.22192 67.4977 4.21728 63.871L2.62138 64.3131C3.69078 68.1736 5.56863 71.6751 8.03701 74.6691L9.31474 73.6156ZM9.73283 64.9201H16.7416V63.2641H9.73283V64.9201ZM15.9136 64.0921V73.5473H17.5696V64.0921H15.9136ZM16.7416 72.7193H9.73283V74.3753H16.7416V72.7193ZM10.5608 73.5473V64.0921H8.90483V73.5473H10.5608ZM17.7994 64.9201H36.8419V63.2641H17.7994V64.9201ZM36.4659 63.3544L17.8531 72.8427L18.6052 74.318L37.218 64.8298L36.4659 63.3544ZM17.8366 72.8513L17.4068 73.0827L18.1919 74.5408L18.6217 74.3094L17.8366 72.8513ZM18.6274 73.8118V64.0921H16.9714V73.8118H18.6274ZM38.6611 64.9201H57.8359V63.2641H38.6611V64.9201ZM57.0079 64.0921V73.8779H58.6639V64.0921H57.0079ZM58.2233 73.1461L57.6613 72.8486L56.8865 74.3121L57.4485 74.6096L58.2233 73.1461ZM57.6499 72.8427L39.0371 63.3544L38.285 64.8298L56.8978 74.318L57.6499 72.8427ZM58.8921 64.9201H66.0661V63.2641H58.8921V64.9201ZM65.2381 64.0921V73.4481H66.8941V64.0921H65.2381ZM66.0661 72.6201H58.8921V74.2761H66.0661V72.6201ZM59.7201 73.4481V64.0921H58.0641V73.4481H59.7201ZM67.1236 64.9201H72.3801V63.2641H67.1236V64.9201ZM71.5822 63.871C70.5775 67.4977 68.812 70.7928 66.4847 73.6156L67.7624 74.6691C70.2308 71.6751 72.1087 68.1736 73.1781 64.3131L71.5822 63.871ZM67.9516 74.1423V73.9771H66.2956V74.1423H67.9516ZM67.9516 73.9771V64.0921H66.2956V73.9771H67.9516ZM37.3901 65.5574L55.474 74.7812L56.2264 73.306L38.1425 64.0822L37.3901 65.5574ZM55.4676 73.3093L37.3837 82.7314L38.1489 84.2L56.2328 74.7779L55.4676 73.3093ZM38.1473 82.7306L20.0304 73.3415L19.2684 74.8118L37.3853 84.2008L38.1473 82.7306ZM20.0262 74.814L38.1431 65.5572L37.3896 64.0825L19.2727 73.3393L20.0262 74.814ZM57.0061 74.2416V81.4156H58.6621V74.2416H57.0061ZM57.4765 80.6688C53.9968 82.335 50.1022 83.2655 45.9656 83.2655V84.9215C50.3537 84.9215 54.4924 83.9338 58.1917 82.1624L57.4765 80.6688ZM45.9656 83.2655H38.8907V84.9215H45.9656V83.2655ZM39.2726 84.8281L57.654 75.2738L56.8902 73.8044L38.5088 83.3588L39.2726 84.8281ZM57.6595 75.2709L58.2215 74.9733L57.4467 73.5098L56.8847 73.8073L57.6595 75.2709ZM17.4068 75.0369L17.8366 75.2683L18.6217 73.8103L18.1919 73.5788L17.4068 75.0369ZM17.8473 75.274L36.2287 84.8283L36.9924 83.359L18.611 73.8046L17.8473 75.274ZM36.6105 83.2656H29.8332V84.9216H36.6105V83.2656ZM29.8332 83.2656C25.6336 83.2656 21.6789 82.3176 18.1618 80.6052L17.4369 82.0941C21.179 83.916 25.3815 84.9216 29.8332 84.9216V83.2656ZM18.6274 81.3497V74.3079H16.9714V81.3497H18.6274ZM58.8921 75.3348H66.5951V73.6788H58.8921V75.3348ZM66.5951 75.3348H66.7934V73.6788H66.5951V75.3348ZM66.1641 73.9687C64.0193 76.477 61.4324 78.5943 58.5025 80.1568L59.2817 81.618C62.4027 79.9537 65.1501 77.7027 67.4227 75.0449L66.1641 73.9687ZM59.7201 80.8874V74.5068H58.0641V80.8874H59.7201ZM9.07301 75.4334H9.20525V73.7774H9.07301V75.4334ZM9.20525 75.4334H16.7429V73.7774H9.20525V75.4334ZM15.9149 74.6054V80.8207H17.5709V74.6054H15.9149ZM17.1373 80.0927C14.3038 78.558 11.7942 76.4924 9.69998 74.0646L8.44605 75.1463C10.6635 77.7169 13.3283 79.9129 16.3486 81.5488L17.1373 80.0927Z" fill="#D2AB8B"/>
</svg>
