<svg width="68" height="89" viewBox="0 0 68 89" fill="none" xmlns="http://www.w3.org/2000/svg">
<path fill-rule="evenodd" clip-rule="evenodd" d="M9.85846 1.74414L9.68888 1.94763L1.75261 11.5119L1.61694 11.6814V11.851V78.8346V79.1059V79.3094L1.75261 79.479L9.55322 87.6866L9.7228 87.8561H9.96021H60.0876H60.359L60.5285 87.6187L67.0404 77.9867L67.1421 77.851V77.6814V11.8171V11.6136L67.0064 11.444L58.9345 1.94763L58.7649 1.74414H58.5275H10.0959H9.85846ZM11.0449 2.82938H57.7808L55.3049 7.17059H13.4869L11.0449 2.82938ZM10.0281 3.23691L12.5378 7.67987L6.29734 15.2092L3.00751 11.6819L10.0281 3.23691ZM58.6969 3.37194L65.8192 11.7152L62.4954 15.2085L56.1871 7.78099L58.6969 3.37194ZM14.0982 8.25585H54.6953L52.389 12.2918H16.4045L14.0982 8.25585ZM13.081 8.69734L15.4551 12.8351L10.0964 19.2451L7.04401 15.9892L13.081 8.69734ZM55.6115 8.79842L61.7842 15.9885L58.6979 19.2445L53.3053 12.9022L55.6115 8.79842ZM2.70348 12.97L5.72198 16.158V74.4252L2.70348 77.6811V12.97ZM66.056 13.0379V76.7655L63.0375 73.5096V73.4757V16.226L66.056 13.0379ZM17.0156 13.3775H51.7792L49.7103 17.0404H19.0844L17.0156 13.3775ZM16.0319 13.8521L18.1347 17.5489L13.6239 22.9755L10.8767 20.0587L16.0319 13.8521ZM52.7268 13.92L57.9498 20.0588L55.1687 23.0095L50.624 17.6508L52.7268 13.92ZM6.80467 17.3113L9.61967 20.2959V70.2198L6.80467 73.2383V17.3113ZM61.9519 17.3792V72.3566L59.1369 69.3381V20.3638L61.9519 17.3792ZM19.0824 18.1255H49.6065L54.4904 23.8912V65.6754L50.5562 71.5089H19.0485L18.845 71.4071L14.2664 66.5233V23.9251L19.0824 18.1255ZM10.7053 21.4497L13.1812 24.0951V66.388L10.7053 69.0673V21.4497ZM58.0517 21.5168V68.1509L55.5758 65.5055V24.1622L58.0517 21.5168ZM55.1686 66.625L57.8818 69.5757L53.9137 75.4431L51.7431 71.6784L55.1686 66.625ZM13.6562 67.4732L17.9974 72.0858L15.8607 75.8165L10.8412 70.5256L13.6562 67.4732ZM58.6624 70.4238L61.6809 73.6797L56.9666 80.7002L54.5246 76.4947L58.6624 70.4238ZM10.0963 71.3051L15.2854 76.7656L12.9113 80.9033L6.97609 74.6628L10.0963 71.3051ZM18.9825 72.594H50.8294H50.999L53.1357 76.223H16.8797L18.9825 72.594ZM62.4601 74.4934L65.716 78.0207L60.1538 86.2283L57.5423 81.7175L62.4601 74.4934ZM6.22775 75.4767L12.3326 81.8867L9.7889 86.3297L2.90401 79.0717L6.22775 75.4767ZM16.233 77.3081H53.7099H53.7438L56.084 81.3441H13.9268L16.233 77.3081ZM13.283 82.4298H56.729L59.2388 86.771H10.7732L13.283 82.4298Z" fill="#D2AB8B"/>
<path d="M9.85846 1.74414V0.916141H9.47065L9.22237 1.21407L9.85846 1.74414ZM9.68888 1.94763L9.05279 1.41756L9.05169 1.4189L9.68888 1.94763ZM1.75261 11.5119L1.11541 10.9831L1.11068 10.9888L1.10605 10.9946L1.75261 11.5119ZM1.61694 11.6814L0.970384 11.1642L0.788943 11.391V11.6814H1.61694ZM1.61694 79.3094H0.788943V79.5998L0.970386 79.8266L1.61694 79.3094ZM1.75261 79.479L1.10605 79.9962L1.12811 80.0238L1.15243 80.0494L1.75261 79.479ZM9.55322 87.6866L8.95304 88.257L8.9603 88.2646L8.96774 88.272L9.55322 87.6866ZM9.7228 87.8561L9.13732 88.4416L9.37983 88.6841H9.7228V87.8561ZM60.359 87.8561V88.6841H60.7851L61.0327 88.3374L60.359 87.8561ZM60.5285 87.6187L61.2023 88.1L61.2085 88.0913L61.2145 88.0825L60.5285 87.6187ZM67.0404 77.9867L66.378 77.4899L66.3658 77.5061L66.3544 77.5229L67.0404 77.9867ZM67.1421 77.851L67.8045 78.3478L67.9701 78.127V77.851H67.1421ZM67.1421 11.6136H67.9701V11.3232L67.7887 11.0964L67.1421 11.6136ZM67.0064 11.444L67.653 10.9268L67.6453 10.9172L67.6373 10.9078L67.0064 11.444ZM58.9345 1.94763L58.2984 2.47773L58.3036 2.48389L58.9345 1.94763ZM58.7649 1.74414L59.401 1.21407L59.1527 0.916141H58.7649V1.74414ZM11.0449 2.82938V2.00138H9.62918L10.3233 3.23531L11.0449 2.82938ZM57.7808 2.82938L58.5 3.23957L59.2062 2.00138H57.7808V2.82938ZM55.3049 7.17059V7.99859H55.7859L56.0242 7.58079L55.3049 7.17059ZM13.4869 7.17059L12.7652 7.57652L13.0026 7.99859H13.4869V7.17059ZM10.0281 3.23691L10.749 2.82967L10.1587 1.7846L9.39135 2.70759L10.0281 3.23691ZM12.5378 7.67987L13.1753 8.20824L13.5392 7.76917L13.2588 7.27262L12.5378 7.67987ZM6.29734 15.2092L5.69183 15.7739L6.33401 16.4624L6.93483 15.7375L6.29734 15.2092ZM3.00751 11.6819L2.3708 11.1526L1.90461 11.7134L2.40201 12.2467L3.00751 11.6819ZM58.6969 3.37194L59.3266 2.83435L58.5608 1.93725L57.9773 2.96233L58.6969 3.37194ZM65.8192 11.7152L66.419 12.286L66.9335 11.7453L66.4489 11.1776L65.8192 11.7152ZM62.4954 15.2085L61.8643 15.7445L62.4605 16.4465L63.0953 15.7793L62.4954 15.2085ZM56.1871 7.78099L55.4675 7.37138L55.1808 7.87516L55.556 8.31699L56.1871 7.78099ZM14.0982 8.25585V7.42785H12.6714L13.3793 8.66665L14.0982 8.25585ZM54.6953 8.25585L55.4142 8.66665L56.1221 7.42785H54.6953V8.25585ZM52.389 12.2918V13.1198H52.8695L53.1079 12.7026L52.389 12.2918ZM16.4045 12.2918L15.6855 12.7026L15.9239 13.1198H16.4045V12.2918ZM13.081 8.69734L13.7992 8.28527L13.2048 7.24939L12.4432 8.16931L13.081 8.69734ZM15.4551 12.8351L16.0904 13.3661L16.4604 12.9234L16.1733 12.423L15.4551 12.8351ZM10.0964 19.2451L9.49237 19.8114L10.1319 20.4936L10.7317 19.7762L10.0964 19.2451ZM7.04401 15.9892L6.40623 15.4612L5.94092 16.0232L6.43996 16.5555L7.04401 15.9892ZM55.6115 8.79842L56.2398 8.25907L55.4693 7.36153L54.8897 8.39276L55.6115 8.79842ZM61.7842 15.9885L62.3851 16.5582L62.8991 16.016L62.4125 15.4492L61.7842 15.9885ZM58.6979 19.2445L58.0671 19.7808L58.6644 20.4833L59.2988 19.8141L58.6979 19.2445ZM53.3053 12.9022L52.5835 12.4966L52.3009 12.9993L52.6745 13.4386L53.3053 12.9022ZM2.70348 12.97L3.30474 12.4007L1.87548 10.8911V12.97H2.70348ZM5.72198 16.158H6.54998V15.8282L6.32324 15.5888L5.72198 16.158ZM5.72198 74.4252L6.32918 74.9882L6.54998 74.75V74.4252H5.72198ZM2.70348 77.6811H1.87548V79.7922L3.31069 78.2441L2.70348 77.6811ZM66.056 13.0379H66.884V10.959L65.4548 12.4686L66.056 13.0379ZM66.056 76.7655L65.4488 77.3284L66.884 78.8765V76.7655H66.056ZM63.0375 73.5096H62.2095V73.8344L62.4303 74.0725L63.0375 73.5096ZM63.0375 16.226L62.4363 15.6567L62.2095 15.8962V16.226H63.0375ZM17.0156 13.3775V12.5495H15.597L16.2946 13.7847L17.0156 13.3775ZM51.7792 13.3775L52.5002 13.7847L53.1978 12.5495H51.7792V13.3775ZM49.7103 17.0404V17.8684H50.1936L50.4313 17.4476L49.7103 17.0404ZM19.0844 17.0404L18.3635 17.4476L18.6012 17.8684H19.0844V17.0404ZM16.0319 13.8521L16.7517 13.4427L16.1598 12.4023L15.395 13.3231L16.0319 13.8521ZM18.1347 17.5489L18.7715 18.0782L19.1377 17.6376L18.8544 17.1396L18.1347 17.5489ZM13.6239 22.9755L13.0212 23.5432L13.6626 24.2242L14.2607 23.5047L13.6239 22.9755ZM10.8767 20.0587L10.2398 19.5297L9.77176 20.0932L10.274 20.6264L10.8767 20.0587ZM52.7268 13.92L53.3574 13.3835L52.5882 12.4795L52.0054 13.5135L52.7268 13.92ZM57.9498 20.0588L58.5523 20.6267L59.061 20.087L58.5804 19.5222L57.9498 20.0588ZM55.1687 23.0095L54.5372 23.545L55.1361 24.2512L55.7712 23.5774L55.1687 23.0095ZM50.624 17.6508L49.9027 17.2442L49.6195 17.7466L49.9925 18.1863L50.624 17.6508ZM6.80467 17.3113L7.40702 16.7432L5.97667 15.2267V17.3113H6.80467ZM9.61967 20.2959H10.4477V19.967L10.222 19.7278L9.61967 20.2959ZM9.61967 70.2198L10.2252 70.7845L10.4477 70.546V70.2198H9.61967ZM6.80467 73.2383H5.97667V75.3402L7.41021 73.803L6.80467 73.2383ZM61.9519 17.3792H62.7799V15.2946L61.3495 16.8111L61.9519 17.3792ZM61.9519 72.3566L61.3463 72.9213L62.7799 74.4585V72.3566H61.9519ZM59.1369 69.3381H58.3089V69.6643L58.5313 69.9028L59.1369 69.3381ZM59.1369 20.3638L58.5345 19.7957L58.3089 20.0349V20.3638H59.1369ZM19.0824 18.1255V17.2975H18.6937L18.4454 17.5966L19.0824 18.1255ZM49.6065 18.1255L50.2383 17.5904L49.9903 17.2975H49.6065V18.1255ZM54.4904 23.8912H55.3184V23.5877L55.1222 23.356L54.4904 23.8912ZM54.4904 65.6754L55.1769 66.1384L55.3184 65.9285V65.6754H54.4904ZM50.5562 71.5089V72.3369H50.9965L51.2427 71.9718L50.5562 71.5089ZM19.0485 71.5089L18.6782 72.2495L18.853 72.3369H19.0485V71.5089ZM18.845 71.4071L18.2409 71.9734L18.3422 72.0815L18.4747 72.1477L18.845 71.4071ZM14.2664 66.5233H13.4384V66.8507L13.6623 67.0896L14.2664 66.5233ZM14.2664 23.9251L13.6294 23.3962L13.4384 23.6262V23.9251H14.2664ZM10.7053 21.4497L11.3099 20.8839L9.87733 19.3532V21.4497H10.7053ZM13.1812 24.0951H14.0092V23.7681L13.7857 23.5293L13.1812 24.0951ZM13.1812 66.388L13.7893 66.9499L14.0092 66.712V66.388H13.1812ZM10.7053 69.0673H9.87733V71.1834L11.3134 69.6293L10.7053 69.0673ZM58.0517 21.5168H58.8797V19.4203L57.4471 20.951L58.0517 21.5168ZM58.0517 68.1509L57.4471 68.7167L58.8797 70.2473V68.1509H58.0517ZM55.5758 65.5055H54.7478V65.8325L54.9713 66.0713L55.5758 65.5055ZM55.5758 24.1622L54.9713 23.5964L54.7478 23.8352V24.1622H55.5758ZM55.1686 66.625L55.7781 66.0646L55.0701 65.2946L54.4832 66.1604L55.1686 66.625ZM57.8818 69.5757L58.5677 70.0395L58.9345 69.4972L58.4913 69.0152L57.8818 69.5757ZM53.9137 75.4431L53.1964 75.8567L53.8578 77.0038L54.5996 75.9069L53.9137 75.4431ZM51.7431 71.6784L51.0577 71.2139L50.7668 71.6429L51.0258 72.092L51.7431 71.6784ZM13.6562 67.4732L14.2591 66.9057L13.65 66.2586L13.0475 66.9119L13.6562 67.4732ZM17.9974 72.0858L18.7159 72.4973L19.0208 71.965L18.6003 71.5183L17.9974 72.0858ZM15.8607 75.8165L15.26 76.3864L16.026 77.1938L16.5792 76.228L15.8607 75.8165ZM10.8412 70.5256L10.2325 69.9643L9.70743 70.5336L10.2405 71.0955L10.8412 70.5256ZM58.6624 70.4238L59.2696 69.8608L58.5633 69.099L57.9782 69.9575L58.6624 70.4238ZM61.6809 73.6797L62.3683 74.1413L62.7335 73.5973L62.2881 73.1168L61.6809 73.6797ZM56.9666 80.7002L56.2505 81.116L56.9156 82.2614L57.654 81.1618L56.9666 80.7002ZM54.5246 76.4947L53.8404 76.0284L53.5467 76.4594L53.8086 76.9105L54.5246 76.4947ZM10.0963 71.3051L10.6965 70.7348L10.0896 70.0961L9.4898 70.7415L10.0963 71.3051ZM15.2854 76.7656L16.0036 77.1776L16.3107 76.6425L15.8856 76.1952L15.2854 76.7656ZM12.9113 80.9033L12.3114 81.4739L13.0768 82.2787L13.6295 81.3154L12.9113 80.9033ZM6.97609 74.6628L6.36956 74.0991L5.83965 74.6694L6.37612 75.2334L6.97609 74.6628ZM18.9825 72.594V71.766H18.5053L18.2661 72.1789L18.9825 72.594ZM50.999 72.594L51.7125 72.1739L51.4723 71.766H50.999V72.594ZM53.1357 76.223V77.051H54.584L53.8492 75.8029L53.1357 76.223ZM16.8797 76.223L16.1633 75.8079L15.443 77.051H16.8797V76.223ZM62.4601 74.4934L63.0685 73.9318L62.3619 73.1663L61.7756 74.0275L62.4601 74.4934ZM65.716 78.0207L66.4014 78.4852L66.7698 77.9416L66.3244 77.459L65.716 78.0207ZM60.1538 86.2283L59.4372 86.6431L60.0987 87.7856L60.8392 86.6928L60.1538 86.2283ZM57.5423 81.7175L56.8579 81.2515L56.5649 81.6818L56.8257 82.1323L57.5423 81.7175ZM6.22775 75.4767L6.82734 74.9056L6.21879 74.2667L5.61978 74.9146L6.22775 75.4767ZM12.3326 81.8867L13.0512 82.2981L13.3578 81.7626L12.9322 81.3157L12.3326 81.8867ZM9.7889 86.3297L9.18818 86.8996L9.95435 87.7072L10.5075 86.7411L9.7889 86.3297ZM2.90401 79.0717L2.29604 78.5097L1.76964 79.079L2.30329 79.6416L2.90401 79.0717ZM16.233 77.3081V76.4801H15.7525L15.5141 76.8973L16.233 77.3081ZM53.7438 77.3081L54.4601 76.8928L54.2208 76.4801H53.7438V77.3081ZM56.084 81.3441V82.1721H57.5212L56.8003 80.9288L56.084 81.3441ZM13.9268 81.3441L13.2079 80.9333L12.5 82.1721H13.9268V81.3441ZM13.283 82.4298V81.6018H12.8053L12.5662 82.0154L13.283 82.4298ZM56.729 82.4298L57.4459 82.0154L57.2068 81.6018H56.729V82.4298ZM59.2388 86.771V87.599H60.6739L59.9556 86.3566L59.2388 86.771ZM10.7732 86.771L10.0564 86.3566L9.33815 87.599H10.7732V86.771ZM9.22237 1.21407L9.0528 1.41756L10.325 2.47771L10.4945 2.27421L9.22237 1.21407ZM9.05169 1.4189L1.11541 10.9831L2.3898 12.0406L10.3261 2.47637L9.05169 1.4189ZM1.10605 10.9946L0.970384 11.1642L2.2635 12.1987L2.39917 12.0291L1.10605 10.9946ZM0.788943 11.6814V11.851H2.44494V11.6814H0.788943ZM0.788943 11.851V78.8346H2.44494V11.851H0.788943ZM0.788943 78.8346V79.1059H2.44494V78.8346H0.788943ZM0.788943 79.1059V79.3094H2.44494V79.1059H0.788943ZM0.970386 79.8266L1.10605 79.9962L2.39916 78.9617L2.2635 78.7921L0.970386 79.8266ZM1.15243 80.0494L8.95304 88.257L10.1534 87.1161L2.35278 78.9085L1.15243 80.0494ZM8.96774 88.272L9.13732 88.4416L10.3083 87.2707L10.1387 87.1011L8.96774 88.272ZM9.7228 88.6841H9.96021V87.0281H9.7228V88.6841ZM9.96021 88.6841H60.0876V87.0281H9.96021V88.6841ZM60.0876 88.6841H60.359V87.0281H60.0876V88.6841ZM61.0327 88.3374L61.2023 88.1L59.8548 87.1375L59.6852 87.3749L61.0327 88.3374ZM61.2145 88.0825L67.7263 78.4504L66.3544 77.5229L59.8426 87.155L61.2145 88.0825ZM67.7028 78.4835L67.8045 78.3478L66.4797 77.3542L66.378 77.4899L67.7028 78.4835ZM67.9701 77.851V77.6814H66.3141V77.851H67.9701ZM67.9701 77.6814V11.8171H66.3141V77.6814H67.9701ZM67.9701 11.8171V11.6136H66.3141V11.8171H67.9701ZM67.7887 11.0964L67.653 10.9268L66.3599 11.9613L66.4955 12.1309L67.7887 11.0964ZM67.6373 10.9078L59.5654 1.41138L58.3036 2.48389L66.3756 11.9803L67.6373 10.9078ZM59.5706 1.41756L59.401 1.21407L58.1288 2.27421L58.2984 2.47771L59.5706 1.41756ZM58.7649 0.916141H58.5275V2.57214H58.7649V0.916141ZM58.5275 0.916141H10.0959V2.57214H58.5275V0.916141ZM10.0959 0.916141H9.85846V2.57214H10.0959V0.916141ZM11.0449 3.65738H57.7808V2.00138H11.0449V3.65738ZM57.0615 2.41918L54.5857 6.76039L56.0242 7.58079L58.5 3.23957L57.0615 2.41918ZM55.3049 6.34259H13.4869V7.99859H55.3049V6.34259ZM14.2085 6.76465L11.7666 2.42344L10.3233 3.23531L12.7652 7.57652L14.2085 6.76465ZM9.30714 3.64415L11.8169 8.08711L13.2588 7.27262L10.749 2.82967L9.30714 3.64415ZM11.9003 7.15149L5.65984 14.6808L6.93483 15.7375L13.1753 8.20824L11.9003 7.15149ZM6.90284 14.6444L3.61302 11.1172L2.40201 12.2467L5.69183 15.7739L6.90284 14.6444ZM3.64423 12.2112L10.6648 3.76623L9.39135 2.70759L2.3708 11.1526L3.64423 12.2112ZM58.0671 3.90953L65.1894 12.2528L66.4489 11.1776L59.3266 2.83435L58.0671 3.90953ZM65.2193 11.1445L61.8956 14.6378L63.0953 15.7793L66.419 12.286L65.2193 11.1445ZM63.1265 14.6725L56.8182 7.24498L55.556 8.31699L61.8643 15.7445L63.1265 14.6725ZM56.9067 8.1906L59.4165 3.78155L57.9773 2.96233L55.4675 7.37138L56.9067 8.1906ZM14.0982 9.08385H54.6953V7.42785H14.0982V9.08385ZM53.9764 7.84505L51.6701 11.881L53.1079 12.7026L55.4142 8.66665L53.9764 7.84505ZM52.389 11.4638H16.4045V13.1198H52.389V11.4638ZM17.1234 11.881L14.8171 7.84505L13.3793 8.66665L15.6855 12.7026L17.1234 11.881ZM12.3628 9.10941L14.7369 13.2471L16.1733 12.423L13.7992 8.28527L12.3628 9.10941ZM14.8199 12.304L9.46117 18.7141L10.7317 19.7762L16.0904 13.3661L14.8199 12.304ZM10.7005 18.6788L7.64807 15.4229L6.43996 16.5555L9.49237 19.8114L10.7005 18.6788ZM7.6818 16.5172L13.7188 9.22537L12.4432 8.16931L6.40623 15.4612L7.6818 16.5172ZM54.9833 9.33776L61.156 16.5279L62.4125 15.4492L56.2398 8.25907L54.9833 9.33776ZM61.1833 15.4189L58.097 18.6748L59.2988 19.8141L62.3851 16.5582L61.1833 15.4189ZM59.3287 18.7081L53.9361 12.3659L52.6745 13.4386L58.0671 19.7808L59.3287 18.7081ZM54.0271 13.3079L56.3334 9.20407L54.8897 8.39276L52.5835 12.4966L54.0271 13.3079ZM2.10223 13.5392L5.12072 16.7273L6.32324 15.5888L3.30474 12.4007L2.10223 13.5392ZM4.89398 16.158V74.4252H6.54998V16.158H4.89398ZM5.11478 73.8623L2.09628 77.1182L3.31069 78.2441L6.32918 74.9882L5.11478 73.8623ZM3.53148 77.6811V12.97H1.87548V77.6811H3.53148ZM65.228 13.0379V76.7655H66.884V13.0379H65.228ZM66.6632 76.2026L63.6447 72.9467L62.4303 74.0725L65.4488 77.3284L66.6632 76.2026ZM63.8655 73.5096V73.4757H62.2095V73.5096H63.8655ZM63.8655 73.4757V16.226H62.2095V73.4757H63.8655ZM63.6388 16.7952L66.6573 13.6071L65.4548 12.4686L62.4363 15.6567L63.6388 16.7952ZM17.0156 14.2055H51.7792V12.5495H17.0156V14.2055ZM51.0583 12.9703L48.9894 16.6332L50.4313 17.4476L52.5002 13.7847L51.0583 12.9703ZM49.7103 16.2124H19.0844V17.8684H49.7103V16.2124ZM19.8054 16.6332L17.7365 12.9703L16.2946 13.7847L18.3635 17.4476L19.8054 16.6332ZM15.3122 14.2615L17.415 17.9583L18.8544 17.1396L16.7517 13.4427L15.3122 14.2615ZM17.498 17.0197L12.9872 22.4462L14.2607 23.5047L18.7715 18.0782L17.498 17.0197ZM14.2267 22.4078L11.4795 19.491L10.274 20.6264L13.0212 23.5432L14.2267 22.4078ZM11.5137 20.5877L16.6689 14.3812L15.395 13.3231L10.2398 19.5297L11.5137 20.5877ZM52.0961 14.4566L57.3191 20.5953L58.5804 19.5222L53.3574 13.3835L52.0961 14.4566ZM57.3472 19.4909L54.5661 22.4415L55.7712 23.5774L58.5523 20.6267L57.3472 19.4909ZM55.8002 22.4739L51.2555 17.1152L49.9925 18.1863L54.5372 23.545L55.8002 22.4739ZM51.3453 18.0573L53.4481 14.3266L52.0054 13.5135L49.9027 17.2442L51.3453 18.0573ZM6.20232 17.8794L9.01733 20.864L10.222 19.7278L7.40702 16.7432L6.20232 17.8794ZM8.79167 20.2959V70.2198H10.4477V20.2959H8.79167ZM9.01413 69.6551L6.19913 72.6736L7.41021 73.803L10.2252 70.7845L9.01413 69.6551ZM7.63267 73.2383V17.3113H5.97667V73.2383H7.63267ZM61.1239 17.3792V72.3566H62.7799V17.3792H61.1239ZM62.5574 71.7919L59.7424 68.7734L58.5313 69.9028L61.3463 72.9213L62.5574 71.7919ZM59.9649 69.3381V20.3638H58.3089V69.3381H59.9649ZM59.7392 20.9319L62.5542 17.9473L61.3495 16.8111L58.5345 19.7957L59.7392 20.9319ZM19.0824 18.9535H49.6065V17.2975H19.0824V18.9535ZM48.9747 18.6607L53.8586 24.4264L55.1222 23.356L50.2383 17.5904L48.9747 18.6607ZM53.6624 23.8912V65.6754H55.3184V23.8912H53.6624ZM53.8039 65.2124L49.8697 71.0459L51.2427 71.9718L55.1769 66.1384L53.8039 65.2124ZM50.5562 70.6809H19.0485V72.3369H50.5562V70.6809ZM19.4188 70.7683L19.2153 70.6665L18.4747 72.1477L18.6782 72.2495L19.4188 70.7683ZM19.4491 70.8408L14.8704 65.957L13.6623 67.0896L18.2409 71.9734L19.4491 70.8408ZM15.0944 66.5233V23.9251H13.4384V66.5233H15.0944ZM14.9034 24.4541L19.7194 18.6545L18.4454 17.5966L13.6294 23.3962L14.9034 24.4541ZM10.1008 22.0155L12.5766 24.6609L13.7857 23.5293L11.3099 20.8839L10.1008 22.0155ZM12.3532 24.0951V66.388H14.0092V24.0951H12.3532ZM12.5731 65.8261L10.0972 68.5054L11.3134 69.6293L13.7893 66.9499L12.5731 65.8261ZM11.5333 69.0673V21.4497H9.87733V69.0673H11.5333ZM57.2237 21.5168V68.1509H58.8797V21.5168H57.2237ZM58.6562 67.5851L56.1804 64.9397L54.9713 66.0713L57.4471 68.7167L58.6562 67.5851ZM56.4038 65.5055V24.1622H54.7478V65.5055H56.4038ZM56.1804 24.728L58.6562 22.0826L57.4471 20.951L54.9713 23.5964L56.1804 24.728ZM54.5591 67.1854L57.2723 70.1361L58.4913 69.0152L55.7781 66.0646L54.5591 67.1854ZM57.1959 69.1118L53.2278 74.9792L54.5996 75.9069L58.5677 70.0395L57.1959 69.1118ZM54.631 75.0295L52.4604 71.2649L51.0258 72.092L53.1964 75.8567L54.631 75.0295ZM52.4285 72.143L55.8539 67.0896L54.4832 66.1604L51.0577 71.2139L52.4285 72.143ZM13.0532 68.0407L17.3944 72.6532L18.6003 71.5183L14.2591 66.9057L13.0532 68.0407ZM17.2789 71.6742L15.1422 75.405L16.5792 76.228L18.7159 72.4973L17.2789 71.6742ZM16.4614 75.2466L11.4419 69.9557L10.2405 71.0955L15.26 76.3864L16.4614 75.2466ZM11.4498 71.087L14.2649 68.0345L13.0475 66.9119L10.2325 69.9643L11.4498 71.087ZM58.0552 70.9867L61.0737 74.2426L62.2881 73.1168L59.2696 69.8608L58.0552 70.9867ZM60.9935 73.2181L56.2792 80.2386L57.654 81.1618L62.3683 74.1413L60.9935 73.2181ZM57.6826 80.2845L55.2407 76.0789L53.8086 76.9105L56.2505 81.116L57.6826 80.2845ZM55.2088 76.961L59.3466 70.8901L57.9782 69.9575L53.8404 76.0284L55.2088 76.961ZM9.49613 71.8755L14.6852 77.336L15.8856 76.1952L10.6965 70.7348L9.49613 71.8755ZM14.5673 76.3535L12.1932 80.4912L13.6295 81.3154L16.0036 77.1776L14.5673 76.3535ZM13.5113 80.3327L7.57607 74.0922L6.37612 75.2334L12.3114 81.4739L13.5113 80.3327ZM7.58263 75.2264L10.7029 71.8688L9.4898 70.7415L6.36956 74.0991L7.58263 75.2264ZM18.9825 73.422H50.8294V71.766H18.9825V73.422ZM50.8294 73.422H50.999V71.766H50.8294V73.422ZM50.2854 73.0141L52.4221 76.6431L53.8492 75.8029L51.7125 72.1739L50.2854 73.0141ZM53.1357 75.395H16.8797V77.051H53.1357V75.395ZM17.5962 76.6381L19.6989 73.0092L18.2661 72.1789L16.1633 75.8079L17.5962 76.6381ZM61.8517 75.055L65.1076 78.5823L66.3244 77.459L63.0685 73.9318L61.8517 75.055ZM65.0306 77.5562L59.4684 85.7638L60.8392 86.6928L66.4014 78.4852L65.0306 77.5562ZM60.8704 85.8134L58.2589 81.3026L56.8257 82.1323L59.4372 86.6431L60.8704 85.8134ZM58.2268 82.1834L63.1445 74.9594L61.7756 74.0275L56.8579 81.2515L58.2268 82.1834ZM5.62817 76.0477L11.733 82.4578L12.9322 81.3157L6.82734 74.9056L5.62817 76.0477ZM11.614 81.4754L9.07034 85.9183L10.5075 86.7411L13.0512 82.2981L11.614 81.4754ZM10.3896 85.7599L3.50473 78.5019L2.30329 79.6416L9.18818 86.8996L10.3896 85.7599ZM3.51199 79.6338L6.83573 76.0388L5.61978 74.9146L2.29604 78.5097L3.51199 79.6338ZM16.233 78.1361H53.7099V76.4801H16.233V78.1361ZM53.7099 78.1361H53.7438V76.4801H53.7099V78.1361ZM53.0275 77.7235L55.3677 81.7594L56.8003 80.9288L54.4601 76.8928L53.0275 77.7235ZM56.084 80.5161H13.9268V82.1721H56.084V80.5161ZM14.6457 81.7549L16.9519 77.7189L15.5141 76.8973L13.2079 80.9333L14.6457 81.7549ZM13.283 83.2578H56.729V81.6018H13.283V83.2578ZM56.0122 82.8442L58.522 87.1854L59.9556 86.3566L57.4459 82.0154L56.0122 82.8442ZM59.2388 85.943H10.7732V87.599H59.2388V85.943ZM11.4901 87.1854L13.9998 82.8442L12.5662 82.0154L10.0564 86.3566L11.4901 87.1854Z" fill="#D2AB8B"/>
</svg>
