<svg width="29" height="24" viewBox="0 0 29 24" fill="none" xmlns="http://www.w3.org/2000/svg">
    <g id="menu-icon">
        <path id="Line Copy 2" d="M8.17009 23.5723C7.34696 23.5723 6.67969 22.8308 6.67969 21.9163C6.67969 21.0017 7.34696 20.2603 8.17009 20.2603H20.0933C20.9164 20.2603 21.5837 21.0017 21.5837 21.9163C21.5837 22.8308 20.9164 23.5723 20.0933 23.5723H8.17009Z" fill="#D2AB8B"/>
        <path id="Line Copy 3" d="M6.51408 3.70018C5.69096 3.70018 5.02368 2.95877 5.02368 2.04418C5.02368 1.1296 5.69096 0.388184 6.51408 0.388184H21.7493C22.5724 0.388184 23.2397 1.1296 23.2397 2.04418C23.2397 2.95877 22.5724 3.70018 21.7493 3.70018H6.51408Z" fill="#D2AB8B"/>
        <path id="Line" d="M1.54606 13.6362C0.722939 13.6362 0.0556641 12.8948 0.0556641 11.9802C0.0556641 11.0656 0.722939 10.3242 1.54606 10.3242H26.7173C27.5404 10.3242 28.2077 11.0656 28.2077 11.9802C28.2077 12.8948 27.5404 13.6362 26.7173 13.6362H1.54606Z" fill="#D2AB8B"/>
    </g>
</svg>