<svg width="62" height="89" viewBox="0 0 62 89" fill="none" xmlns="http://www.w3.org/2000/svg">
<path fill-rule="evenodd" clip-rule="evenodd" d="M30.6138 1.78418C22.3746 1.78418 14.9464 6.66645 9.61418 14.4645C4.282 22.2625 0.99292 33.0186 0.99292 44.857C0.99292 56.6953 4.282 67.4179 9.61418 75.2159C14.9464 83.014 22.3746 87.8962 30.6138 87.8962C38.853 87.8962 46.2813 83.014 51.6135 75.2159C51.6872 75.1081 51.7419 74.9893 51.8148 74.8804C51.9343 74.804 52.0187 74.6834 52.0496 74.545C57.1158 66.8082 60.2012 56.3604 60.2012 44.857C60.2012 33.0186 56.9457 22.2625 51.6135 14.4645C46.2813 6.66645 38.853 1.78418 30.6138 1.78418ZM29.9105 2.89121L22.6981 16.0747L19.9138 5.94387C23.0188 4.08767 26.3909 3.01922 29.9105 2.89121ZM31.619 2.89121C34.9964 3.06664 38.2279 4.13742 41.2131 5.91033L38.5295 15.6051L31.619 2.89121ZM30.7465 3.56234L37.9924 16.8129L30.344 21.4758L23.2323 17.3161L30.7465 3.56234ZM42.1549 6.48056C45.3497 8.57688 48.2457 11.4993 50.7091 15.1018C50.9075 15.392 51.0868 15.7089 51.2794 16.0076L39.4042 16.4437L42.1549 6.48056ZM18.9731 6.54767L21.7574 16.7791L10.3854 15.2696C10.4214 15.2163 10.4498 15.1548 10.486 15.1018C12.9261 11.5334 15.8064 8.63998 18.9731 6.54767ZM10.2527 16.3098L21.7589 17.8194L18.7063 28.554L11.6952 32.8479L10.2527 16.3098ZM51.3448 17.0812L50.1372 33.049L42.8242 28.7551L39.2683 17.4838L51.3448 17.0812ZM9.24641 17.1144L10.6218 32.6796L4.1139 29.2915C5.3405 24.7951 7.10361 20.6807 9.24641 17.1144ZM52.3522 17.7524C54.2472 21.0394 55.8396 24.7769 56.9815 28.8225L51.2452 32.8144L52.3522 17.7524ZM38.2618 17.9197L41.4151 27.9499L31.4185 22.0794L38.2618 17.9197ZM22.7301 18.2885L29.2715 22.1127L20.0464 27.7484L22.7301 18.2885ZM30.3458 22.7503L41.9191 29.493L46.6826 44.6557L41.483 61.026L30.48 67.601L19.6447 61.0595L15.1496 45.0918L19.6447 29.2582L30.3458 22.7503ZM57.2492 29.929C58.3889 34.3144 59.0579 39.0326 59.1277 43.9846L51.4457 33.9545L57.2492 29.929ZM18.3015 30.0632L14.6114 43.1125L12.0284 33.8874L18.3015 30.0632ZM43.3275 30.2985L50.0031 34.2234L47.2523 42.8446L43.3275 30.2985ZM3.81093 30.3656L10.453 33.8208L2.06654 44.0523C2.12911 39.2427 2.73622 34.6464 3.81093 30.3656ZM11.1584 34.7264L14.0433 45.092L11.0913 55.5583L2.40292 45.3939L11.1584 34.7264ZM50.9095 34.9608L58.8598 45.36L51.1443 55.1554L47.8232 44.6556L50.9095 34.9608ZM47.253 46.4671L50.205 55.8264L42.8585 60.2209L47.253 46.4671ZM2.09889 46.6685L10.4518 56.4974L4.24582 61.0596C2.97549 56.6027 2.24549 51.753 2.09889 46.6685ZM59.0927 46.7687C58.9452 51.6157 58.2532 56.2419 57.0799 60.5225L51.8468 55.9938L59.0927 46.7687ZM14.6138 47.0712L18.3039 60.2546L11.9637 56.4304L14.6138 47.0712ZM50.5744 56.8665L50.9769 73.8406L38.9675 72.4652L42.3892 61.7641L50.5744 56.8665ZM51.6463 57.2352L56.7452 61.6297C55.5545 65.6371 53.9494 69.3304 52.0153 72.5656L51.6463 57.2352ZM11.6929 57.5707L18.7375 61.7975L21.7566 72.5993L10.5859 73.8404L11.6929 57.5707ZM10.6547 57.6718L9.58121 73.2035C7.55202 69.9464 5.83907 66.2165 4.58289 62.1334L10.6547 57.6718ZM40.9787 62.5695L37.9596 72.13L31.5188 68.2387L40.9787 62.5695ZM20.0788 62.6026L29.438 68.2383L22.7624 72.2303L20.0788 62.6026ZM30.4794 68.8757L37.6917 73.2366L30.7477 86.2524L23.2 73.2031L30.4794 68.8757ZM39.3362 73.572L50.5405 74.8467C48.1656 78.2655 45.3997 81.0665 42.3554 83.099L39.3362 73.572ZM21.4879 73.7062L18.5359 82.8978C15.6234 80.8961 12.9715 78.1899 10.6862 74.9139L21.4879 73.7062ZM22.4951 74.176L29.8416 86.7892C26.1882 86.6447 22.7093 85.4948 19.5095 83.5017L22.4951 74.176ZM38.3961 74.176L41.4488 83.6695C38.4196 85.5069 35.1267 86.5998 31.687 86.7892L38.3961 74.176Z" fill="#D2AB8B"/>
<path d="M9.61418 75.2159L10.2977 74.7485L10.2977 74.7485L9.61418 75.2159ZM51.6135 75.2159L50.93 74.7485L50.93 74.7485L51.6135 75.2159ZM51.8148 74.8804L51.3688 74.1828L51.223 74.276L51.1267 74.4198L51.8148 74.8804ZM52.0496 74.545L51.3569 74.0914L51.2743 74.2175L51.2414 74.3648L52.0496 74.545ZM29.9105 2.89121L30.6369 3.2886L31.3359 2.01082L29.8804 2.06376L29.9105 2.89121ZM22.6981 16.0747L21.8997 16.2941L22.4422 18.2678L23.4245 16.4721L22.6981 16.0747ZM19.9138 5.94387L19.489 5.23319L18.9486 5.55623L19.1154 6.1633L19.9138 5.94387ZM31.619 2.89121L31.662 2.06432L30.1855 1.98763L30.8915 3.28662L31.619 2.89121ZM41.2131 5.91033L42.0111 6.13123L42.1799 5.52148L41.6359 5.19842L41.2131 5.91033ZM38.5295 15.6051L37.802 16.0005L38.7807 17.8011L39.3274 15.826L38.5295 15.6051ZM30.7465 3.56234L31.473 3.16508L30.7462 1.83597L30.0199 3.16536L30.7465 3.56234ZM37.9924 16.8129L38.4234 17.5199L39.0979 17.1087L38.7189 16.4157L37.9924 16.8129ZM30.344 21.4758L29.926 22.1905L30.3528 22.4402L30.775 22.1828L30.344 21.4758ZM23.2323 17.3161L22.5057 16.9191L22.1201 17.6248L22.8143 18.0308L23.2323 17.3161ZM42.1549 6.48056L42.6092 5.78829L41.6592 5.16492L41.3568 6.2602L42.1549 6.48056ZM50.7091 15.1018L50.0256 15.5692L50.7091 15.1018ZM51.2794 16.0076L51.3098 16.835L52.7639 16.7816L51.9752 15.5588L51.2794 16.0076ZM39.4042 16.4437L38.606 16.2233L38.3053 17.3126L39.4346 17.2711L39.4042 16.4437ZM18.9731 6.54767L19.772 6.33025L19.4715 5.22593L18.5166 5.85684L18.9731 6.54767ZM21.7574 16.7791L21.6484 17.5999L22.8835 17.7639L22.5563 16.5617L21.7574 16.7791ZM10.3854 15.2696L9.69955 14.8056L8.94955 15.9142L10.2764 16.0904L10.3854 15.2696ZM10.486 15.1018L9.80251 14.6345L9.8025 14.6345L10.486 15.1018ZM10.2527 16.3098L10.3605 15.4889L9.3383 15.3548L9.42788 16.3818L10.2527 16.3098ZM21.7589 17.8194L22.5554 18.0459L22.8178 17.1232L21.8667 16.9984L21.7589 17.8194ZM18.7063 28.554L19.1387 29.2601L19.4143 29.0914L19.5027 28.7805L18.7063 28.554ZM11.6952 32.8479L10.8703 32.9198L10.9866 34.2528L12.1277 33.554L11.6952 32.8479ZM51.3448 17.0812L52.1704 17.1437L52.2401 16.2229L51.3172 16.2537L51.3448 17.0812ZM50.1372 33.049L49.7179 33.763L50.8627 34.4352L50.9628 33.1115L50.1372 33.049ZM42.8242 28.7551L42.0345 29.0043L42.1303 29.3079L42.4049 29.4692L42.8242 28.7551ZM39.2683 17.4838L39.2407 16.6562L38.1505 16.6926L38.4787 17.7329L39.2683 17.4838ZM9.24641 17.1144L10.0712 17.0415L9.84722 14.5067L8.53667 16.6879L9.24641 17.1144ZM10.6218 32.6796L10.2394 33.414L11.5796 34.1117L11.4466 32.6067L10.6218 32.6796ZM4.1139 29.2915L3.31509 29.0736L3.1394 29.7176L3.73155 30.0259L4.1139 29.2915ZM52.3522 17.7524L53.0696 17.3388L51.7239 15.0046L51.5265 17.6917L52.3522 17.7524ZM56.9815 28.8225L57.4545 29.5021L57.9386 29.1652L57.7784 28.5975L56.9815 28.8225ZM51.2452 32.8144L50.4194 32.7537L50.2921 34.4865L51.7182 33.494L51.2452 32.8144ZM38.2618 17.9197L39.0517 17.6714L38.7348 16.6633L37.8318 17.2122L38.2618 17.9197ZM41.4151 27.9499L40.9958 28.6639L42.8498 29.7527L42.205 27.7016L41.4151 27.9499ZM31.4185 22.0794L30.9884 21.3719L29.8042 22.0917L30.9992 22.7934L31.4185 22.0794ZM22.7301 18.2885L23.148 17.5736L22.2252 17.0342L21.9335 18.0625L22.7301 18.2885ZM29.2715 22.1127L29.7032 22.8193L30.8854 22.097L29.6894 21.3979L29.2715 22.1127ZM20.0464 27.7484L19.2499 27.5224L18.6724 29.5581L20.4781 28.4549L20.0464 27.7484ZM30.3458 22.7503L30.7626 22.0348L30.3367 21.7867L29.9156 22.0428L30.3458 22.7503ZM41.9191 29.493L42.7091 29.2448L42.613 28.9389L42.3359 28.7775L41.9191 29.493ZM46.6826 44.6557L47.4718 44.9063L47.5509 44.657L47.4726 44.4075L46.6826 44.6557ZM41.483 61.026L41.9077 61.7368L42.1772 61.5758L42.2722 61.2766L41.483 61.026ZM30.48 67.601L30.0521 68.3098L30.4778 68.5668L30.9047 68.3117L30.48 67.601ZM19.6447 61.0595L18.8477 61.2839L18.9364 61.5991L19.2168 61.7684L19.6447 61.0595ZM15.1496 45.0918L14.3531 44.8656L14.2891 45.0908L14.3526 45.3161L15.1496 45.0918ZM19.6447 29.2582L19.2145 28.5507L18.9369 28.7195L18.8482 29.032L19.6447 29.2582ZM57.2492 29.929L58.0505 29.7207L57.7521 28.5724L56.7772 29.2486L57.2492 29.929ZM59.1277 43.9846L58.4704 44.4881L59.9909 46.4734L59.9556 43.973L59.1277 43.9846ZM51.4457 33.9545L50.9738 33.2741L50.2606 33.7688L50.7884 34.4579L51.4457 33.9545ZM18.3015 30.0632L19.0982 30.2885L19.6725 28.2576L17.8705 29.3562L18.3015 30.0632ZM14.6114 43.1125L13.8141 43.3358L14.6075 46.1693L15.4082 43.3378L14.6114 43.1125ZM12.0284 33.8874L11.5974 33.1804L11.062 33.5068L11.2311 34.1107L12.0284 33.8874ZM43.3275 30.2985L43.7471 29.5847L41.8962 28.4965L42.5372 30.5457L43.3275 30.2985ZM50.0031 34.2234L50.7919 34.475L50.993 33.8448L50.4227 33.5096L50.0031 34.2234ZM47.2523 42.8446L46.4621 43.0918L47.2445 45.593L48.0411 43.0963L47.2523 42.8446ZM3.81093 30.3656L4.19304 29.6311L3.26309 29.1473L3.00785 30.164L3.81093 30.3656ZM10.453 33.8208L11.0934 34.3457L11.7399 33.5569L10.8351 33.0863L10.453 33.8208ZM2.06654 44.0523L1.23861 44.0415L1.20785 46.406L2.70691 44.5772L2.06654 44.0523ZM11.1584 34.7264L11.956 34.5043L11.5289 32.9697L10.5183 34.201L11.1584 34.7264ZM14.0433 45.092L14.8402 45.3168L14.9032 45.0935L14.841 44.87L14.0433 45.092ZM11.0913 55.5583L10.4619 56.0963L11.4679 57.2732L11.8882 55.783L11.0913 55.5583ZM2.40292 45.3939L1.76289 44.8686L1.32288 45.4047L1.77352 45.9319L2.40292 45.3939ZM50.9095 34.9608L51.5672 34.458L50.6024 33.1959L50.1205 34.7097L50.9095 34.9608ZM58.8598 45.36L59.5103 45.8724L59.9079 45.3676L59.5176 44.8571L58.8598 45.36ZM51.1443 55.1554L50.3548 55.4051L50.8266 56.8968L51.7947 55.6677L51.1443 55.1554ZM47.8232 44.6556L47.0343 44.4044L46.9546 44.6548L47.0338 44.9053L47.8232 44.6556ZM47.253 46.4671L48.0426 46.2181L47.2581 43.7307L46.4643 46.2151L47.253 46.4671ZM50.205 55.8264L50.6301 56.537L51.1914 56.2012L50.9947 55.5773L50.205 55.8264ZM42.8585 60.2209L42.0698 59.9689L41.4027 62.0565L43.2835 60.9315L42.8585 60.2209ZM2.09889 46.6685L2.72983 46.1323L1.20329 44.336L1.27123 46.6923L2.09889 46.6685ZM10.4518 56.4974L10.9422 57.1645L11.6581 56.6382L11.0827 55.9612L10.4518 56.4974ZM4.24582 61.0596L3.44953 61.2866L3.77616 62.4325L4.73625 61.7267L4.24582 61.0596ZM59.0927 46.7687L59.9203 46.7939L59.9969 44.2771L58.4415 46.2573L59.0927 46.7687ZM57.0799 60.5225L56.5381 61.1486L57.5313 62.0081L57.8785 60.7414L57.0799 60.5225ZM51.8468 55.9938L51.1957 55.4824L50.708 56.1033L51.305 56.6199L51.8468 55.9938ZM14.6138 47.0712L15.4112 46.848L14.6185 44.0157L13.8172 46.8456L14.6138 47.0712ZM18.3039 60.2546L17.8762 60.9637L19.664 62.042L19.1012 60.0315L18.3039 60.2546ZM11.9637 56.4304L11.1671 56.2048L10.9949 56.813L11.5361 57.1394L11.9637 56.4304ZM50.5744 56.8665L51.4021 56.8468L51.3684 55.4264L50.1492 56.1559L50.5744 56.8665ZM50.9769 73.8406L50.8827 74.6632L51.8272 74.7714L51.8047 73.821L50.9769 73.8406ZM38.9675 72.4652L38.1789 72.2131L37.8719 73.1732L38.8733 73.2879L38.9675 72.4652ZM42.3892 61.7641L41.9641 61.0536L41.6958 61.2142L41.6005 61.512L42.3892 61.7641ZM51.6463 57.2352L52.1868 56.608L50.7736 55.39L50.8185 57.2551L51.6463 57.2352ZM56.7452 61.6297L57.5389 61.8655L57.6915 61.3521L57.2858 61.0025L56.7452 61.6297ZM52.0153 72.5656L51.1875 72.5855L51.2564 75.4486L52.726 72.9905L52.0153 72.5656ZM11.6929 57.5707L12.1189 56.8607L10.9587 56.1646L10.8668 57.5145L11.6929 57.5707ZM18.7375 61.7975L19.5349 61.5746L19.4462 61.2571L19.1635 61.0875L18.7375 61.7975ZM21.7566 72.5993L21.8481 73.4222L22.8163 73.3146L22.5541 72.3764L21.7566 72.5993ZM10.5859 73.8404L9.7598 73.7842L9.69254 74.7728L10.6773 74.6634L10.5859 73.8404ZM10.6547 57.6718L11.4807 57.7289L11.6039 55.9468L10.1644 57.0046L10.6547 57.6718ZM9.58121 73.2035L8.87843 73.6413L10.2309 75.8122L10.4072 73.2606L9.58121 73.2035ZM4.58289 62.1334L4.0926 61.4662L3.61849 61.8145L3.7915 62.3769L4.58289 62.1334ZM40.9787 62.5695L41.7682 62.8188L42.4257 60.737L40.553 61.8592L40.9787 62.5695ZM37.9596 72.13L37.5314 72.8387L38.4322 73.3829L38.7491 72.3793L37.9596 72.13ZM31.5188 68.2387L31.0931 67.5285L29.9128 68.2358L31.0906 68.9474L31.5188 68.2387ZM20.0788 62.6026L20.5059 61.8933L18.7221 60.8192L19.2812 62.8249L20.0788 62.6026ZM29.438 68.2383L29.863 68.9489L31.0473 68.2408L29.8652 67.529L29.438 68.2383ZM22.7624 72.2303L21.9648 72.4526L22.2562 73.4977L23.1874 72.9409L22.7624 72.2303ZM30.4794 68.8757L30.9078 68.1671L30.483 67.9103L30.0563 68.164L30.4794 68.8757ZM37.6917 73.2366L38.4223 73.6264L38.7916 72.9341L38.1201 72.5281L37.6917 73.2366ZM30.7477 86.2524L30.031 86.667L30.777 87.9567L31.4783 86.6422L30.7477 86.2524ZM23.2 73.2031L22.7768 72.4914L22.0736 72.9094L22.4832 73.6177L23.2 73.2031ZM39.3362 73.572L39.4298 72.7493L38.1612 72.605L38.5469 73.8221L39.3362 73.572ZM50.5405 74.8467L51.2206 75.3191L52.0114 74.1807L50.6341 74.0241L50.5405 74.8467ZM42.3554 83.099L41.5661 83.3491L41.8989 84.3994L42.8151 83.7876L42.3554 83.099ZM21.4879 73.7062L22.2762 73.9594L22.6675 72.7412L21.3959 72.8834L21.4879 73.7062ZM18.5359 82.8978L18.0669 83.5801L18.9839 84.2104L19.3242 83.151L18.5359 82.8978ZM10.6862 74.9139L10.5942 74.091L9.21047 74.2457L10.0071 75.3876L10.6862 74.9139ZM22.4951 74.176L23.2106 73.7593L22.2739 72.1512L21.7065 73.9236L22.4951 74.176ZM29.8416 86.7892L29.8089 87.6166L31.3165 87.6762L30.5571 86.3725L29.8416 86.7892ZM19.5095 83.5017L18.721 83.2493L18.5243 83.8636L19.0718 84.2046L19.5095 83.5017ZM38.3961 74.176L39.1844 73.9226L38.5848 72.0581L37.6651 73.7872L38.3961 74.176ZM41.4488 83.6695L41.8782 84.3774L42.4371 84.0384L42.237 83.416L41.4488 83.6695ZM31.687 86.7892L30.9559 86.4004L30.2664 87.6967L31.7325 87.616L31.687 86.7892ZM30.6138 0.95618C22.022 0.95618 14.3663 6.0478 8.93069 13.9971L10.2977 14.9318C15.5264 7.2851 22.7272 2.61218 30.6138 2.61218V0.95618ZM8.93069 13.9971C3.49289 21.9496 0.16492 32.8734 0.16492 44.857H1.82092C1.82092 33.1638 5.07111 22.5754 10.2977 14.9318L8.93069 13.9971ZM0.16492 44.857C0.16492 56.8411 3.49315 67.7312 8.9307 75.6832L10.2977 74.7485C5.07084 67.1046 1.82092 56.5496 1.82092 44.857H0.16492ZM8.93069 75.6832C14.3663 83.6326 22.022 88.7242 30.6138 88.7242V87.0682C22.7272 87.0682 15.5264 82.3953 10.2977 74.7485L8.93069 75.6832ZM30.6138 88.7242C39.2056 88.7242 46.8613 83.6326 52.297 75.6832L50.93 74.7485C45.7013 82.3953 38.5004 87.0682 30.6138 87.0682V88.7242ZM52.297 75.6832C52.3571 75.5954 52.4058 75.5083 52.4358 75.455C52.4713 75.392 52.4874 75.3641 52.5028 75.3411L51.1267 74.4198C51.0693 74.5056 51.0215 74.5916 50.9931 74.6421C50.9591 74.7024 50.9436 74.7286 50.93 74.7485L52.297 75.6832ZM52.2607 75.5781C52.5646 75.3838 52.7792 75.0772 52.8577 74.7252L51.2414 74.3648C51.2582 74.2896 51.304 74.2242 51.3688 74.1828L52.2607 75.5781ZM52.7423 74.9986C57.9072 67.1112 61.0292 56.5016 61.0292 44.857H59.3732C59.3732 56.2193 56.3245 66.5053 51.3569 74.0914L52.7423 74.9986ZM61.0292 44.857C61.0292 32.8752 57.7357 21.951 52.297 13.9971L50.93 14.9318C56.1557 22.5741 59.3732 33.162 59.3732 44.857H61.0292ZM52.297 13.9971C46.8613 6.0478 39.2056 0.95618 30.6138 0.95618V2.61218C38.5004 2.61218 45.7013 7.2851 50.93 14.9318L52.297 13.9971ZM29.1841 2.49381L21.9717 15.6773L23.4245 16.4721L30.6369 3.2886L29.1841 2.49381ZM23.4965 15.8553L20.7122 5.72445L19.1154 6.1633L21.8997 16.2941L23.4965 15.8553ZM20.3387 6.65456C23.3354 4.86306 26.573 3.84114 29.9406 3.71866L29.8804 2.06376C26.2087 2.19729 22.7022 3.31229 19.489 5.23319L20.3387 6.65456ZM31.5761 3.71809C34.8031 3.88572 37.9056 4.90904 40.7903 6.62224L41.6359 5.19842C38.5502 3.36579 35.1897 2.24757 31.662 2.06432L31.5761 3.71809ZM40.4151 5.68943L37.7315 15.3842L39.3274 15.826L42.0111 6.13123L40.4151 5.68943ZM39.2569 15.2096L32.3465 2.4958L30.8915 3.28662L37.802 16.0005L39.2569 15.2096ZM30.0201 3.9596L37.266 17.2102L38.7189 16.4157L31.473 3.16508L30.0201 3.9596ZM37.5614 16.1059L29.913 20.7688L30.775 22.1828L38.4234 17.5199L37.5614 16.1059ZM30.762 20.7611L23.6503 16.6014L22.8143 18.0308L29.926 22.1905L30.762 20.7611ZM23.9589 17.7131L31.4732 3.95933L30.0199 3.16536L22.5057 16.9191L23.9589 17.7131ZM41.7007 7.17283C44.7927 9.20175 47.6143 12.0428 50.0256 15.5692L51.3926 14.6345C48.8771 10.9558 45.9066 7.952 42.6092 5.78829L41.7007 7.17283ZM50.0256 15.5692C50.2277 15.8647 50.3439 16.0848 50.5835 16.4563L51.9752 15.5588C51.8296 15.3331 51.5873 14.9192 51.3926 14.6345L50.0256 15.5692ZM51.249 15.1801L39.3738 15.6162L39.4346 17.2711L51.3098 16.835L51.249 15.1801ZM40.2023 16.664L42.9531 6.70092L41.3568 6.2602L38.606 16.2233L40.2023 16.664ZM18.1741 6.76509L20.9584 16.9965L22.5563 16.5617L19.772 6.33025L18.1741 6.76509ZM21.8663 15.9583L10.4943 14.4488L10.2764 16.0904L21.6484 17.5999L21.8663 15.9583ZM11.0712 15.7335C11.1117 15.6736 11.1446 15.6141 11.1572 15.5917C11.1761 15.5581 11.1751 15.561 11.1695 15.5692L9.8025 14.6345C9.76068 14.6956 9.72737 14.7558 9.71404 14.7795C9.69437 14.8144 9.69505 14.8123 9.69955 14.8056L11.0712 15.7335ZM11.1695 15.5692C13.5565 12.0783 16.3627 9.26482 19.4295 7.23849L18.5166 5.85684C15.2501 8.01514 12.2956 10.9885 9.80251 14.6345L11.1695 15.5692ZM10.145 17.1308L21.6512 18.6403L21.8667 16.9984L10.3605 15.4889L10.145 17.1308ZM20.9625 17.5929L17.9099 28.3275L19.5027 28.7805L22.5554 18.0459L20.9625 17.5929ZM18.2738 27.8479L11.2628 32.1418L12.1277 33.554L19.1387 29.2601L18.2738 27.8479ZM12.5201 32.7759L11.0776 16.2379L9.42788 16.3818L10.8703 32.9198L12.5201 32.7759ZM50.5192 17.0188L49.3115 32.9866L50.9628 33.1115L52.1704 17.1437L50.5192 17.0188ZM50.5564 32.335L43.2434 28.0411L42.4049 29.4692L49.7179 33.763L50.5564 32.335ZM43.6138 28.506L40.058 17.2347L38.4787 17.7329L42.0345 29.0043L43.6138 28.506ZM39.2959 18.3113L51.3724 17.9088L51.3172 16.2537L39.2407 16.6562L39.2959 18.3113ZM8.42162 17.1873L9.797 32.7525L11.4466 32.6067L10.0712 17.0415L8.42162 17.1873ZM11.0041 31.9452L4.49626 28.5571L3.73155 30.0259L10.2394 33.414L11.0041 31.9452ZM4.91271 29.5094C6.12029 25.0828 7.85432 21.039 9.95615 17.5408L8.53667 16.6879C6.35289 20.3225 4.5607 24.5075 3.31509 29.0736L4.91271 29.5094ZM51.6349 18.1659C53.4949 21.3924 55.0609 25.0664 56.1847 29.0474L57.7784 28.5975C56.6182 24.4874 54.9994 20.6864 53.0696 17.3388L51.6349 18.1659ZM56.5086 28.1428L50.7723 32.1348L51.7182 33.494L57.4545 29.5021L56.5086 28.1428ZM52.071 32.8751L53.178 17.813L51.5265 17.6917L50.4194 32.7537L52.071 32.8751ZM37.472 18.1681L40.6253 28.1982L42.205 27.7016L39.0517 17.6714L37.472 18.1681ZM41.8344 27.2359L31.8378 21.3654L30.9992 22.7934L40.9958 28.6639L41.8344 27.2359ZM31.8486 22.787L38.6919 18.6273L37.8318 17.2122L30.9884 21.3719L31.8486 22.787ZM22.3122 19.0033L28.8536 22.8275L29.6894 21.3979L23.148 17.5736L22.3122 19.0033ZM28.8399 21.4061L19.6148 27.0418L20.4781 28.4549L29.7032 22.8193L28.8399 21.4061ZM20.843 27.9743L23.5267 18.5144L21.9335 18.0625L19.2499 27.5224L20.843 27.9743ZM29.929 23.4657L41.5023 30.2084L42.3359 28.7775L30.7626 22.0348L29.929 23.4657ZM41.1292 29.7411L45.8927 44.9038L47.4726 44.4075L42.7091 29.2448L41.1292 29.7411ZM45.8935 44.405L40.6939 60.7753L42.2722 61.2766L47.4718 44.9063L45.8935 44.405ZM41.0583 60.3152L30.0553 66.8902L30.9047 68.3117L41.9077 61.7368L41.0583 60.3152ZM30.9079 66.8921L20.0727 60.3507L19.2168 61.7684L30.0521 68.3098L30.9079 66.8921ZM20.4417 60.8352L15.9466 44.8674L14.3526 45.3161L18.8477 61.2839L20.4417 60.8352ZM15.9461 45.3179L20.4412 29.4843L18.8482 29.032L14.3531 44.8656L15.9461 45.3179ZM20.075 29.9656L30.7761 23.4577L29.9156 22.0428L19.2145 28.5507L20.075 29.9656ZM56.4478 30.1372C57.5711 34.4592 58.231 39.1114 58.2998 43.9963L59.9556 43.973C59.8849 38.9538 59.2068 34.1697 58.0505 29.7207L56.4478 30.1372ZM59.7851 43.4812L52.1031 33.451L50.7884 34.4579L58.4704 44.4881L59.7851 43.4812ZM51.9177 34.6348L57.7211 30.6093L56.7772 29.2486L50.9738 33.2741L51.9177 34.6348ZM17.5047 29.8379L13.8147 42.8872L15.4082 43.3378L19.0982 30.2885L17.5047 29.8379ZM15.4088 42.8892L12.8258 33.6642L11.2311 34.1107L13.8141 43.3358L15.4088 42.8892ZM12.4594 34.5944L18.7325 30.7702L17.8705 29.3562L11.5974 33.1804L12.4594 34.5944ZM42.9078 31.0123L49.5834 34.9371L50.4227 33.5096L43.7471 29.5847L42.9078 31.0123ZM49.2143 33.9717L46.4635 42.5929L48.0411 43.0963L50.7919 34.475L49.2143 33.9717ZM48.0426 42.5974L44.1177 30.0513L42.5372 30.5457L46.4621 43.0918L48.0426 42.5974ZM3.42881 31.1002L10.0709 34.5554L10.8351 33.0863L4.19304 29.6311L3.42881 31.1002ZM9.81262 33.2959L1.42618 43.5274L2.70691 44.5772L11.0934 34.3457L9.81262 33.2959ZM2.89447 44.0631C2.95623 39.316 3.5554 34.7839 4.614 30.5672L3.00785 30.164C1.91704 34.5089 1.302 39.1693 1.23861 44.0415L2.89447 44.0631ZM10.3607 34.9484L13.2456 45.314L14.841 44.87L11.956 34.5043L10.3607 34.9484ZM13.2464 44.8672L10.2944 55.3335L11.8882 55.783L14.8402 45.3168L13.2464 44.8672ZM11.7207 55.0203L3.03232 44.8559L1.77352 45.9319L10.4619 56.0963L11.7207 55.0203ZM3.04295 45.9192L11.7984 35.2517L10.5183 34.201L1.76289 44.8686L3.04295 45.9192ZM50.2517 35.4637L58.202 45.8629L59.5176 44.8571L51.5672 34.458L50.2517 35.4637ZM58.2094 44.8477L50.4938 54.6431L51.7947 55.6677L59.5103 45.8724L58.2094 44.8477ZM51.9337 54.9057L48.6127 44.4059L47.0338 44.9053L50.3548 55.4051L51.9337 54.9057ZM48.6122 44.9067L51.6984 35.212L50.1205 34.7097L47.0343 44.4044L48.6122 44.9067ZM46.4633 46.7162L49.4154 56.0755L50.9947 55.5773L48.0426 46.2181L46.4633 46.7162ZM49.78 55.1158L42.4334 59.5103L43.2835 60.9315L50.6301 56.537L49.78 55.1158ZM43.6472 60.4729L48.0417 46.7191L46.4643 46.2151L42.0698 59.9689L43.6472 60.4729ZM1.46795 47.2047L9.82085 57.0336L11.0827 55.9612L2.72983 46.1323L1.46795 47.2047ZM9.96136 55.8303L3.75539 60.3925L4.73625 61.7267L10.9422 57.1645L9.96136 55.8303ZM5.0421 60.8326C3.79207 56.447 3.07132 51.6659 2.92654 46.6446L1.27123 46.6923C1.41966 51.8401 2.15891 56.7585 3.44953 61.2866L5.0421 60.8326ZM58.2651 46.7436C58.1195 51.5282 57.4365 56.0893 56.2814 60.3036L57.8785 60.7414C59.0699 56.3946 59.7709 51.7031 59.9203 46.7939L58.2651 46.7436ZM57.6218 59.8964L52.3886 55.3677L51.305 56.6199L56.5381 61.1486L57.6218 59.8964ZM52.498 56.5053L59.7439 47.2802L58.4415 46.2573L51.1957 55.4824L52.498 56.5053ZM13.8165 47.2943L17.5065 60.4778L19.1012 60.0315L15.4112 46.848L13.8165 47.2943ZM18.7315 59.5456L12.3914 55.7214L11.5361 57.1394L17.8762 60.9637L18.7315 59.5456ZM12.7604 56.656L15.4105 47.2967L13.8172 46.8456L11.1671 56.2048L12.7604 56.656ZM49.7466 56.8861L50.1491 73.8603L51.8047 73.821L51.4021 56.8468L49.7466 56.8861ZM51.0711 73.018L39.0617 71.6426L38.8733 73.2879L50.8827 74.6632L51.0711 73.018ZM39.7562 72.7174L43.1779 62.0163L41.6005 61.512L38.1789 72.2131L39.7562 72.7174ZM42.8143 62.4747L50.9995 57.577L50.1492 56.1559L41.9641 61.0536L42.8143 62.4747ZM51.1057 57.8624L56.2047 62.2569L57.2858 61.0025L52.1868 56.608L51.1057 57.8624ZM55.9515 61.3938C54.7788 65.3407 53.2004 68.9696 51.3046 72.1407L52.726 72.9905C54.6984 69.6911 56.3302 65.9336 57.5389 61.8655L55.9515 61.3938ZM52.843 72.5457L52.474 57.2153L50.8185 57.2551L51.1875 72.5855L52.843 72.5457ZM11.2669 58.2807L18.3115 62.5075L19.1635 61.0875L12.1189 56.8607L11.2669 58.2807ZM17.9401 62.0204L20.9592 72.8221L22.5541 72.3764L19.5349 61.5746L17.9401 62.0204ZM21.6652 71.7763L10.4945 73.0175L10.6773 74.6634L21.8481 73.4222L21.6652 71.7763ZM11.412 73.8967L12.519 57.627L10.8668 57.5145L9.7598 73.7842L11.412 73.8967ZM9.82864 57.6147L8.75518 73.1464L10.4072 73.2606L11.4807 57.7289L9.82864 57.6147ZM10.284 72.7657C8.29381 69.5712 6.61013 65.9069 5.37428 61.8899L3.7915 62.3769C5.06802 66.5261 6.81022 70.3215 8.87843 73.6413L10.284 72.7657ZM5.07318 62.8006L11.145 58.3391L10.1644 57.0046L4.0926 61.4662L5.07318 62.8006ZM40.1891 62.3201L37.17 71.8807L38.7491 72.3793L41.7682 62.8188L40.1891 62.3201ZM38.3877 71.4213L31.9469 67.53L31.0906 68.9474L37.5314 72.8387L38.3877 71.4213ZM31.9444 68.9489L41.4043 63.2797L40.553 61.8592L31.0931 67.5285L31.9444 68.9489ZM19.6517 63.312L29.0109 68.9476L29.8652 67.529L20.5059 61.8933L19.6517 63.312ZM29.0131 67.5277L22.3375 71.5196L23.1874 72.9409L29.863 68.9489L29.0131 67.5277ZM23.56 72.0079L20.8764 62.3803L19.2812 62.8249L21.9648 72.4526L23.56 72.0079ZM30.051 69.5842L37.2633 73.9452L38.1201 72.5281L30.9078 68.1671L30.051 69.5842ZM36.9612 72.8469L30.0172 85.8627L31.4783 86.6422L38.4223 73.6264L36.9612 72.8469ZM31.4645 85.8378L23.9167 72.7885L22.4832 73.6177L30.031 86.667L31.4645 85.8378ZM23.6231 73.9148L30.9025 69.5874L30.0563 68.164L22.7768 72.4914L23.6231 73.9148ZM39.2426 74.3947L50.4469 75.6694L50.6341 74.0241L39.4298 72.7493L39.2426 74.3947ZM49.8605 74.3744C47.5356 77.7212 44.8412 80.4439 41.8956 82.4104L42.8151 83.7876C45.9583 81.6892 48.7957 78.8099 51.2206 75.3191L49.8605 74.3744ZM43.1447 82.8489L40.1256 73.3219L38.5469 73.8221L41.5661 83.3491L43.1447 82.8489ZM20.6996 73.453L17.7475 82.6446L19.3242 83.151L22.2762 73.9594L20.6996 73.453ZM19.0049 82.2154C16.1855 80.2777 13.6019 77.6464 11.3652 74.4401L10.0071 75.3876C12.3412 78.7335 15.0614 81.5145 18.0669 83.5801L19.0049 82.2154ZM10.7782 75.7367L21.5799 74.5291L21.3959 72.8834L10.5942 74.091L10.7782 75.7367ZM21.7796 74.5928L29.1261 87.206L30.5571 86.3725L23.2106 73.7593L21.7796 74.5928ZM29.8744 85.9619C26.3784 85.8235 23.0376 84.7238 19.9473 82.7989L19.0718 84.2046C22.381 86.2657 25.9979 87.4658 29.8089 87.6166L29.8744 85.9619ZM20.2981 83.7542L23.2837 74.4285L21.7065 73.9236L18.721 83.2493L20.2981 83.7542ZM37.6079 74.4295L40.6605 83.9229L42.237 83.416L39.1844 73.9226L37.6079 74.4295ZM41.0193 82.9615C38.0945 84.7357 34.9321 85.7813 31.6414 85.9625L31.7325 87.616C35.3214 87.4184 38.7447 86.2781 41.8782 84.3774L41.0193 82.9615ZM32.418 87.1781L39.1271 74.5649L37.6651 73.7872L30.9559 86.4004L32.418 87.1781Z" fill="#D2AB8B"/>
</svg>
