<svg width="82" height="82" viewBox="0 0 82 82" fill="none" xmlns="http://www.w3.org/2000/svg">
<path fill-rule="evenodd" clip-rule="evenodd" d="M0.99292 1.09619V1.5926V80.1188V80.6152H1.48933H79.9845H80.4809V80.1188V1.5926V1.09619H79.9845H1.48933H0.99292ZM3.62875 2.0892H77.8424L62.6708 8.85281H62.1744H18.7693L3.62875 2.0892ZM2.57434 2.74092L18.2113 9.72172V23.0318L11.9441 24.2418L2.57434 2.74092ZM78.8683 2.74092L69.2813 24.2108L62.6108 22.9387L62.6729 9.96993L78.8683 2.74092ZM79.4888 3.7646V77.9782L69.9949 56.6635L70.0569 24.9242L79.4888 3.7646ZM1.98569 3.79533L11.4485 25.5754L11.0452 57.0666L1.98569 77.9159V3.79533ZM21.0038 9.84523H60.4686L40.7362 18.6565L21.0038 9.84523ZM19.2055 10.1557L39.062 18.9981L19.2055 22.8453V10.1557ZM61.6784 10.404L61.6164 22.7212L42.3183 19.0291L61.6784 10.404ZM40.5822 19.7117C40.5926 19.712 40.6029 19.712 40.6133 19.7117H40.6753L61.6177 23.745L61.4626 57.7803L40.4581 61.6895L19.2055 58.3388V23.8691L40.5822 19.7117ZM62.6114 23.9309L68.8786 25.1409L62.5494 39.2887L62.6114 23.9309ZM18.2132 24.0555V38.6686L12.4424 25.3896V25.1724L18.2132 24.0555ZM69.0625 27.158L69.0004 54.4607L62.9504 40.8714L69.0625 27.158ZM12.4118 27.7782L18.0895 40.8711L12.0705 54.7086L12.4118 27.7782ZM62.5176 42.3911L68.7848 56.4148L62.4556 57.5938L62.5176 42.3911ZM18.2136 43.0429V58.1834L12.0705 57.1906L18.2136 43.0429ZM69.2198 57.3768L78.8688 79.0018L62.3941 71.6486L62.4562 58.6178L69.2198 57.3768ZM11.6339 58.1522L18.2113 59.1761V72.0208L2.57434 79.0015L11.6339 58.1522ZM61.4615 58.804L61.3994 71.1832L41.7911 62.434L61.4615 58.804ZM19.2055 59.332L39.4963 62.5276L19.2055 71.5872V59.332ZM40.7372 63.0547L60.0662 71.6799H21.4081L40.7372 63.0547ZM19.2037 72.673H61.8951H62.2674L77.8424 79.6227H3.62875L19.2037 72.673Z" fill="#D2AB8B"/>
<path d="M0.99292 1.09619V0.268191H0.16492V1.09619H0.99292ZM0.99292 80.6152H0.16492V81.4432H0.99292V80.6152ZM80.4809 80.6152V81.4432H81.3089V80.6152H80.4809ZM80.4809 1.09619H81.3089V0.268191H80.4809V1.09619ZM3.62875 2.0892V1.2612L3.29103 2.84519L3.62875 2.0892ZM77.8424 2.0892L78.1795 2.84545L77.8424 1.2612V2.0892ZM62.6708 8.85281V9.68081H62.847L63.0079 9.60907L62.6708 8.85281ZM18.7693 8.85281L18.4316 9.60881L18.5928 9.68081H18.7693V8.85281ZM2.57434 2.74092L2.91188 1.98485L0.962375 1.11453L1.81529 3.07171L2.57434 2.74092ZM18.2113 9.72172H19.0393V9.1846L18.5489 8.96564L18.2113 9.72172ZM18.2113 23.0318L18.3683 23.8448L19.0393 23.7152V23.0318H18.2113ZM11.9441 24.2418L11.1851 24.5726L11.45 25.1805L12.1011 25.0548L11.9441 24.2418ZM78.8683 2.74092L79.6244 3.07852L80.5065 1.10295L78.5308 1.98483L78.8683 2.74092ZM69.2813 24.2108L69.1262 25.0241L69.7701 25.1469L70.0374 24.5484L69.2813 24.2108ZM62.6108 22.9387L61.7828 22.9347L61.7795 23.6231L62.4557 23.752L62.6108 22.9387ZM62.6729 9.96993L62.3354 9.21383L61.8474 9.43163L61.8449 9.96597L62.6729 9.96993ZM79.4888 3.7646H80.3168L78.7325 3.4275L79.4888 3.7646ZM79.4888 77.9782L78.7324 78.3151L80.3168 77.9782H79.4888ZM69.9949 56.6635L69.1669 56.6619L69.1665 56.8388L69.2385 57.0004L69.9949 56.6635ZM70.0569 24.9242L69.3007 24.5871L69.2293 24.7472L69.2289 24.9226L70.0569 24.9242ZM1.98569 3.79533L2.74511 3.46538L1.15769 3.79533H1.98569ZM11.4485 25.5754L12.2765 25.586L12.2788 25.4084L12.208 25.2455L11.4485 25.5754ZM11.0452 57.0666L11.8046 57.3965L11.871 57.2437L11.8731 57.0772L11.0452 57.0666ZM1.98569 77.9159H1.15769L2.74509 78.2458L1.98569 77.9159ZM21.0038 9.84523V9.01723L20.6662 10.6013L21.0038 9.84523ZM60.4686 9.84523L60.8062 10.6013L60.4686 9.01723V9.84523ZM40.7362 18.6565L40.3986 19.4126L40.7362 19.5633L41.0738 19.4126L40.7362 18.6565ZM19.2055 10.1557L19.5423 9.39934L18.3775 8.88062V10.1557H19.2055ZM39.062 18.9981L39.2195 19.811L41.8 19.311L39.3988 18.2417L39.062 18.9981ZM19.2055 22.8453H18.3775V23.8491L19.363 23.6581L19.2055 22.8453ZM61.6784 10.404L62.5064 10.4081L62.5129 9.12575L61.3415 9.64763L61.6784 10.404ZM61.6164 22.7212L61.4608 23.5344L62.4393 23.7217L62.4444 22.7254L61.6164 22.7212ZM42.3183 19.0291L41.9814 18.2728L39.5712 19.3466L42.1628 19.8424L42.3183 19.0291ZM40.5822 19.7117L40.6081 18.8841L40.5153 18.8812L40.4242 18.8989L40.5822 19.7117ZM40.6133 19.7117V18.8837H40.6003L40.5874 18.8841L40.6133 19.7117ZM40.6753 19.7117L40.8319 18.8986L40.7543 18.8837H40.6753V19.7117ZM61.6177 23.745L62.4457 23.7488L62.4488 23.0619L61.7743 22.932L61.6177 23.745ZM61.4626 57.7803L61.6141 58.5943L62.2875 58.469L62.2906 57.7841L61.4626 57.7803ZM40.4581 61.6895L40.3292 62.5074L40.4697 62.5296L40.6096 62.5036L40.4581 61.6895ZM19.2055 58.3388H18.3775V59.0464L19.0765 59.1567L19.2055 58.3388ZM19.2055 23.8691L19.0474 23.0564L18.3775 23.1867V23.8691H19.2055ZM62.6114 23.9309L62.7684 23.1179L61.7875 22.9286L61.7834 23.9276L62.6114 23.9309ZM68.8786 25.1409L69.6344 25.4791L70.0608 24.5259L69.0356 24.3279L68.8786 25.1409ZM62.5494 39.2887L61.7214 39.2853L63.3052 39.6268L62.5494 39.2887ZM18.2132 24.0555H19.0412V23.0518L18.0559 23.2425L18.2132 24.0555ZM18.2132 38.6686L17.4538 38.9986L19.0412 38.6686H18.2132ZM12.4424 25.3896H11.6144V25.5617L11.683 25.7196L12.4424 25.3896ZM12.4424 25.1724L12.2851 24.3595L11.6144 24.4893V25.1724H12.4424ZM69.0625 27.158L69.8905 27.1599L68.3062 26.821L69.0625 27.158ZM69.0004 54.4607L68.244 54.7975L69.8284 54.4626L69.0004 54.4607ZM62.9504 40.8714L62.1941 40.5343L62.044 40.8712L62.194 41.2082L62.9504 40.8714ZM12.4118 27.7782L13.1714 27.4488L11.5838 27.7677L12.4118 27.7782ZM18.0895 40.8711L18.8487 41.2014L18.9922 40.8716L18.8491 40.5417L18.0895 40.8711ZM12.0705 54.7086L11.2425 54.6981L12.8297 55.0389L12.0705 54.7086ZM62.5176 42.3911L63.2736 42.0533L61.6896 42.3877L62.5176 42.3911ZM68.7848 56.4148L68.9364 57.2288L69.9695 57.0363L69.5408 56.0769L68.7848 56.4148ZM62.4556 57.5938L61.6276 57.5904L61.6235 58.591L62.6072 58.4077L62.4556 57.5938ZM18.2136 43.0429H19.0416L17.4541 42.7131L18.2136 43.0429ZM18.2136 58.1834L18.0815 59.0008L19.0416 59.156V58.1834H18.2136ZM12.0705 57.1906L11.311 56.8608L10.8867 57.838L11.9384 58.008L12.0705 57.1906ZM69.2198 57.3768L69.9759 57.0394L69.7107 56.4449L69.0703 56.5624L69.2198 57.3768ZM78.8688 79.0018L78.5313 79.7579L80.5061 80.6393L79.6249 78.6644L78.8688 79.0018ZM62.3941 71.6486L61.5661 71.6447L61.5635 72.1847L62.0566 72.4048L62.3941 71.6486ZM62.4562 58.6178L62.3067 57.8034L61.6314 57.9273L61.6282 58.6139L62.4562 58.6178ZM11.6339 58.1522L11.7612 57.3341L11.1293 57.2357L10.8745 57.8223L11.6339 58.1522ZM18.2113 59.1761H19.0393V58.467L18.3387 58.3579L18.2113 59.1761ZM18.2113 72.0208L18.5489 72.7768L19.0393 72.5579V72.0208H18.2113ZM2.57434 79.0015L1.81494 78.6716L0.965441 80.6266L2.91188 79.7576L2.57434 79.0015ZM61.4615 58.804L62.2895 58.8081L62.2945 57.8083L61.3112 57.9897L61.4615 58.804ZM61.3994 71.1832L61.062 71.9394L62.221 72.4565L62.2274 71.1874L61.3994 71.1832ZM41.7911 62.434L41.6409 61.6197L39.0188 62.1036L41.4537 63.1901L41.7911 62.434ZM19.2055 59.332L19.3343 58.5141L18.3775 58.3634V59.332H19.2055ZM39.4963 62.5276L39.8339 63.2837L42.3855 62.1444L39.6252 61.7097L39.4963 62.5276ZM19.2055 71.5872H18.3775V72.8636L19.5431 72.3432L19.2055 71.5872ZM40.7372 63.0547L41.0746 62.2986L40.7372 62.148L40.3997 62.2986L40.7372 63.0547ZM60.0662 71.6799V72.5079L60.4036 70.9238L60.0662 71.6799ZM21.4081 71.6799L21.0707 70.9238L21.4081 72.5079V71.6799ZM19.2037 72.673V71.845H19.0273L18.8663 71.9168L19.2037 72.673ZM62.2674 72.673L62.6048 71.9168L62.4438 71.845H62.2674V72.673ZM77.8424 79.6227V80.4507L78.1798 78.8666L77.8424 79.6227ZM3.62875 79.6227L3.29135 78.8666L3.62875 80.4507V79.6227ZM0.16492 1.09619V1.5926H1.82092V1.09619H0.16492ZM0.16492 1.5926V80.1188H1.82092V1.5926H0.16492ZM0.16492 80.1188V80.6152H1.82092V80.1188H0.16492ZM0.99292 81.4432H1.48933V79.7872H0.99292V81.4432ZM1.48933 81.4432H79.9845V79.7872H1.48933V81.4432ZM79.9845 81.4432H80.4809V79.7872H79.9845V81.4432ZM81.3089 80.6152V80.1188H79.6529V80.6152H81.3089ZM81.3089 80.1188V1.5926H79.6529V80.1188H81.3089ZM81.3089 1.5926V1.09619H79.6529V1.5926H81.3089ZM80.4809 0.268191H79.9845V1.92419H80.4809V0.268191ZM79.9845 0.268191H1.48933V1.92419H79.9845V0.268191ZM1.48933 0.268191H0.99292V1.92419H1.48933V0.268191ZM3.62875 2.9172H77.8424V1.2612H3.62875V2.9172ZM77.5052 1.33294L62.3336 8.09656L63.0079 9.60907L78.1795 2.84545L77.5052 1.33294ZM62.6708 8.02481H62.1744V9.68081H62.6708V8.02481ZM62.1744 8.02481H18.7693V9.68081H62.1744V8.02481ZM19.107 8.09682L3.96647 1.3332L3.29103 2.84519L18.4316 9.60881L19.107 8.09682ZM2.23681 3.497L17.8738 10.4778L18.5489 8.96564L2.91188 1.98485L2.23681 3.497ZM17.3833 9.72172V23.0318H19.0393V9.72172H17.3833ZM18.0544 22.2188L11.7872 23.4288L12.1011 25.0548L18.3683 23.8448L18.0544 22.2188ZM12.7032 23.911L3.3334 2.41014L1.81529 3.07171L11.1851 24.5726L12.7032 23.911ZM78.1123 2.40332L68.5253 23.8732L70.0374 24.5484L79.6244 3.07852L78.1123 2.40332ZM69.4364 23.3974L62.7659 22.1254L62.4557 23.752L69.1262 25.0241L69.4364 23.3974ZM63.4388 22.9427L63.5009 9.97389L61.8449 9.96597L61.7828 22.9347L63.4388 22.9427ZM63.0104 10.726L79.2058 3.49702L78.5308 1.98483L62.3354 9.21383L63.0104 10.726ZM78.6608 3.7646V77.9782H80.3168V3.7646H78.6608ZM80.2451 77.6413L70.7513 56.3266L69.2385 57.0004L78.7324 78.3151L80.2451 77.6413ZM70.8229 56.6651L70.8849 24.9258L69.2289 24.9226L69.1669 56.6619L70.8229 56.6651ZM70.8132 25.2613L80.245 4.10171L78.7325 3.4275L69.3007 24.5871L70.8132 25.2613ZM1.22627 4.12528L10.6891 25.9054L12.208 25.2455L2.74511 3.46538L1.22627 4.12528ZM10.6206 25.5648L10.2173 57.056L11.8731 57.0772L12.2765 25.586L10.6206 25.5648ZM10.2858 56.7366L1.22628 77.5859L2.74509 78.2458L11.8046 57.3965L10.2858 56.7366ZM2.81369 77.9159V3.79533H1.15769V77.9159H2.81369ZM21.0038 10.6732H60.4686V9.01723H21.0038V10.6732ZM60.131 9.08918L40.3986 17.9005L41.0738 19.4126L60.8062 10.6013L60.131 9.08918ZM41.0738 17.9005L21.3414 9.08918L20.6662 10.6013L40.3986 19.4126L41.0738 17.9005ZM18.8687 10.9121L38.7252 19.7545L39.3988 18.2417L19.5423 9.39934L18.8687 10.9121ZM38.9045 18.1852L19.048 22.0324L19.363 23.6581L39.2195 19.811L38.9045 18.1852ZM20.0335 22.8453V10.1557H18.3775V22.8453H20.0335ZM60.8504 10.3998L60.7884 22.717L62.4444 22.7254L62.5064 10.4081L60.8504 10.3998ZM61.772 21.9079L42.4739 18.2159L42.1628 19.8424L61.4608 23.5344L61.772 21.9079ZM42.6553 19.7855L62.0154 11.1603L61.3415 9.64763L41.9814 18.2728L42.6553 19.7855ZM40.5564 20.5393C40.584 20.5401 40.6116 20.5401 40.6391 20.5393L40.5874 18.8841C40.5943 18.8839 40.6012 18.8839 40.6081 18.8841L40.5564 20.5393ZM40.6133 20.5397H40.6753V18.8837H40.6133V20.5397ZM40.5187 20.5247L61.4611 24.5581L61.7743 22.932L40.8319 18.8986L40.5187 20.5247ZM60.7897 23.7413L60.6346 57.7765L62.2906 57.7841L62.4457 23.7488L60.7897 23.7413ZM61.3111 56.9663L40.3066 60.8755L40.6096 62.5036L61.6141 58.5943L61.3111 56.9663ZM40.5871 60.8716L19.3345 57.5209L19.0765 59.1567L40.3292 62.5074L40.5871 60.8716ZM20.0335 58.3388V23.8691H18.3775V58.3388H20.0335ZM19.3636 24.6819L40.7403 20.5245L40.4242 18.8989L19.0474 23.0564L19.3636 24.6819ZM62.4544 24.7439L68.7216 25.9539L69.0356 24.3279L62.7684 23.1179L62.4544 24.7439ZM68.1228 24.8028L61.7935 38.9506L63.3052 39.6268L69.6344 25.4791L68.1228 24.8028ZM63.3773 39.292L63.4394 23.9343L61.7834 23.9276L61.7214 39.2853L63.3773 39.292ZM17.3852 24.0555V38.6686H19.0412V24.0555H17.3852ZM18.9726 38.3386L13.2018 25.0595L11.683 25.7196L17.4538 38.9986L18.9726 38.3386ZM13.2704 25.3896V25.1724H11.6144V25.3896H13.2704ZM12.5998 25.9853L18.3706 24.8684L18.0559 23.2425L12.2851 24.3595L12.5998 25.9853ZM68.2345 27.1561L68.1724 54.4588L69.8284 54.4626L69.8905 27.1599L68.2345 27.1561ZM69.7569 54.1239L63.7068 40.5347L62.194 41.2082L68.244 54.7975L69.7569 54.1239ZM63.7067 41.2085L69.8188 27.4951L68.3062 26.821L62.1941 40.5343L63.7067 41.2085ZM11.6521 28.1076L17.3298 41.2005L18.8491 40.5417L13.1714 27.4488L11.6521 28.1076ZM17.3302 40.5408L11.3112 54.3783L12.8297 55.0389L18.8487 41.2014L17.3302 40.5408ZM12.8984 54.7191L13.2397 27.7887L11.5838 27.7677L11.2425 54.6981L12.8984 54.7191ZM61.7617 42.729L68.0289 56.7526L69.5408 56.0769L63.2736 42.0533L61.7617 42.729ZM68.6332 55.6008L62.3039 56.7798L62.6072 58.4077L68.9364 57.2288L68.6332 55.6008ZM63.2836 57.5971L63.3456 42.3945L61.6896 42.3877L61.6276 57.5904L63.2836 57.5971ZM17.3856 43.0429V58.1834H19.0416V43.0429H17.3856ZM18.3457 57.366L12.2026 56.3732L11.9384 58.008L18.0815 59.0008L18.3457 57.366ZM12.83 57.5204L18.9731 43.3726L17.4541 42.7131L11.311 56.8608L12.83 57.5204ZM68.4636 57.7142L78.1126 79.3391L79.6249 78.6644L69.9759 57.0394L68.4636 57.7142ZM79.2063 78.2456L62.7316 70.8925L62.0566 72.4048L78.5313 79.7579L79.2063 78.2456ZM63.2221 71.6526L63.2841 58.6218L61.6282 58.6139L61.5661 71.6447L63.2221 71.6526ZM62.6056 59.4322L69.3692 58.1912L69.0703 56.5624L62.3067 57.8034L62.6056 59.4322ZM11.5065 58.9704L18.084 59.9942L18.3387 58.3579L11.7612 57.3341L11.5065 58.9704ZM17.3833 59.1761V72.0208H19.0393V59.1761H17.3833ZM17.8738 71.2647L2.23681 78.2455L2.91188 79.7576L18.5489 72.7768L17.8738 71.2647ZM3.33375 79.3315L12.3933 58.4822L10.8745 57.8223L1.81494 78.6716L3.33375 79.3315ZM60.6335 58.7998L60.5714 71.1791L62.2274 71.1874L62.2895 58.8081L60.6335 58.7998ZM61.7368 70.4271L42.1285 61.6778L41.4537 63.1901L61.062 71.9394L61.7368 70.4271ZM41.9414 63.2482L61.6117 59.6182L61.3112 57.9897L41.6409 61.6197L41.9414 63.2482ZM19.0767 60.1499L39.3675 63.3455L39.6252 61.7097L19.3343 58.5141L19.0767 60.1499ZM39.1588 61.7716L18.8679 70.8311L19.5431 72.3432L39.8339 63.2837L39.1588 61.7716ZM20.0335 71.5872V59.332H18.3775V71.5872H20.0335ZM40.3997 63.8109L59.7288 72.436L60.4036 70.9238L41.0746 62.2986L40.3997 63.8109ZM60.0662 70.8519H21.4081V72.5079H60.0662V70.8519ZM21.7455 72.436L41.0746 63.8109L40.3997 62.2986L21.0707 70.9238L21.7455 72.436ZM19.2037 73.501H61.8951V71.845H19.2037V73.501ZM61.8951 73.501H62.2674V71.845H61.8951V73.501ZM61.93 73.4291L77.505 80.3789L78.1798 78.8666L62.6048 71.9168L61.93 73.4291ZM77.8424 78.7947H3.62875V80.4507H77.8424V78.7947ZM3.96615 80.3789L19.5411 73.4291L18.8663 71.9168L3.29135 78.8666L3.96615 80.3789Z" fill="#D2AB8B"/>
</svg>
