<svg width="63" height="86" viewBox="0 0 63 86" fill="none" xmlns="http://www.w3.org/2000/svg">
<path fill-rule="evenodd" clip-rule="evenodd" d="M31.265 1.78418L30.9731 1.94638C14.1911 12.3509 2.95687 35.226 1.12773 55.149C0.259273 64.6075 3.66053 72.0208 9.20544 77.0788C14.7503 82.1367 22.4273 84.8457 30.1945 85.0917C37.9617 85.3376 45.8163 83.1159 51.7351 78.1818C57.6538 73.2478 61.59 65.5969 61.4673 55.1814C61.3756 47.4008 58.5912 36.7872 53.4869 26.7634C48.3826 16.7397 40.9605 7.31922 31.5246 1.94638L31.265 1.78418ZM32.1721 3.56881C36.8529 6.46008 41.016 10.4138 44.6293 14.923L40.5418 17.6156L32.1721 3.56881ZM30.2601 3.69819L22.8312 17.5503L18.5166 14.6955C21.9892 10.3649 25.946 6.59347 30.2601 3.69819ZM31.2664 4.02243L39.701 18.1665L31.7206 23.3895L23.7077 18.1341L31.2664 4.02243ZM17.8676 15.5392L22.1173 18.3291L10.9902 26.2771C12.9991 22.4612 15.2936 18.8583 17.8676 15.5392ZM45.2801 15.7664C47.5475 18.6957 49.5941 21.8289 51.3789 25.0769L41.2575 18.3941L45.2801 15.7664ZM23.3811 19.1722L30.8748 24.0708L20.137 33.9976L23.3811 19.1722ZM39.9274 19.2701L42.7822 33.5439L32.5958 24.0389L39.9274 19.2701ZM40.9955 19.4965L51.7982 26.601L52.1226 42.2698L44.0773 34.776L40.9955 19.4965ZM22.246 19.5296L18.8397 35.1985L10.4052 43.0166L10.2754 28.094L22.246 19.5296ZM31.7517 24.72L43.1384 35.3281L47.2908 55.9927V56.0252L42.3274 68.7743L31.4273 71.2723L31.2651 71.2074H31.2327L20.138 67.3794L15.4666 55.4413L19.7487 35.7822L31.7517 24.72ZM52.8689 27.9317C57.5881 37.4174 60.2341 47.3654 60.4275 54.6952L53.1933 43.3735L52.8689 27.9317ZM9.23838 29.7802L9.36814 43.8918V43.9892V44.0216L2.32853 53.8511C3.22955 45.9163 5.6079 37.5684 9.23838 29.7802ZM44.4369 36.5279L52.028 43.6L48.0053 54.1756L44.4369 36.5279ZM18.4495 37.0147L14.7837 53.8513L10.5988 44.2489L18.4495 37.0147ZM52.7395 44.6381L60.136 56.187L52.2854 66.6328L48.3925 56.0572V56.0247L52.7395 44.6381ZM9.85427 45.1249L14.3635 55.5383L9.98403 65.7571L2.49025 55.3761L9.85427 45.1249ZM2.10093 56.5438L9.49739 66.8599L11.7358 77.8249C11.1012 77.3442 10.4723 76.8344 9.88668 76.3002C4.80907 71.6684 1.66094 65.0862 2.10093 56.5438ZM14.9154 56.9336L18.938 67.1524L11.0225 65.9521L14.9154 56.9336ZM47.8426 57.5174L51.3137 66.9576L43.528 68.5472L47.8426 57.5174ZM60.3649 57.6144C59.9041 66.5121 56.3124 73.0147 51.0869 77.3707C51.0639 77.3899 51.0451 77.4165 51.022 77.4356L52.7414 67.7034L60.3649 57.6144ZM10.5988 66.9577L19.3578 68.2553L22.2126 75.522L12.8372 77.8577L10.5988 66.9577ZM51.6691 67.9305L49.9173 77.5977L40.7691 75.6189L43.0724 69.6822L51.6691 67.9305ZM20.6254 68.6444L29.9358 71.856L23.2206 75.2299L20.6254 68.6444ZM41.8729 69.9422L39.7967 75.2949L32.9192 71.986L41.8729 69.9422ZM31.2987 72.3429L39.2142 76.1709L31.6879 83.5674L23.7724 76.106L31.2987 72.3429ZM22.6363 76.4951L22.6688 76.5275L30.7141 84.0537C30.5533 84.0508 30.3881 84.0588 30.2274 84.0537C24.121 83.8603 18.0752 82.0768 13.1637 78.8308L22.6363 76.4951ZM40.284 76.5598L49.4972 78.6035C44.6658 82.0393 38.7101 83.8265 32.6605 84.0535L40.284 76.5598Z" fill="#D2AB8B"/>
<path d="M31.265 1.78418L31.7039 1.08204L31.2898 0.823231L30.8629 1.06038L31.265 1.78418ZM30.9731 1.94638L30.571 1.22258L30.5536 1.23221L30.5368 1.24266L30.9731 1.94638ZM1.12773 55.149L1.95226 55.2247L1.95226 55.2247L1.12773 55.149ZM9.20544 77.0788L8.64743 77.6905L8.64743 77.6906L9.20544 77.0788ZM51.7351 78.1818L51.2049 77.5458L51.2049 77.5458L51.7351 78.1818ZM61.4673 55.1814L62.2952 55.1717V55.1717L61.4673 55.1814ZM31.5246 1.94638L31.0857 2.64852L31.1001 2.65752L31.1149 2.66592L31.5246 1.94638ZM32.1721 3.56881L32.6072 2.86436L31.4608 3.99264L32.1721 3.56881ZM44.6293 14.923L45.0848 15.6145L45.8438 15.1145L45.2754 14.4053L44.6293 14.923ZM40.5418 17.6156L39.8305 18.0394L40.2739 18.7836L40.9973 18.3071L40.5418 17.6156ZM30.2601 3.69819L30.9898 4.08952L29.7987 3.01067L30.2601 3.69819ZM22.8312 17.5503L22.3743 18.2409L23.1317 18.742L23.5609 17.9417L22.8312 17.5503ZM18.5166 14.6955L17.8706 14.1776L17.303 14.8854L18.0597 15.3861L18.5166 14.6955ZM31.2664 4.02243L31.9776 3.59835L31.2278 2.34098L30.5365 3.63148L31.2664 4.02243ZM39.701 18.1665L40.1544 18.8593L40.8188 18.4245L40.4121 17.7425L39.701 18.1665ZM31.7206 23.3895L31.2665 24.0818L31.7201 24.3794L32.174 24.0823L31.7206 23.3895ZM23.7077 18.1341L22.9779 17.7431L22.6201 18.411L23.2536 18.8265L23.7077 18.1341ZM17.8676 15.5392L18.322 14.8471L17.6823 14.4271L17.2133 15.0318L17.8676 15.5392ZM22.1173 18.3291L22.5986 19.0029L23.5822 18.3003L22.5717 17.637L22.1173 18.3291ZM10.9902 26.2771L10.2575 25.8913L11.4715 26.9508L10.9902 26.2771ZM45.2801 15.7664L45.9349 15.2596L45.4671 14.6553L44.8273 15.0732L45.2801 15.7664ZM51.3789 25.0769L50.9227 25.7679L52.1046 24.6781L51.3789 25.0769ZM41.2575 18.3941L40.8046 17.7009L39.7491 18.3904L40.8012 19.0851L41.2575 18.3941ZM23.3811 19.1722L23.8341 18.4792L22.8289 17.8221L22.5722 18.9953L23.3811 19.1722ZM30.8748 24.0708L31.4369 24.6788L32.2162 23.9584L31.3279 23.3777L30.8748 24.0708ZM20.137 33.9976L19.3281 33.8206L18.7652 36.3935L20.6991 34.6056L20.137 33.9976ZM39.9274 19.2701L40.7393 19.1077L40.4998 17.91L39.4759 18.576L39.9274 19.2701ZM42.7822 33.5439L42.2173 34.1493L44.0988 35.905L43.5941 33.3816L42.7822 33.5439ZM32.5958 24.0389L32.1443 23.3448L31.2569 23.922L32.0309 24.6442L32.5958 24.0389ZM40.9955 19.4965L41.4505 18.8047L39.7912 17.7135L40.1838 19.6602L40.9955 19.4965ZM51.7982 26.601L52.626 26.5838L52.617 26.1485L52.2532 25.9092L51.7982 26.601ZM52.1226 42.2698L51.5583 42.8757L52.991 44.2102L52.9504 42.2527L52.1226 42.2698ZM44.0773 34.776L43.2657 34.9397L43.3183 35.2005L43.513 35.3819L44.0773 34.776ZM22.246 19.5296L23.0551 19.7055L23.5115 17.6062L21.7642 18.8562L22.246 19.5296ZM18.8397 35.1985L19.4026 35.8057L19.5935 35.6287L19.6488 35.3743L18.8397 35.1985ZM10.4052 43.0166L9.57718 43.0238L9.59348 44.898L10.968 43.6239L10.4052 43.0166ZM10.2754 28.094L9.79361 27.4206L9.44368 27.6709L9.44742 28.1012L10.2754 28.094ZM31.7517 24.72L32.3161 24.1142L31.7548 23.5912L31.1906 24.1111L31.7517 24.72ZM43.1384 35.3281L43.9502 35.165L43.8977 34.9038L43.7028 34.7223L43.1384 35.3281ZM47.2908 55.9927H48.1188V55.9104L48.1026 55.8296L47.2908 55.9927ZM47.2908 56.0252L48.0624 56.3256L48.1188 56.1807V56.0252H47.2908ZM42.3274 68.7743L42.5123 69.5814L42.9399 69.4835L43.099 69.0747L42.3274 68.7743ZM31.4273 71.2723L31.1198 72.041L31.3601 72.1372L31.6123 72.0794L31.4273 71.2723ZM31.2651 71.2074L31.5727 70.4386L31.4246 70.3794H31.2651V71.2074ZM31.2327 71.2074L30.9626 71.9901L31.0939 72.0354H31.2327V71.2074ZM20.138 67.3794L19.3669 67.6811L19.5063 68.0374L19.8679 68.1621L20.138 67.3794ZM15.4666 55.4413L14.6575 55.265L14.6042 55.5098L14.6955 55.743L15.4666 55.4413ZM19.7487 35.7822L19.1876 35.1734L18.9953 35.3506L18.9397 35.606L19.7487 35.7822ZM52.8689 27.9317L53.6102 27.5629L52.0411 27.9491L52.8689 27.9317ZM60.4275 54.6952L59.7298 55.1411L61.3338 57.6514L61.2552 54.6734L60.4275 54.6952ZM53.1933 43.3735L52.3655 43.3909L52.3703 43.6233L52.4956 43.8193L53.1933 43.3735ZM9.23838 29.7802L10.0663 29.7726L8.48791 29.4304L9.23838 29.7802ZM9.36814 43.8918H10.1962L10.1961 43.8842L9.36814 43.8918ZM9.36814 44.0216L10.0413 44.5037L10.1961 44.2875V44.0216H9.36814ZM2.32853 53.8511L1.50582 53.7577L1.14628 56.924L3.0017 54.3332L2.32853 53.8511ZM44.4369 36.5279L45.0013 35.9221L43.1141 34.1639L43.6253 36.692L44.4369 36.5279ZM52.028 43.6L52.8019 43.8943L52.9999 43.3738L52.5924 42.9941L52.028 43.6ZM48.0053 54.1756L47.1938 54.3397L47.7613 57.1463L48.7792 54.47L48.0053 54.1756ZM18.4495 37.0147L19.2585 37.1908L19.8162 34.6293L17.8884 36.4058L18.4495 37.0147ZM14.7837 53.8513L14.0246 54.1822L15.0478 56.53L15.5927 54.0275L14.7837 53.8513ZM10.5988 44.2489L10.0377 43.64L9.60431 44.0394L9.83978 44.5797L10.5988 44.2489ZM52.7395 44.6381L53.4368 44.1915L52.5515 42.8092L51.966 44.3428L52.7395 44.6381ZM60.136 56.187L60.7979 56.6844L61.1434 56.2247L60.8333 55.7404L60.136 56.187ZM52.2854 66.6328L51.5083 66.9188L52.0336 68.3459L52.9473 67.1303L52.2854 66.6328ZM48.3925 56.0572H47.5645V56.2047L47.6155 56.3432L48.3925 56.0572ZM48.3925 56.0247L47.619 55.7294L47.5645 55.8721V56.0247H48.3925ZM9.85427 45.1249L10.6141 44.7958L10.0338 43.4557L9.18179 44.6418L9.85427 45.1249ZM14.3635 55.5383L15.1246 55.8645L15.2651 55.5366L15.1233 55.2093L14.3635 55.5383ZM9.98403 65.7571L9.31267 66.2417L10.1689 67.4278L10.7451 66.0833L9.98403 65.7571ZM2.49025 55.3761L1.81777 54.893L1.4699 55.3773L1.8189 55.8607L2.49025 55.3761ZM2.10093 56.5438L2.77384 56.0614L1.39569 54.1392L1.27403 56.5012L2.10093 56.5438ZM9.49739 66.8599L10.3087 66.6943L10.2733 66.5211L10.1703 66.3775L9.49739 66.8599ZM11.7358 77.8249L11.2359 78.4849L12.9863 79.8107L12.5471 77.6593L11.7358 77.8249ZM9.88668 76.3002L9.32866 76.9119L9.32867 76.9119L9.88668 76.3002ZM14.9154 56.9336L15.6859 56.6303L14.9507 54.7626L14.1552 56.6054L14.9154 56.9336ZM18.938 67.1524L18.8139 67.971L20.235 68.1865L19.7085 66.8491L18.938 67.1524ZM11.0225 65.9521L10.2623 65.6239L9.8368 66.6097L10.8984 66.7707L11.0225 65.9521ZM47.8426 57.5174L48.6197 57.2316L47.8666 55.1833L47.0715 57.2157L47.8426 57.5174ZM51.3137 66.9576L51.4794 67.7689L52.4234 67.5761L52.0909 66.6718L51.3137 66.9576ZM43.528 68.5472L42.7569 68.2455L42.2025 69.6629L43.6936 69.3584L43.528 68.5472ZM60.3649 57.6144L61.1918 57.6572L61.3314 54.9619L59.7043 57.1152L60.3649 57.6144ZM51.0869 77.3707L50.5567 76.7347H50.5567L51.0869 77.3707ZM51.022 77.4356L50.2067 77.2916L49.8148 79.5097L51.55 78.0735L51.022 77.4356ZM52.7414 67.7034L52.0808 67.2043L51.9607 67.3632L51.926 67.5594L52.7414 67.7034ZM10.5988 66.9577L10.7202 66.1386L9.54974 65.9653L9.78775 67.1243L10.5988 66.9577ZM19.3578 68.2553L20.1285 67.9526L19.9532 67.5065L19.4791 67.4363L19.3578 68.2553ZM22.2126 75.522L22.4127 76.3255L23.3282 76.0974L22.9832 75.2193L22.2126 75.522ZM12.8372 77.8577L12.0262 78.0243L12.1998 78.8699L13.0374 78.6612L12.8372 77.8577ZM51.6691 67.9305L52.4839 68.0781L52.7019 66.875L51.5038 67.1191L51.6691 67.9305ZM49.9173 77.5977L49.7423 78.407L50.5794 78.5881L50.7321 77.7454L49.9173 77.5977ZM40.7691 75.6189L39.9971 75.3194L39.6465 76.2232L40.594 76.4282L40.7691 75.6189ZM43.0724 69.6822L42.907 68.8709L42.464 68.9612L42.3004 69.3828L43.0724 69.6822ZM20.6254 68.6444L20.8954 67.8617L19.1959 67.2755L19.8551 68.948L20.6254 68.6444ZM29.9358 71.856L30.3076 72.5959L32.063 71.7139L30.2058 71.0733L29.9358 71.856ZM23.2206 75.2299L22.4503 75.5335L22.7826 76.3766L23.5924 75.9697L23.2206 75.2299ZM41.8729 69.9422L42.6448 70.2417L43.2087 68.788L41.6886 69.135L41.8729 69.9422ZM39.7967 75.2949L39.4377 76.0411L40.2447 76.4294L40.5686 75.5944L39.7967 75.2949ZM32.9192 71.986L32.735 71.1787L30.4268 71.7056L32.5603 72.7321L32.9192 71.986ZM31.2987 72.3429L31.6591 71.5975L31.2926 71.4203L30.9284 71.6024L31.2987 72.3429ZM39.2142 76.1709L39.7945 76.7615L40.6331 75.9374L39.5746 75.4255L39.2142 76.1709ZM31.6879 83.5674L31.12 84.1699L31.6999 84.7165L32.2683 84.1579L31.6879 83.5674ZM23.7724 76.106L23.4021 75.3655L22.342 75.8955L23.2045 76.7086L23.7724 76.106ZM22.6363 76.4951L23.2218 75.9096L22.8916 75.5793L22.4381 75.6911L22.6363 76.4951ZM22.6688 76.5275L22.0833 77.113L22.0931 77.1227L22.1031 77.1322L22.6688 76.5275ZM30.7141 84.0537L30.6991 84.8816L32.8525 84.9204L31.2797 83.4491L30.7141 84.0537ZM30.2274 84.0537L30.2012 84.8813H30.2012L30.2274 84.0537ZM13.1637 78.8308L12.9655 78.0269L11.1303 78.4794L12.7072 79.5216L13.1637 78.8308ZM40.284 76.5598L40.4634 75.7514L40.0243 75.654L39.7036 75.9693L40.284 76.5598ZM49.4972 78.6035L49.977 79.2783L51.4952 78.1986L49.6765 77.7952L49.4972 78.6035ZM32.6605 84.0535L32.0801 83.4631L30.5561 84.9611L32.6916 84.881L32.6605 84.0535ZM30.8629 1.06038L30.571 1.22258L31.3752 2.67018L31.6672 2.50798L30.8629 1.06038ZM30.5368 1.24266C13.4763 11.8199 2.1491 34.9678 0.303196 55.0733L1.95226 55.2247C3.76465 35.4842 14.9059 12.882 31.4094 2.65011L30.5368 1.24266ZM0.303196 55.0733C-0.589311 64.7938 2.9137 72.4603 8.64743 77.6905L9.76345 76.4671C4.40736 71.5813 1.10786 64.4213 1.95226 55.2247L0.303196 55.0733ZM8.64743 77.6906C14.3614 82.9026 22.2375 85.6681 30.1683 85.9192L30.2207 84.2641C22.6171 84.0233 15.1393 81.3708 9.76344 76.4671L8.64743 77.6906ZM30.1683 85.9192C38.1008 86.1704 46.1643 83.9038 52.2653 78.8178L51.2049 77.5458C45.4684 82.328 37.8226 84.5048 30.2207 84.2641L30.1683 85.9192ZM52.2653 78.8178C58.387 73.7146 62.4207 65.8206 62.2952 55.1717L60.6393 55.1912C60.7593 65.3731 56.9206 72.7811 51.2049 77.5458L52.2653 78.8178ZM62.2952 55.1717C62.2016 47.2341 59.3717 36.4953 54.2247 26.3877L52.749 27.1392C57.8107 37.0792 60.5495 47.5674 60.6393 55.1912L62.2952 55.1717ZM54.2247 26.3877C49.077 16.2787 41.559 6.70722 31.9343 1.22685L31.1149 2.66592C40.3619 7.93123 47.6881 17.2006 52.749 27.1392L54.2247 26.3877ZM31.9634 1.24424L31.7039 1.08204L30.8262 2.48632L31.0857 2.64852L31.9634 1.24424ZM31.737 4.27326C36.3193 7.10371 40.4141 10.9869 43.9832 15.4408L45.2754 14.4053C41.6178 9.84074 37.3865 5.81646 32.6072 2.86436L31.737 4.27326ZM44.1738 14.2316L40.0863 16.9241L40.9973 18.3071L45.0848 15.6145L44.1738 14.2316ZM41.2531 17.1918L32.8834 3.14498L31.4608 3.99264L39.8305 18.0394L41.2531 17.1918ZM29.5304 3.30685L22.1015 17.159L23.5609 17.9417L30.9898 4.08952L29.5304 3.30685ZM23.2881 16.8598L18.9735 14.005L18.0597 15.3861L22.3743 18.2409L23.2881 16.8598ZM19.1625 15.2135C22.5912 10.9378 26.4878 7.22709 30.7215 4.3857L29.7987 3.01067C25.4043 5.95986 21.3872 9.79211 17.8706 14.1776L19.1625 15.2135ZM30.5553 4.44651L38.9898 18.5906L40.4121 17.7425L31.9776 3.59835L30.5553 4.44651ZM39.2475 17.4737L31.2672 22.6967L32.174 24.0823L40.1544 18.8593L39.2475 17.4737ZM32.1747 22.6971L24.1619 17.4417L23.2536 18.8265L31.2665 24.0818L32.1747 22.6971ZM24.4376 18.525L31.9963 4.41338L30.5365 3.63148L22.9779 17.7431L24.4376 18.525ZM17.4132 16.2314L21.6629 19.0213L22.5717 17.637L18.322 14.8471L17.4132 16.2314ZM21.636 17.6554L10.5089 25.6033L11.4715 26.9508L22.5986 19.0029L21.636 17.6554ZM11.7229 26.6628C13.7109 22.8866 15.9796 19.3249 18.5219 16.0467L17.2133 15.0318C14.6076 18.3918 12.2873 22.0358 10.2575 25.8913L11.7229 26.6628ZM44.6253 16.2733C46.8657 19.1675 48.8887 22.2645 50.6533 25.4757L52.1046 24.6781C50.2995 21.3933 48.2294 18.2239 45.9349 15.2596L44.6253 16.2733ZM51.8352 24.3859L41.7137 17.7032L40.8012 19.0851L50.9227 25.7679L51.8352 24.3859ZM41.7103 19.0873L45.7329 16.4597L44.8273 15.0732L40.8046 17.7009L41.7103 19.0873ZM22.928 19.8653L30.4218 24.7638L31.3279 23.3777L23.8341 18.4792L22.928 19.8653ZM30.3128 23.4628L19.5749 33.3896L20.6991 34.6056L31.4369 24.6788L30.3128 23.4628ZM20.9459 34.1746L24.1899 19.3492L22.5722 18.9953L19.3281 33.8206L20.9459 34.1746ZM39.1155 19.4325L41.9702 33.7063L43.5941 33.3816L40.7393 19.1077L39.1155 19.4325ZM43.347 32.9386L33.1607 23.4335L32.0309 24.6442L42.2173 34.1493L43.347 32.9386ZM33.0473 24.7329L40.3789 19.9642L39.4759 18.576L32.1443 23.3448L33.0473 24.7329ZM40.5405 20.1883L51.3432 27.2928L52.2532 25.9092L41.4505 18.8047L40.5405 20.1883ZM50.9704 26.6181L51.2948 42.2869L52.9504 42.2527L52.626 26.5838L50.9704 26.6181ZM52.687 41.6639L44.6417 34.1701L43.513 35.3819L51.5583 42.8757L52.687 41.6639ZM44.889 34.6123L41.8071 19.3328L40.1838 19.6602L43.2657 34.9397L44.889 34.6123ZM21.4369 19.3538L18.0306 35.0226L19.6488 35.3743L23.0551 19.7055L21.4369 19.3538ZM18.2768 34.5912L9.84228 42.4094L10.968 43.6239L19.4026 35.8057L18.2768 34.5912ZM11.2331 43.0094L11.1034 28.0868L9.44742 28.1012L9.57718 43.0238L11.2331 43.0094ZM10.7572 28.7674L22.7278 20.203L21.7642 18.8562L9.79361 27.4206L10.7572 28.7674ZM31.1873 25.3258L42.574 35.9339L43.7028 34.7223L32.3161 24.1142L31.1873 25.3258ZM42.3266 35.4912L46.479 56.1559L48.1026 55.8296L43.9502 35.165L42.3266 35.4912ZM46.4628 55.9927V56.0252H48.1188V55.9927H46.4628ZM46.5192 55.7248L41.5558 68.474L43.099 69.0747L48.0624 56.3256L46.5192 55.7248ZM42.1424 67.9673L31.2424 70.4652L31.6123 72.0794L42.5123 69.5814L42.1424 67.9673ZM31.7349 70.5035L31.5727 70.4386L30.9576 71.9762L31.1198 72.041L31.7349 70.5035ZM31.2651 70.3794H31.2327V72.0354H31.2651V70.3794ZM31.5028 70.4247L20.4081 66.5967L19.8679 68.1621L30.9626 71.9901L31.5028 70.4247ZM20.9091 67.0777L16.2376 55.1395L14.6955 55.743L19.3669 67.6811L20.9091 67.0777ZM16.2756 55.6175L20.5578 35.9585L18.9397 35.606L14.6575 55.265L16.2756 55.6175ZM20.3099 36.3911L32.3129 25.3289L31.1906 24.1111L19.1876 35.1734L20.3099 36.3911ZM52.1276 28.3006C56.8076 37.7074 59.4104 47.5366 59.5998 54.7171L61.2552 54.6734C61.0579 47.1943 58.3687 37.1274 53.6102 27.5629L52.1276 28.3006ZM61.1253 54.2494L53.891 42.9276L52.4956 43.8193L59.7298 55.1411L61.1253 54.2494ZM54.0211 43.3561L53.6967 27.9143L52.0411 27.9491L52.3655 43.3909L54.0211 43.3561ZM8.41041 29.7878L8.54017 43.8995L10.1961 43.8842L10.0663 29.7726L8.41041 29.7878ZM8.54014 43.8918V43.9892H10.1961V43.8918H8.54014ZM8.54014 43.9892V44.0216H10.1961V43.9892H8.54014ZM8.69497 43.5395L1.65536 53.369L3.0017 54.3332L10.0413 44.5037L8.69497 43.5395ZM3.15124 53.9445C4.04163 46.1033 6.39402 37.8418 9.98885 30.13L8.48791 29.4304C4.82177 37.2951 2.41747 45.7292 1.50582 53.7577L3.15124 53.9445ZM43.8725 37.1337L51.4636 44.2058L52.5924 42.9941L45.0013 35.9221L43.8725 37.1337ZM51.2541 43.3056L47.2314 53.8812L48.7792 54.47L52.8019 43.8943L51.2541 43.3056ZM48.8169 54.0115L45.2484 36.3638L43.6253 36.692L47.1938 54.3397L48.8169 54.0115ZM17.6404 36.8385L13.9746 53.6752L15.5927 54.0275L19.2585 37.1908L17.6404 36.8385ZM15.5427 53.5205L11.3579 43.9181L9.83978 44.5797L14.0246 54.1822L15.5427 53.5205ZM11.1599 44.8578L19.0105 37.6236L17.8884 36.4058L10.0377 43.64L11.1599 44.8578ZM52.0423 45.0847L59.4387 56.6335L60.8333 55.7404L53.4368 44.1915L52.0423 45.0847ZM59.4741 55.6895L51.6235 66.1354L52.9473 67.1303L60.7979 56.6844L59.4741 55.6895ZM53.0624 66.3468L49.1695 55.7712L47.6155 56.3432L51.5083 66.9188L53.0624 66.3468ZM49.2205 56.0572V56.0247H47.5645V56.0572H49.2205ZM49.166 56.3201L53.5131 44.9334L51.966 44.3428L47.619 55.7294L49.166 56.3201ZM9.09444 45.4539L13.6037 55.8673L15.1233 55.2093L10.6141 44.7958L9.09444 45.4539ZM13.6025 55.2121L9.22298 65.4309L10.7451 66.0833L15.1246 55.8645L13.6025 55.2121ZM10.6554 65.2725L3.1616 54.8915L1.8189 55.8607L9.31267 66.2417L10.6554 65.2725ZM3.16272 55.8592L10.5267 45.6079L9.18179 44.6418L1.81777 54.893L3.16272 55.8592ZM1.42802 57.0263L8.82448 67.3424L10.1703 66.3775L2.77384 56.0614L1.42802 57.0263ZM8.68612 67.0256L10.9245 77.9905L12.5471 77.6593L10.3087 66.6943L8.68612 67.0256ZM12.2357 77.1648C11.6152 76.6948 11.0069 76.2012 10.4447 75.6884L9.32867 76.9119C9.93783 77.4676 10.5873 77.9937 11.2359 78.4849L12.2357 77.1648ZM10.4447 75.6884C5.54683 71.2206 2.50081 64.8771 2.92784 56.5864L1.27403 56.5012C0.821072 65.2953 4.07131 72.1161 9.32866 76.9119L10.4447 75.6884ZM14.1449 57.2369L18.1676 67.4557L19.7085 66.8491L15.6859 56.6303L14.1449 57.2369ZM19.0622 66.3337L11.1467 65.1334L10.8984 66.7707L18.8139 67.971L19.0622 66.3337ZM11.7827 66.2802L15.6756 57.2617L14.1552 56.6054L10.2623 65.6239L11.7827 66.2802ZM47.0655 57.8031L50.5366 67.2433L52.0909 66.6718L48.6197 57.2316L47.0655 57.8031ZM51.1481 66.1463L43.3624 67.7359L43.6936 69.3584L51.4794 67.7689L51.1481 66.1463ZM44.2991 68.8488L48.6137 57.819L47.0715 57.2157L42.7569 68.2455L44.2991 68.8488ZM59.538 57.5716C59.0887 66.2486 55.5975 72.5326 50.5567 76.7347L51.6171 78.0067C57.0272 73.4967 60.7196 66.7755 61.1918 57.6572L59.538 57.5716ZM50.5567 76.7347C50.5221 76.7636 50.4952 76.7901 50.4778 76.8079C50.4614 76.8247 50.447 76.8406 50.4436 76.8444C50.4369 76.8516 50.441 76.847 50.4471 76.8407C50.4542 76.8336 50.4705 76.8173 50.4941 76.7978L51.55 78.0735C51.5851 78.0444 51.6125 78.0176 51.6302 77.9995C51.6471 77.9823 51.6617 77.9662 51.6655 77.9621C51.6725 77.9544 51.6685 77.9588 51.6628 77.9646C51.6562 77.9715 51.6402 77.9875 51.6171 78.0067L50.5567 76.7347ZM51.8374 77.5797L53.5568 67.8475L51.926 67.5594L50.2067 77.2916L51.8374 77.5797ZM53.402 68.2026L61.0256 58.1136L59.7043 57.1152L52.0808 67.2043L53.402 68.2026ZM10.4775 67.7768L19.2364 69.0744L19.4791 67.4363L10.7202 66.1386L10.4775 67.7768ZM18.5871 68.5581L21.4419 75.8248L22.9832 75.2193L20.1285 67.9526L18.5871 68.5581ZM22.0124 74.7186L12.6371 77.0543L13.0374 78.6612L22.4127 76.3255L22.0124 74.7186ZM13.6483 77.6912L11.4099 66.7912L9.78775 67.1243L12.0262 78.0243L13.6483 77.6912ZM50.8544 67.7828L49.1026 77.4501L50.7321 77.7454L52.4839 68.0781L50.8544 67.7828ZM50.0924 76.7885L40.9441 74.8096L40.594 76.4282L49.7423 78.407L50.0924 76.7885ZM41.541 75.9184L43.8443 69.9817L42.3004 69.3828L39.9971 75.3194L41.541 75.9184ZM43.2377 70.4936L51.8344 68.7418L51.5038 67.1191L42.907 68.8709L43.2377 70.4936ZM20.3554 69.4272L29.6658 72.6388L30.2058 71.0733L20.8954 67.8617L20.3554 69.4272ZM29.5641 71.1162L22.8489 74.49L23.5924 75.9697L30.3076 72.5959L29.5641 71.1162ZM23.991 74.9263L21.3957 68.3409L19.8551 68.948L22.4503 75.5335L23.991 74.9263ZM41.1009 69.6428L39.0247 74.9955L40.5686 75.5944L42.6448 70.2417L41.1009 69.6428ZM40.1556 74.5488L33.2782 71.2399L32.5603 72.7321L39.4377 76.0411L40.1556 74.5488ZM33.1035 72.7932L42.0571 70.7495L41.6886 69.135L32.735 71.1787L33.1035 72.7932ZM30.9382 73.0883L38.8537 76.9163L39.5746 75.4255L31.6591 71.5975L30.9382 73.0883ZM38.6338 75.5804L31.1076 82.9768L32.2683 84.1579L39.7945 76.7615L38.6338 75.5804ZM32.2559 82.9649L24.3404 75.5035L23.2045 76.7086L31.12 84.1699L32.2559 82.9649ZM24.1427 76.8466L31.6689 73.0835L30.9284 71.6024L23.4021 75.3655L24.1427 76.8466ZM22.0509 77.0806L22.0833 77.113L23.2543 75.942L23.2218 75.9096L22.0509 77.0806ZM22.1031 77.1322L30.1484 84.6584L31.2797 83.4491L23.2344 75.9228L22.1031 77.1322ZM30.729 83.2259C30.6331 83.2241 30.5369 83.2257 30.4606 83.2266C30.3786 83.2276 30.3137 83.2281 30.2536 83.2262L30.2012 84.8813C30.3018 84.8845 30.3999 84.8835 30.4809 84.8825C30.5675 84.8814 30.6342 84.8804 30.6991 84.8816L30.729 83.2259ZM30.2537 83.2262C24.2847 83.0371 18.3911 81.2932 13.6202 78.14L12.7072 79.5216C17.7592 82.8605 23.9572 84.6836 30.2012 84.8813L30.2537 83.2262ZM13.3619 79.6347L22.8346 77.299L22.4381 75.6911L12.9655 78.0269L13.3619 79.6347ZM40.1047 77.3681L49.3179 79.4119L49.6765 77.7952L40.4634 75.7514L40.1047 77.3681ZM49.0173 77.9287C44.336 81.2579 38.542 83.0042 32.6294 83.2261L32.6916 84.881C38.8781 84.6488 44.9957 82.8208 49.977 79.2783L49.0173 77.9287ZM33.2409 84.644L40.8645 77.1502L39.7036 75.9693L32.0801 83.4631L33.2409 84.644Z" fill="#D2AB8B"/>
</svg>
