<svg width="82" height="85" viewBox="0 0 82 85" fill="none" xmlns="http://www.w3.org/2000/svg">
<path fill-rule="evenodd" clip-rule="evenodd" d="M13.4204 1.39209L13.258 1.52203L1.62877 13.1512L1.46635 13.3137V13.5411L1.3689 70.5827V70.7776L1.53132 70.94L14.3949 83.8036L14.5573 83.9336H14.7522H67.3111H67.506L67.6684 83.8036L80.6945 70.7776L80.8569 70.6152V70.4203V13.2162V12.9888L80.662 12.8264L67.3111 1.52203L67.1487 1.39209H66.9538H13.6153H13.4204ZM14.6555 2.43185H66.11C64.6983 5.49667 62.9217 8.17226 60.8476 10.4229H20.4052C18.2545 8.19757 16.3173 5.53245 14.6555 2.43185ZM13.6155 2.65907C15.2456 5.74779 17.1162 8.44943 19.2352 10.7151L13.1932 16.7246C9.7501 15.8098 6.3002 14.7177 2.79833 13.4762L13.6155 2.65907ZM67.1163 2.72375L79.5901 13.281C79.5575 13.3035 79.5252 13.3235 79.4927 13.346C75.6149 14.4514 71.9226 15.4176 68.3832 16.237L62.0488 10.6498C64.0422 8.38937 65.7502 5.72819 67.1163 2.72375ZM21.4445 11.4622H59.8404C54.7243 16.4794 48.1323 19.1692 41.3896 19.3233C34.4062 19.4829 27.2656 16.9572 21.4445 11.4622ZM61.7577 11.7865L67.1501 16.5291C65.3135 16.9418 63.513 17.3285 61.7577 17.666V11.7865ZM19.526 11.9167L19.6235 18.2185C17.8722 17.8686 16.1325 17.4904 14.3936 17.0491L19.526 11.9167ZM20.568 12.0468C25.3033 16.5698 30.9229 19.2142 36.6475 20.0704C31.0863 19.9739 25.8237 19.3875 20.6654 18.4137L20.568 12.0468ZM60.7182 12.0792V17.8613C55.7999 18.7734 51.1701 19.3657 46.7826 19.7129C51.9124 18.5822 56.7608 16.0144 60.7182 12.0792ZM79.816 14.4176V69.2504C77.2181 67.7276 74.5682 65.721 72.1498 63.3058V20.687C74.2906 18.5834 76.8466 16.4896 79.816 14.4176ZM2.50442 14.9699C5.48934 16.8274 8.03559 18.7962 10.1706 20.8495L10.0732 63.2734C7.76562 65.5184 5.17532 67.3906 2.40697 68.7307L2.50442 14.9699ZM77.1222 15.0677C75.2275 16.498 73.5102 17.934 71.9897 19.3881L71.9572 19.3556L69.3585 17.0493C71.8608 16.4608 74.4592 15.7956 77.1222 15.0677ZM4.87803 15.295C7.38666 16.1375 9.89321 16.8646 12.3818 17.5363L10.3028 19.6153C8.69674 18.1239 6.912 16.6777 4.87803 15.295ZM68.0921 17.3739L71.1131 20.005V20.2649C65.8331 25.5819 62.914 31.004 61.7577 36.247V18.6732C63.8167 18.2807 65.9236 17.869 68.0921 17.3739ZM13.5498 17.8614C15.5642 18.3822 17.5923 18.8586 19.6243 19.2582L19.8516 34.9804C18.5947 29.9905 15.8259 25.0211 11.2109 20.4601V20.2003L13.5498 17.8614ZM60.7176 18.8681V64.1182C54.1024 63.0305 47.3036 62.5513 40.5451 62.6564C34.0147 62.7579 27.5414 63.4009 21.2822 64.4755L20.665 19.4528C32.6447 21.6767 45.2178 21.7169 60.7176 18.8681ZM71.1106 21.7597V62.2021C67.1697 57.9595 63.9652 52.6603 62.7297 46.8372C61.0841 39.0806 62.8784 30.3852 71.1106 21.7597ZM11.2114 21.889C18.3623 29.3182 20.4596 37.678 19.3648 45.4074C18.4652 51.7591 15.3846 57.681 11.1139 62.234L11.2114 21.889ZM61.7577 47.194C63.1455 53.584 66.7445 59.3118 71.1131 63.7608V64.0206L69.229 65.9047C66.7737 65.2707 64.2817 64.7223 61.7577 64.2805V47.194ZM20.0145 47.7139L20.2419 64.6705C17.8341 65.1049 15.4517 65.6005 13.1279 66.1647L11.1139 64.1507V63.7609C15.4286 59.4609 18.6784 53.8466 20.0145 47.7139ZM46.1648 63.7936C51.0525 63.9474 55.9441 64.3971 60.7176 65.1904V73.019C56.1711 68.2097 51.2324 65.1014 46.1648 63.7936ZM34.9908 63.9238C30.3341 65.2676 25.7408 68.2551 21.4126 72.9543L21.3151 65.5155C25.7705 64.7479 30.3683 64.205 34.9908 63.9238ZM41.5529 64.1185C47.9245 64.3561 54.2707 67.7021 60.0687 73.8637H21.9976C28.2421 66.9737 34.9458 63.8721 41.5529 64.1185ZM71.9886 64.6054C73.2544 65.8204 74.58 66.9247 75.9192 67.9188C74.0975 67.2885 72.2418 66.7408 70.3644 66.2296L71.9886 64.6054ZM10.1712 64.7033L10.2362 64.7358L11.9578 66.4574C9.67187 67.0372 7.44406 67.6758 5.26615 68.3739C6.99462 67.323 8.64445 66.1063 10.1712 64.7033ZM61.7577 65.3526C63.9955 65.7486 66.2027 66.2015 68.3845 66.7494L61.7577 73.4086V65.3526ZM20.2748 65.71L20.3723 73.4087L14.0054 67.0418C16.0696 66.5533 18.1442 66.0959 20.2748 65.71ZM69.52 67.0741C72.9724 67.989 76.3457 69.0654 79.59 70.3874L67.7334 82.2765C65.9343 79.3863 64.0542 76.7812 62.0812 74.5129L69.52 67.0741ZM12.8015 67.3021L20.0454 74.546C18.1298 76.8216 16.276 79.4244 14.4907 82.4071L2.47165 70.3881C5.76701 69.2163 9.22565 68.188 12.8015 67.3021ZM21.0874 74.9029H61.01C63.0615 77.2159 65.0478 79.873 66.9221 82.8939H15.4027C17.2367 79.8324 19.1385 77.1874 21.0874 74.9029Z" fill="#57371C"/>
<path d="M13.4204 1.39209V0.56409H13.13L12.9032 0.745531L13.4204 1.39209ZM13.258 1.52203L12.7407 0.875466L12.7049 0.904114L12.6725 0.936541L13.258 1.52203ZM1.62877 13.1512L1.04328 12.5658L1.04328 12.5658L1.62877 13.1512ZM1.46635 13.3137L0.880862 12.7282L0.638348 12.9707V13.3137H1.46635ZM1.46635 13.5411L2.29435 13.5425V13.5411H1.46635ZM1.3689 70.5827L0.540896 70.5813V70.5827H1.3689ZM1.3689 70.7776H0.540896V71.1206L0.783411 71.3631L1.3689 70.7776ZM1.53132 70.94L0.94583 71.5255H0.945831L1.53132 70.94ZM14.3949 83.8036L13.8094 84.3891L13.8419 84.4215L13.8777 84.4502L14.3949 83.8036ZM14.5573 83.9336L14.0401 84.5801L14.2669 84.7616H14.5573V83.9336ZM67.506 83.9336V84.7616H67.7965L68.0233 84.5801L67.506 83.9336ZM67.6684 83.8036L68.1857 84.4502L68.2215 84.4215L68.2539 84.3891L67.6684 83.8036ZM80.8569 70.6152L81.4424 71.2007L81.6849 70.9582V70.6152H80.8569ZM80.8569 12.9888H81.6849V12.601L81.387 12.3527L80.8569 12.9888ZM80.662 12.8264L80.1269 13.4583L80.1319 13.4625L80.662 12.8264ZM67.3111 1.52203L67.8462 0.890116L67.8374 0.882667L67.8284 0.875465L67.3111 1.52203ZM67.1487 1.39209L67.666 0.745529L67.4392 0.56409H67.1487V1.39209ZM14.6555 2.43185V1.60385H13.2724L13.9258 2.82298L14.6555 2.43185ZM66.11 2.43185L66.862 2.77825L67.403 1.60385H66.11V2.43185ZM60.8476 10.4229V11.2509H61.2105L61.4565 10.984L60.8476 10.4229ZM20.4052 10.4229L19.8098 10.9983L20.0539 11.2509H20.4052V10.4229ZM13.6155 2.65907L14.3477 2.27259L13.8238 1.2798L13.03 2.07358L13.6155 2.65907ZM19.2352 10.7151L19.8191 11.3021L20.3883 10.7359L19.8399 10.1495L19.2352 10.7151ZM13.1932 16.7246L12.9806 17.5248L13.44 17.6469L13.7771 17.3116L13.1932 16.7246ZM2.79833 13.4762L2.21284 12.8907L1.28528 13.8183L2.52165 14.2566L2.79833 13.4762ZM67.1163 2.72375L67.6512 2.09173L66.8157 1.38455L66.3626 2.38103L67.1163 2.72375ZM79.5901 13.281L80.0599 13.9629L80.9516 13.3485L80.125 12.649L79.5901 13.281ZM79.4927 13.346L79.7197 14.1423L79.8511 14.1048L79.9635 14.0271L79.4927 13.346ZM68.3832 16.237L67.8355 16.858L68.155 17.1398L68.57 17.0437L68.3832 16.237ZM62.0488 10.6498L61.4278 10.1022L60.8802 10.7231L61.5011 11.2708L62.0488 10.6498ZM21.4445 11.4622V10.6342H19.3611L20.8761 12.0643L21.4445 11.4622ZM59.8404 11.4622L60.4202 12.0534L61.8673 10.6342H59.8404V11.4622ZM41.3896 19.3233L41.4085 20.1511L41.3896 19.3233ZM61.7577 11.7865L62.3046 11.1647L60.9297 9.95554V11.7865H61.7577ZM67.1501 16.5291L67.3316 17.337L68.9172 16.9807L67.6969 15.9074L67.1501 16.5291ZM61.7577 17.666H60.9297V18.6685L61.9141 18.4791L61.7577 17.666ZM19.526 11.9167L20.3539 11.9039L20.3237 9.94803L18.9405 11.3312L19.526 11.9167ZM19.6235 18.2185L19.4612 19.0305L20.4672 19.2315L20.4514 18.2057L19.6235 18.2185ZM14.3936 17.0491L13.8081 16.4636L12.7783 17.4934L14.1899 17.8517L14.3936 17.0491ZM20.568 12.0468L21.1399 11.4481L19.7098 10.0821L19.7401 12.0595L20.568 12.0468ZM36.6475 20.0704L36.6331 20.8982L36.77 19.2515L36.6475 20.0704ZM20.6654 18.4137L19.8375 18.4263L19.8479 19.102L20.5118 19.2273L20.6654 18.4137ZM60.7182 12.0792H61.5462V10.0881L60.1343 11.4921L60.7182 12.0792ZM60.7182 17.8613L60.8691 18.6754L61.5462 18.5499V17.8613H60.7182ZM46.7826 19.7129L46.6044 18.9043L46.8479 20.5383L46.7826 19.7129ZM79.816 14.4176H80.644V12.8302L79.3422 13.7386L79.816 14.4176ZM79.816 69.2504L79.3973 69.9647L80.644 70.6955V69.2504H79.816ZM72.1498 63.3058H71.3218V63.6491L71.5647 63.8917L72.1498 63.3058ZM72.1498 20.687L71.5695 20.0964L71.3218 20.3398V20.687H72.1498ZM2.50442 14.9699L2.94189 14.2669L1.67912 13.4811L1.67642 14.9684L2.50442 14.9699ZM10.1706 20.8495L10.9986 20.8514L10.9994 20.4978L10.7446 20.2527L10.1706 20.8495ZM10.0732 63.2734L10.6505 63.8669L10.9004 63.6238L10.9012 63.2753L10.0732 63.2734ZM2.40697 68.7307L1.57897 68.7292L1.57657 70.0526L2.76773 69.476L2.40697 68.7307ZM77.1222 15.0677L77.621 15.7286L76.9039 14.269L77.1222 15.0677ZM71.9897 19.3881L71.4042 19.9736L71.9768 20.5461L72.562 19.9865L71.9897 19.3881ZM71.9572 19.3556L72.5427 18.7701L72.5253 18.7527L72.5069 18.7363L71.9572 19.3556ZM69.3585 17.0493L69.169 16.2433L67.6148 16.6088L68.8089 17.6685L69.3585 17.0493ZM4.87803 15.295L5.14164 14.51L4.41251 15.9797L4.87803 15.295ZM12.3818 17.5363L12.9673 18.1218L13.9792 17.1099L12.5976 16.737L12.3818 17.5363ZM10.3028 19.6153L9.73941 20.2221L10.3241 20.765L10.8883 20.2008L10.3028 19.6153ZM68.0921 17.3739L68.6359 16.7495L68.3183 16.4729L67.9078 16.5666L68.0921 17.3739ZM71.1131 20.005H71.9411V19.6282L71.6569 19.3807L71.1131 20.005ZM71.1131 20.2649L71.7006 20.8484L71.9411 20.6062V20.2649H71.1131ZM61.7577 36.247H60.9297L62.5663 36.4253L61.7577 36.247ZM61.7577 18.6732L61.6027 17.8599L60.9297 17.9881V18.6732H61.7577ZM13.5498 17.8614L13.757 17.0598L13.2989 16.9414L12.9643 17.276L13.5498 17.8614ZM19.6243 19.2582L20.4522 19.2463L20.4425 18.5753L19.784 18.4458L19.6243 19.2582ZM19.8516 34.9804L19.0487 35.1827L20.6796 34.9685L19.8516 34.9804ZM11.2109 20.4601H10.3829V20.806L10.6289 21.0491L11.2109 20.4601ZM11.2109 20.2003L10.6255 19.6148L10.3829 19.8573V20.2003H11.2109ZM60.7176 18.8681H61.5456V17.8741L60.5679 18.0538L60.7176 18.8681ZM60.7176 64.1182L60.5833 64.9352L61.5456 65.0934V64.1182H60.7176ZM40.5451 62.6564L40.558 63.4843H40.558L40.5451 62.6564ZM21.2822 64.4755L20.4543 64.4868L20.4676 65.4555L21.4223 65.2915L21.2822 64.4755ZM20.665 19.4528L20.8161 18.6388L19.8232 18.4544L19.8371 19.4642L20.665 19.4528ZM71.1106 21.7597H71.9386V19.6928L70.5116 21.188L71.1106 21.7597ZM71.1106 62.2021L70.5039 62.7656L71.9386 64.3101V62.2021H71.1106ZM62.7297 46.8372L61.9198 47.0091L62.7297 46.8372ZM11.2114 21.889L11.8079 21.3148L10.3883 19.84L10.3834 21.887L11.2114 21.889ZM19.3648 45.4074L20.1846 45.5235L19.3648 45.4074ZM11.1139 62.234L10.2859 62.232L10.2808 64.3324L11.7178 62.8005L11.1139 62.234ZM61.7577 47.194L62.5669 47.0183L60.9297 47.194H61.7577ZM71.1131 63.7608H71.9411V63.4222L71.7039 63.1806L71.1131 63.7608ZM71.1131 64.0206L71.6986 64.6061L71.9411 64.3636V64.0206H71.1131ZM69.229 65.9047L69.022 66.7064L69.48 66.8247L69.8145 66.4902L69.229 65.9047ZM61.7577 64.2805H60.9297V64.9762L61.615 65.0961L61.7577 64.2805ZM20.0145 47.7139L20.8424 47.7028L19.2055 47.5377L20.0145 47.7139ZM20.2419 64.6705L20.3889 65.4853L21.0792 65.3608L21.0698 64.6594L20.2419 64.6705ZM13.1279 66.1647L12.5424 66.7502L12.8713 67.0791L13.3233 66.9694L13.1279 66.1647ZM11.1139 64.1507H10.2859V64.4937L10.5284 64.7362L11.1139 64.1507ZM11.1139 63.7609L10.5294 63.1745L10.2859 63.4171V63.7609H11.1139ZM46.1648 63.7936L46.1909 62.966L45.9579 64.5953L46.1648 63.7936ZM60.7176 65.1904H61.5456V64.4887L60.8533 64.3736L60.7176 65.1904ZM60.7176 73.019L60.1159 73.5878L61.5456 75.1002V73.019H60.7176ZM34.9908 63.9238L35.2204 64.7193L34.9405 63.0973L34.9908 63.9238ZM21.4126 72.9543L20.5846 72.9651L20.6119 75.0458L22.0216 73.5153L21.4126 72.9543ZM21.3151 65.5155L21.1745 64.6995L20.4779 64.8195L20.4872 65.5263L21.3151 65.5155ZM41.5529 64.1185L41.522 64.9459L41.5529 64.1185ZM60.0687 73.8637V74.6917H61.9847L60.6717 73.2962L60.0687 73.8637ZM21.9976 73.8637L21.3841 73.3076L20.1297 74.6917H21.9976V73.8637ZM71.9886 64.6054L72.562 64.0081L71.9767 63.4463L71.4031 64.02L71.9886 64.6054ZM75.9192 67.9188L75.6484 68.7013L76.4127 67.2539L75.9192 67.9188ZM70.3644 66.2296L69.7789 65.6441L68.7695 66.6535L70.1469 67.0285L70.3644 66.2296ZM10.1712 64.7033L10.5415 63.9627L10.0311 63.7075L9.61097 64.0936L10.1712 64.7033ZM10.2362 64.7358L10.8217 64.1503L10.7267 64.0553L10.6065 63.9952L10.2362 64.7358ZM11.9578 66.4574L12.1614 67.26L13.5733 66.9019L12.5433 65.8719L11.9578 66.4574ZM5.26615 68.3739L4.836 67.6665L5.5189 69.1624L5.26615 68.3739ZM61.7577 65.3526L61.902 64.5372L60.9297 64.3652V65.3526H61.7577ZM68.3845 66.7494L68.9714 67.3334L69.9987 66.3011L68.5861 65.9463L68.3845 66.7494ZM61.7577 73.4086H60.9297V75.4145L62.3447 73.9926L61.7577 73.4086ZM20.2748 65.71L21.1028 65.6995L21.0904 64.7208L20.1273 64.8952L20.2748 65.71ZM20.3723 73.4087L19.7868 73.9941L21.226 75.4333L21.2002 73.3982L20.3723 73.4087ZM14.0054 67.0418L13.8147 66.2361L12.3706 66.5779L13.42 67.6273L14.0054 67.0418ZM69.52 67.0741L69.7321 66.2737L69.2715 66.1516L68.9345 66.4886L69.52 67.0741ZM79.59 70.3874L80.1763 70.9721L81.0555 70.0905L79.9025 69.6207L79.59 70.3874ZM67.7334 82.2765L67.0304 82.7141L67.5823 83.6006L68.3197 82.8612L67.7334 82.2765ZM62.0812 74.5129L61.4957 73.9274L60.9496 74.4735L61.4565 75.0563L62.0812 74.5129ZM12.8015 67.3021L13.387 66.7166L13.0563 66.3859L12.6024 66.4984L12.8015 67.3021ZM20.0454 74.546L20.6789 75.0792L21.1683 74.4979L20.6309 73.9605L20.0454 74.546ZM14.4907 82.4071L13.9052 82.9926L14.6559 83.7433L15.2011 82.8323L14.4907 82.4071ZM2.47165 70.3881L2.19424 69.6079L0.959574 70.047L1.88617 70.9735L2.47165 70.3881ZM21.0874 74.9029V74.0749H20.7054L20.4574 74.3655L21.0874 74.9029ZM61.01 74.9029L61.6295 74.3535L61.3824 74.0749H61.01V74.9029ZM66.9221 82.8939V83.7219H68.4102L67.6257 82.4574L66.9221 82.8939ZM15.4027 82.8939L14.6924 82.4684L13.9415 83.7219H15.4027V82.8939ZM12.9032 0.745531L12.7407 0.875466L13.7752 2.16858L13.9377 2.03865L12.9032 0.745531ZM12.6725 0.936541L1.04328 12.5658L2.21425 13.7367L13.8435 2.10751L12.6725 0.936541ZM1.04328 12.5658L0.880862 12.7282L2.05183 13.8991L2.21425 13.7367L1.04328 12.5658ZM0.638348 13.3137V13.5411H2.29435V13.3137H0.638348ZM0.638349 13.5396L0.540898 70.5813L2.1969 70.5841L2.29435 13.5425L0.638349 13.5396ZM0.540896 70.5827V70.7776H2.1969V70.5827H0.540896ZM0.783411 71.3631L0.94583 71.5255L2.1168 70.3545L1.95438 70.1921L0.783411 71.3631ZM0.945831 71.5255L13.8094 84.3891L14.9804 83.2181L2.1168 70.3545L0.945831 71.5255ZM13.8777 84.4502L14.0401 84.5801L15.0746 83.287L14.9122 83.1571L13.8777 84.4502ZM14.5573 84.7616H14.7522V83.1056H14.5573V84.7616ZM14.7522 84.7616H67.3111V83.1056H14.7522V84.7616ZM67.3111 84.7616H67.506V83.1056H67.3111V84.7616ZM68.0233 84.5801L68.1857 84.4502L67.1512 83.1571L66.9888 83.287L68.0233 84.5801ZM68.2539 84.3891L81.28 71.3631L80.109 70.1921L67.083 83.2181L68.2539 84.3891ZM81.28 71.3631L81.4424 71.2007L80.2714 70.0297L80.109 70.1921L81.28 71.3631ZM81.6849 70.6152V70.4203H80.0289V70.6152H81.6849ZM81.6849 70.4203V13.2162H80.0289V70.4203H81.6849ZM81.6849 13.2162V12.9888H80.0289V13.2162H81.6849ZM81.387 12.3527L81.1921 12.1903L80.1319 13.4625L80.3268 13.6249L81.387 12.3527ZM81.197 12.1945L67.8462 0.890116L66.7761 2.15393L80.1269 13.4583L81.197 12.1945ZM67.8284 0.875465L67.666 0.745529L66.6315 2.03865L66.7939 2.16859L67.8284 0.875465ZM67.1487 0.56409H66.9538V2.22009H67.1487V0.56409ZM66.9538 0.56409H13.6153V2.22009H66.9538V0.56409ZM13.6153 0.56409H13.4204V2.22009H13.6153V0.56409ZM14.6555 3.25985H66.11V1.60385H14.6555V3.25985ZM65.3579 2.08546C63.9802 5.07661 62.2506 7.67868 60.2387 9.86176L61.4565 10.984C63.5928 8.66584 65.4165 5.91673 66.862 2.77825L65.3579 2.08546ZM60.8476 9.59488H20.4052V11.2509H60.8476V9.59488ZM21.0006 9.84747C18.907 7.68122 17.0138 5.07924 15.3853 2.04072L13.9258 2.82298C15.6208 5.98566 17.6021 8.71392 19.8098 10.9983L21.0006 9.84747ZM12.8832 3.04554C14.542 6.18855 16.4535 8.95299 18.6304 11.2806L19.8399 10.1495C17.7789 7.94587 15.9492 5.30702 14.3477 2.27259L12.8832 3.04554ZM18.6513 10.128L12.6093 16.1375L13.7771 17.3116L19.8191 11.3021L18.6513 10.128ZM13.4058 15.9243C9.98801 15.0163 6.55973 13.9312 3.075 12.6958L2.52165 14.2566C6.04067 15.5042 9.51218 16.6033 12.9806 17.5248L13.4058 15.9243ZM3.38381 14.0617L14.2009 3.24455L13.03 2.07358L2.21284 12.8907L3.38381 14.0617ZM66.5814 3.35578L79.0552 13.913L80.125 12.649L67.6512 2.09173L66.5814 3.35578ZM79.1204 12.5992C79.1134 12.6039 79.1055 12.6092 79.0878 12.6208C79.0726 12.6307 79.0479 12.6468 79.0218 12.6649L79.9635 14.0271C79.97 14.0226 79.9777 14.0175 79.995 14.0062C80.0097 13.9965 80.0342 13.9806 80.0599 13.9629L79.1204 12.5992ZM79.2657 12.5497C75.3986 13.6521 71.7199 14.6146 68.1964 15.4304L68.57 17.0437C72.1252 16.2205 75.8311 15.2508 79.7197 14.1423L79.2657 12.5497ZM68.9309 15.6161L62.5966 10.0289L61.5011 11.2708L67.8355 16.858L68.9309 15.6161ZM62.6699 11.1975C64.7213 8.87118 66.4726 6.13978 67.8701 3.06648L66.3626 2.38103C65.0278 5.3166 63.3631 7.90757 61.4278 10.1022L62.6699 11.1975ZM21.4445 12.2902H59.8404V10.6342H21.4445V12.2902ZM59.2607 10.8711C54.2951 15.7406 47.9038 18.3462 41.3707 18.4955L41.4085 20.1511C48.3609 19.9922 55.1535 17.2181 60.4202 12.0534L59.2607 10.8711ZM41.3707 18.4955C34.6042 18.6502 27.6749 16.205 22.0129 10.8601L20.8761 12.0643C26.8563 17.7094 34.2081 20.3157 41.4085 20.1511L41.3707 18.4955ZM61.2109 12.4082L66.6032 17.1509L67.6969 15.9074L62.3046 11.1647L61.2109 12.4082ZM66.9685 15.7213C65.1365 16.1329 63.3451 16.5176 61.6014 16.853L61.9141 18.4791C63.681 18.1393 65.4905 17.7507 67.3316 17.337L66.9685 15.7213ZM62.5857 17.666V11.7865H60.9297V17.666H62.5857ZM18.6981 11.9295L18.7956 18.2313L20.4514 18.2057L20.3539 11.9039L18.6981 11.9295ZM19.7857 17.4066C18.0432 17.0584 16.3182 16.6833 14.5972 16.2465L14.1899 17.8517C15.9469 18.2976 17.7012 18.6788 19.4612 19.0305L19.7857 17.4066ZM14.979 17.6346L20.1115 12.5021L18.9405 11.3312L13.8081 16.4636L14.979 17.6346ZM19.9961 12.6456C24.8537 17.2854 30.6299 20.0075 36.525 20.8892L36.77 19.2515C31.216 18.4208 25.7529 15.8543 21.1399 11.4481L19.9961 12.6456ZM36.6619 19.2425C31.1509 19.1469 25.935 18.5659 20.819 17.6L20.5118 19.2273C25.7125 20.2092 31.0217 20.8009 36.6331 20.8982L36.6619 19.2425ZM21.4933 18.401L21.3959 12.0342L19.7401 12.0595L19.8375 18.4263L21.4933 18.401ZM59.8902 12.0792V17.8613H61.5462V12.0792H59.8902ZM60.5672 17.0472C55.6775 17.954 51.0764 18.5426 46.7173 18.8875L46.8479 20.5383C51.2639 20.1889 55.9222 19.5929 60.8691 18.6754L60.5672 17.0472ZM46.9608 20.5215C52.2416 19.3575 57.2314 16.7142 61.302 12.6663L60.1343 11.4921C56.2902 15.3146 51.5832 17.8069 46.6044 18.9043L46.9608 20.5215ZM78.988 14.4176V69.2504H80.644V14.4176H78.988ZM80.2347 68.5361C77.6967 67.0484 75.1029 65.0848 72.7349 62.72L71.5647 63.8917C74.0335 66.3572 76.7395 68.4068 79.3973 69.9647L80.2347 68.5361ZM72.9778 63.3058V20.687H71.3218V63.3058H72.9778ZM72.7301 21.2776C74.8325 19.2117 77.3515 17.147 80.2898 15.0967L79.3422 13.7386C76.3418 15.8323 73.7488 17.955 71.5695 20.0964L72.7301 21.2776ZM2.06694 15.6729C5.00865 17.5035 7.50799 19.4375 9.59665 21.4463L10.7446 20.2527C8.5632 18.1548 5.97004 16.1513 2.94189 14.2669L2.06694 15.6729ZM9.34261 20.8476L9.24516 63.2715L10.9012 63.2753L10.9986 20.8514L9.34261 20.8476ZM9.49578 62.6799C7.24423 64.8704 4.72565 66.6884 2.04621 67.9854L2.76773 69.476C5.62499 68.0929 8.28701 66.1663 10.6505 63.8669L9.49578 62.6799ZM3.23497 68.7322L3.33242 14.9714L1.67642 14.9684L1.57897 68.7292L3.23497 68.7322ZM76.6233 14.4069C74.7085 15.8524 72.9657 17.309 71.4174 18.7897L72.562 19.9865C74.0547 18.559 75.7465 17.1437 77.621 15.7286L76.6233 14.4069ZM72.5752 18.8026L72.5427 18.7701L71.3717 19.9411L71.4042 19.9736L72.5752 18.8026ZM72.5069 18.7363L69.9081 16.43L68.8089 17.6685L71.4076 19.9749L72.5069 18.7363ZM69.5481 17.8553C72.0612 17.2642 74.6693 16.5966 77.3405 15.8664L76.9039 14.269C74.2492 14.9946 71.6604 15.6573 69.169 16.2433L69.5481 17.8553ZM4.61441 16.0799C7.14412 16.9295 9.6678 17.6614 12.166 18.3357L12.5976 16.737C10.1186 16.0678 7.62921 15.3455 5.14164 14.51L4.61441 16.0799ZM11.7963 16.9509L9.71735 19.0298L10.8883 20.2008L12.9673 18.1218L11.7963 16.9509ZM10.8663 19.0086C9.23111 17.4902 7.41381 16.0177 5.34355 14.6102L4.41251 15.9797C6.41019 17.3378 8.16236 18.7576 9.73941 20.2221L10.8663 19.0086ZM67.5483 17.9982L70.5693 20.6294L71.6569 19.3807L68.6359 16.7495L67.5483 17.9982ZM70.2851 20.005V20.2649H71.9411V20.005H70.2851ZM70.5256 19.6815C65.1528 25.0919 62.1442 30.6495 60.9492 36.0687L62.5663 36.4253C63.6837 31.3585 66.5134 26.0719 71.7006 20.8484L70.5256 19.6815ZM62.5857 36.247V18.6732H60.9297V36.247H62.5857ZM61.9128 19.4866C63.9733 19.0938 66.0926 18.6798 68.2764 18.1811L67.9078 16.5666C65.7547 17.0583 63.6601 17.4676 61.6027 17.8599L61.9128 19.4866ZM13.3425 18.6631C15.3686 19.1868 17.4129 19.6672 19.4645 20.0707L19.784 18.4458C17.7716 18.0501 15.7599 17.5775 13.757 17.0598L13.3425 18.6631ZM18.7963 19.2702L19.0237 34.9924L20.6796 34.9685L20.4522 19.2463L18.7963 19.2702ZM20.6546 34.7782C19.3578 29.63 16.5067 24.5298 11.793 19.8712L10.6289 21.0491C15.1452 25.5124 17.8316 30.3509 19.0487 35.1827L20.6546 34.7782ZM12.0389 20.4601V20.2003H10.3829V20.4601H12.0389ZM11.7964 20.7858L14.1353 18.4469L12.9643 17.276L10.6255 19.6148L11.7964 20.7858ZM59.8896 18.8681V64.1182H61.5456V18.8681H59.8896ZM60.8519 63.3011C54.1861 62.2052 47.3379 61.7226 40.5323 61.8285L40.558 63.4843C47.2692 63.3799 54.0188 63.8559 60.5833 64.9352L60.8519 63.3011ZM40.5323 61.8285C33.9563 61.9307 27.4404 62.5781 21.1421 63.6594L21.4223 65.2915C27.6423 64.2236 34.073 63.5851 40.558 63.4843L40.5323 61.8285ZM22.1101 64.4641L21.4929 19.4415L19.8371 19.4642L20.4543 64.4868L22.1101 64.4641ZM20.5139 20.2669C32.605 22.5115 45.2808 22.5471 60.8673 19.6825L60.5679 18.0538C45.1548 20.8866 32.6844 20.842 20.8161 18.6388L20.5139 20.2669ZM70.2826 21.7597V62.2021H71.9386V21.7597H70.2826ZM71.7172 61.6386C67.8518 57.4772 64.7369 52.308 63.5397 46.6654L61.9198 47.0091C63.1935 53.0127 66.4877 58.4418 70.5039 62.7656L71.7172 61.6386ZM63.5397 46.6654C61.9549 39.1956 63.6521 30.7738 71.7096 22.3313L70.5116 21.188C62.1048 29.9965 60.2132 38.9656 61.9198 47.0091L63.5397 46.6654ZM10.6148 22.4633C17.5877 29.7074 19.6043 37.812 18.545 45.2912L20.1846 45.5235C21.3148 37.5439 19.137 28.929 11.8079 21.3148L10.6148 22.4633ZM18.545 45.2912C17.6716 51.4573 14.6764 57.2258 10.51 61.6675L11.7178 62.8005C16.0929 58.1362 19.2587 52.0608 20.1846 45.5235L18.545 45.2912ZM11.9419 62.236L12.0394 21.891L10.3834 21.887L10.2859 62.232L11.9419 62.236ZM60.9486 47.3697C62.3768 53.9457 66.0708 59.8075 70.5223 64.3409L71.7039 63.1806C67.4182 58.8161 63.9143 53.2224 62.5669 47.0183L60.9486 47.3697ZM70.2851 63.7608V64.0206H71.9411V63.7608H70.2851ZM70.5276 63.4351L68.6435 65.3192L69.8145 66.4902L71.6986 64.6061L70.5276 63.4351ZM69.436 65.103C66.9614 64.464 64.4479 63.9108 61.9005 63.4649L61.615 65.0961C64.1155 65.5338 66.5861 66.0774 69.022 66.7064L69.436 65.103ZM62.5857 64.2805V47.194H60.9297V64.2805H62.5857ZM19.1866 47.725L19.4139 64.6816L21.0698 64.6594L20.8424 47.7028L19.1866 47.725ZM20.0949 63.8556C17.6729 64.2926 15.2742 64.7916 12.9325 65.3601L13.3233 66.9694C15.6292 66.4095 17.9954 65.9172 20.3889 65.4853L20.0949 63.8556ZM13.7134 65.5793L11.6994 63.5653L10.5284 64.7362L12.5424 66.7502L13.7134 65.5793ZM11.9419 64.1507V63.7609H10.2859V64.1507H11.9419ZM11.6984 64.3474C16.1172 59.9436 19.4511 54.1898 20.8235 47.8902L19.2055 47.5377C17.9058 53.5034 14.74 58.9781 10.5294 63.1745L11.6984 64.3474ZM46.1388 64.6212C50.9935 64.7739 55.8483 65.2206 60.5819 66.0072L60.8533 64.3736C56.04 63.5737 51.1115 63.1208 46.1909 62.966L46.1388 64.6212ZM59.8896 65.1904V73.019H61.5456V65.1904H59.8896ZM61.3193 72.4502C56.6917 67.555 51.623 64.3471 46.3717 62.9919L45.9579 64.5953C50.8418 65.8557 55.6506 68.8643 60.1159 73.5878L61.3193 72.4502ZM34.7613 63.1283C29.9271 64.5232 25.2093 67.61 20.8035 72.3933L22.0216 73.5153C26.2722 68.9003 30.7411 66.0119 35.2204 64.7193L34.7613 63.1283ZM22.2405 72.9435L22.1431 65.5047L20.4872 65.5263L20.5846 72.9651L22.2405 72.9435ZM21.4557 66.3315C25.8818 65.5689 30.4495 65.0296 35.0411 64.7503L34.9405 63.0973C30.2871 63.3804 25.6591 63.9269 21.1745 64.6995L21.4557 66.3315ZM41.522 64.9459C47.6119 65.173 53.766 68.3739 59.4657 74.4311L60.6717 73.2962C54.7755 67.0303 48.2372 63.5392 41.5837 63.2911L41.522 64.9459ZM60.0687 73.0357H21.9976V74.6917H60.0687V73.0357ZM22.6111 74.4197C28.7403 67.657 35.2237 64.711 41.522 64.9459L41.5837 63.2911C34.6679 63.0331 27.7438 66.2905 21.3841 73.3076L22.6111 74.4197ZM71.4152 65.2028C72.7084 66.444 74.061 67.5706 75.4256 68.5836L76.4127 67.2539C75.099 66.2788 73.8004 65.1968 72.562 64.0081L71.4152 65.2028ZM76.1899 67.1363C74.3447 66.4979 72.4698 65.9447 70.5819 65.4307L70.1469 67.0285C72.0137 67.5368 73.8503 68.0791 75.6484 68.7013L76.1899 67.1363ZM70.9499 66.8151L72.5741 65.1909L71.4031 64.02L69.7789 65.6441L70.9499 66.8151ZM9.80092 65.4439L9.86589 65.4763L10.6065 63.9952L10.5415 63.9627L9.80092 65.4439ZM9.6507 65.3212L11.3723 67.0429L12.5433 65.8719L10.8217 64.1503L9.6507 65.3212ZM11.7543 65.6548C9.45209 66.2387 7.20788 66.882 5.01341 67.5855L5.5189 69.1624C7.68025 68.4696 9.89165 67.8357 12.1614 67.26L11.7543 65.6548ZM5.69631 69.0814C7.46734 68.0047 9.16143 66.7557 10.7315 65.313L9.61097 64.0936C8.12748 65.4568 6.52189 66.6414 4.836 67.6665L5.69631 69.0814ZM61.6135 66.1679C63.8367 66.5614 66.0242 67.0104 68.1828 67.5524L68.5861 65.9463C66.3812 65.3926 64.1542 64.9358 61.902 64.5372L61.6135 66.1679ZM67.7975 66.1653L61.1708 72.8245L62.3447 73.9926L68.9714 67.3334L67.7975 66.1653ZM62.5857 73.4086V65.3526H60.9297V73.4086H62.5857ZM19.4469 65.7205L19.5443 73.4191L21.2002 73.3982L21.1028 65.6995L19.4469 65.7205ZM20.9578 72.8232L14.5909 66.4563L13.42 67.6273L19.7868 73.9941L20.9578 72.8232ZM14.1961 67.8475C16.2524 67.3609 18.3115 66.907 20.4224 66.5247L20.1273 64.8952C17.9769 65.2847 15.8867 65.7457 13.8147 66.2361L14.1961 67.8475ZM69.3079 67.8744C72.7345 68.7825 76.0731 69.8484 79.2775 71.1542L79.9025 69.6207C76.6184 68.2824 73.2103 67.1955 69.7321 66.2737L69.3079 67.8744ZM79.0037 69.8027L67.1471 81.6918L68.3197 82.8612L80.1763 70.9721L79.0037 69.8027ZM68.4363 81.839C66.6189 78.9195 64.7134 76.2774 62.7059 73.9695L61.4565 75.0563C63.3951 77.285 65.2496 79.8532 67.0304 82.7141L68.4363 81.839ZM62.6667 75.0984L70.1055 67.6596L68.9345 66.4886L61.4957 73.9274L62.6667 75.0984ZM12.216 67.8876L19.4599 75.1315L20.6309 73.9605L13.387 66.7166L12.216 67.8876ZM19.412 74.0128C17.4655 76.3251 15.5862 78.9645 13.7802 81.9818L15.2011 82.8323C16.9657 79.8843 18.7942 77.318 20.6789 75.0792L19.412 74.0128ZM15.0762 81.8216L3.05714 69.8026L1.88617 70.9735L13.9052 82.9926L15.0762 81.8216ZM2.74907 71.1682C6.01641 70.0064 9.44873 68.9857 13.0006 68.1058L12.6024 66.4984C9.00256 67.3902 5.51761 68.4262 2.19424 69.6079L2.74907 71.1682ZM21.0874 75.7309H61.01V74.0749H21.0874V75.7309ZM60.3906 75.4523C62.4092 77.7283 64.3677 80.3474 66.2185 83.3304L67.6257 82.4574C65.7279 79.3986 63.7137 76.7035 61.6295 74.3535L60.3906 75.4523ZM66.9221 82.0659H15.4027V83.7219H66.9221V82.0659ZM16.113 83.3194C17.9253 80.2941 19.8006 77.687 21.7173 75.4403L20.4574 74.3655C18.4763 76.6878 16.548 79.3708 14.6924 82.4684L16.113 83.3194Z" fill="#D2AB8B"/>
</svg>
