<svg width="82" height="82" viewBox="0 0 82 82" fill="none" xmlns="http://www.w3.org/2000/svg">
<path fill-rule="evenodd" clip-rule="evenodd" d="M40.7369 1.01611C18.792 1.01611 0.99292 18.8151 0.99292 40.7601C0.99292 62.705 18.792 80.5041 40.7369 80.5041C62.6819 80.5041 80.4809 62.705 80.4809 40.7601C80.4809 18.8151 62.6819 1.01611 40.7369 1.01611ZM40.2087 2.03806L30.3579 14.6768L26.3308 4.79505C30.6298 3.07277 35.3087 2.10402 40.2087 2.03806ZM41.665 2.03806C46.267 2.1473 50.6678 3.06213 54.7375 4.64016L50.9892 13.8095L41.665 2.03806ZM40.9547 2.71971L50.4338 14.708L40.0564 19.1997L31.011 15.4824L40.9547 2.71971ZM55.6662 5.01207C60.3368 6.9633 64.5563 9.7978 68.0882 13.314L51.918 14.1504L55.6662 5.01207ZM25.4342 5.16732L29.3993 14.8632L13.5389 13.1595C16.9445 9.80633 20.979 7.0836 25.4342 5.16732ZM13.416 14.1193L29.834 15.916L25.745 25.426L15.0887 30.0416L13.416 14.1193ZM12.4228 14.3052L14.0646 29.8249L4.86428 26.0457C6.66089 21.6699 9.24307 17.7055 12.4228 14.3052ZM68.3075 14.3052L66.6038 30.1347L56.2263 25.8598L51.6107 15.1416L68.3075 14.3052ZM69.2678 14.5219C72.394 17.9187 74.9111 21.8815 76.6714 26.2314L67.595 29.9797L69.2678 14.5219ZM50.7425 15.637L54.8935 25.3019L41.3254 19.726L50.7425 15.637ZM30.6991 16.4424L38.7842 19.7569L27.0747 24.8372L30.6991 16.4424ZM40.0537 20.284L55.4805 26.6343L61.7069 41.1318L55.4185 55.5672L39.8369 61.8866L26.052 55.7221L19.9494 41.4106L26.5166 26.1387L40.0537 20.284ZM25.1542 26.7269L19.3924 40.1401L15.4892 30.9398L25.1542 26.7269ZM4.5226 26.9444L13.6919 30.7546L1.98245 40.4505C2.02005 35.6935 2.91895 31.1456 4.5226 26.9444ZM56.7825 27.1611L66.1067 31.0023L62.2345 39.8928L56.7825 27.1611ZM77.0128 27.1611C78.5803 31.3407 79.4686 35.8512 79.491 40.5743L67.9055 30.9093L77.0128 27.1611ZM14.5902 31.3116L18.8651 41.3483L14.838 50.7344L2.78781 41.1314L14.5902 31.3116ZM66.9739 31.4361L78.6833 41.225L67.0358 51.0138L62.7919 41.1011L66.9739 31.4361ZM2.01479 41.7821L13.9411 51.2921L4.74081 55.1023C3.09209 50.9639 2.13558 46.4805 2.01479 41.7821ZM79.4595 41.8443C79.3315 46.5411 78.3884 51.0292 76.7335 55.1646L67.9669 51.5403L79.4595 41.8443ZM62.2364 42.34L66.0776 51.2615L56.7534 55.0407L62.2364 42.34ZM19.4227 42.6497L24.7198 55.1336L15.7674 51.1065L19.4227 42.6497ZM15.4281 52.0358L25.3099 56.4656L29.4608 66.2235L14.189 68.0202L15.4281 52.0358ZM66.6034 52.1288L67.7496 67.8344L51.4555 67.2148L56.164 56.3418L66.6034 52.1288ZM14.4052 52.1903L13.1971 68.0507C9.78679 64.6093 7.0154 60.5212 5.08098 56.0005L14.4052 52.1903ZM67.6241 52.5008L76.3597 56.0632C74.5124 60.3592 71.8978 64.2603 68.7083 67.5868L67.6241 52.5008ZM54.8613 56.8995L50.5864 66.7194L41.0763 62.4755L54.8613 56.8995ZM26.6122 57.054L38.5695 62.4131L30.3295 65.7586L26.6122 57.054ZM39.806 62.9705L50.2453 67.648L41.4478 78.9548L30.7296 66.6568L39.806 62.9705ZM29.0905 67.277L25.3732 76.3534C21.2298 74.5623 17.4648 72.0575 14.2213 69.0118L29.0905 67.277ZM30.0796 67.4937L40.6119 79.513C35.5397 79.4969 30.7046 78.5111 26.2694 76.725L30.0796 67.4937ZM51.7951 68.2061L67.4386 68.8256C63.9614 72.1352 59.8754 74.8209 55.3575 76.6629L51.7951 68.2061ZM50.8667 68.4851L54.4291 77.0348C50.6308 78.4701 46.5466 79.3134 42.286 79.482L50.8667 68.4851Z" fill="#D2AB8B"/>
<path d="M40.2087 2.03806L40.8618 2.54707L41.9219 1.18693L40.1976 1.21014L40.2087 2.03806ZM30.3579 14.6768L29.5911 14.9893L30.1312 16.3146L31.011 15.1858L30.3579 14.6768ZM26.3308 4.79505L26.0229 4.02644L25.2497 4.3362L25.5641 5.10753L26.3308 4.79505ZM41.665 2.03806L41.6846 1.2103L39.9198 1.1684L41.0159 2.55218L41.665 2.03806ZM54.7375 4.64016L55.5039 4.95347L55.8229 4.173L55.0368 3.86817L54.7375 4.64016ZM50.9892 13.8095L50.3401 14.3236L51.2197 15.4339L51.7556 14.1228L50.9892 13.8095ZM40.9547 2.71971L41.6042 2.20615L40.9499 1.37866L40.3016 2.21082L40.9547 2.71971ZM50.4338 14.708L50.7627 15.4678L51.7517 15.0398L51.0833 14.1944L50.4338 14.708ZM40.0564 19.1997L39.7416 19.9655L40.0647 20.0983L40.3853 19.9596L40.0564 19.1997ZM31.011 15.4824L30.3578 14.9735L29.6876 15.8337L30.6962 16.2482L31.011 15.4824ZM55.6662 5.01207L55.9854 4.24806L55.2164 3.92681L54.9002 4.69785L55.6662 5.01207ZM68.0882 13.314L68.1309 14.1409L69.9954 14.0445L68.6723 12.7272L68.0882 13.314ZM51.918 14.1504L51.1519 13.8362L50.6562 15.0448L51.9607 14.9773L51.918 14.1504ZM25.4342 5.16732L26.2006 4.85391L25.8815 4.07359L25.107 4.4067L25.4342 5.16732ZM29.3993 14.8632L29.3109 15.6865L30.6912 15.8348L30.1657 14.5498L29.3993 14.8632ZM13.5389 13.1595L12.958 12.5695L11.7122 13.796L13.4504 13.9828L13.5389 13.1595ZM13.416 14.1193L13.506 13.2962L12.4852 13.1845L12.5925 14.2058L13.416 14.1193ZM29.834 15.916L30.5947 16.243L31.0368 15.2146L29.9241 15.0929L29.834 15.916ZM25.745 25.426L26.0741 26.1858L26.3758 26.0551L26.5056 25.7531L25.745 25.426ZM15.0887 30.0416L14.2653 30.1282L14.3831 31.2496L15.4178 30.8014L15.0887 30.0416ZM12.4228 14.3052L13.2462 14.2181L13.0556 12.4163L11.818 13.7397L12.4228 14.3052ZM14.0646 29.8249L13.75 30.5908L15.034 31.1183L14.888 29.7378L14.0646 29.8249ZM4.86428 26.0457L4.09833 25.7312L3.78389 26.497L4.54967 26.8116L4.86428 26.0457ZM68.3075 14.3052L69.1308 14.3938L69.2345 13.4298L68.2661 13.4783L68.3075 14.3052ZM66.6038 30.1347L66.2884 30.9003L67.3089 31.3207L67.427 30.2233L66.6038 30.1347ZM56.2263 25.8598L55.4659 26.1873L55.5992 26.497L55.911 26.6254L56.2263 25.8598ZM51.6107 15.1416L51.5693 14.3147L50.3788 14.3743L50.8502 15.4691L51.6107 15.1416ZM69.2678 14.5219L69.877 13.9612L68.6409 12.6182L68.4446 14.4329L69.2678 14.5219ZM76.6714 26.2314L76.9874 26.9967L77.7473 26.6829L77.4389 25.9208L76.6714 26.2314ZM67.595 29.9797L66.7718 29.8906L66.6217 31.2774L67.911 30.745L67.595 29.9797ZM50.7425 15.637L51.5033 15.3102L51.1753 14.5464L50.4127 14.8775L50.7425 15.637ZM54.8935 25.3019L54.5788 26.0678L56.4546 26.8387L55.6543 24.9752L54.8935 25.3019ZM41.3254 19.726L40.9956 18.9665L39.1981 19.747L41.0107 20.4919L41.3254 19.726ZM30.6991 16.4424L31.0132 15.6762L30.2611 15.3679L29.9389 16.1142L30.6991 16.4424ZM38.7842 19.7569L39.1137 20.5165L40.9143 19.7353L39.0983 18.9908L38.7842 19.7569ZM27.0747 24.8372L26.3146 24.509L25.4855 26.4293L27.4043 25.5968L27.0747 24.8372ZM40.0537 20.284L40.3689 19.5183L40.0458 19.3853L39.7251 19.524L40.0537 20.284ZM55.4805 26.6343L56.2413 26.3076L56.108 25.9973L55.7957 25.8687L55.4805 26.6343ZM61.7069 41.1318L62.466 41.4625L62.6091 41.1341L62.4677 40.805L61.7069 41.1318ZM55.4185 55.5672L55.7297 56.3345L56.0427 56.2076L56.1776 55.8979L55.4185 55.5672ZM39.8369 61.8866L39.4989 62.6425L39.821 62.7866L40.1481 62.6539L39.8369 61.8866ZM26.052 55.7221L25.2903 56.0469L25.4176 56.3455L25.7139 56.478L26.052 55.7221ZM19.9494 41.4106L19.1888 41.0835L19.0487 41.4092L19.1878 41.7353L19.9494 41.4106ZM26.5166 26.1387L26.1879 25.3787L25.8859 25.5093L25.756 25.8116L26.5166 26.1387ZM25.1542 26.7269L25.9149 27.0537L26.7403 25.1322L24.8233 25.9678L25.1542 26.7269ZM19.3924 40.1401L18.6301 40.4634L19.3876 42.249L20.1531 40.4669L19.3924 40.1401ZM15.4892 30.9398L15.1583 30.1808L14.4067 30.5084L14.727 31.2632L15.4892 30.9398ZM4.5226 26.9444L4.84033 26.1798L4.05306 25.8526L3.74904 26.6491L4.5226 26.9444ZM13.6919 30.7546L14.22 31.3923L15.2774 30.5168L14.0096 29.99L13.6919 30.7546ZM1.98245 40.4505L1.15448 40.444L1.14042 42.2228L2.51053 41.0883L1.98245 40.4505ZM56.7825 27.1611L57.0979 26.3955L55.2232 25.6232L56.0213 27.487L56.7825 27.1611ZM66.1067 31.0023L66.8658 31.3329L67.2031 30.5584L66.4221 30.2367L66.1067 31.0023ZM62.2345 39.8928L61.4733 40.2187L62.2281 41.9811L62.9936 40.2234L62.2345 39.8928ZM77.0128 27.1611L77.7881 26.8703L77.488 26.0701L76.6977 26.3954L77.0128 27.1611ZM79.491 40.5743L78.9606 41.2101L80.3275 42.3503L80.319 40.5704L79.491 40.5743ZM67.9055 30.9093L67.5903 30.1436L66.3212 30.666L67.3751 31.5451L67.9055 30.9093ZM14.5902 31.3116L15.352 30.9871L14.916 29.9634L14.0606 30.6751L14.5902 31.3116ZM18.8651 41.3483L19.626 41.6747L19.7656 41.3494L19.6269 41.0238L18.8651 41.3483ZM14.838 50.7344L14.322 51.3819L15.1709 52.0585L15.5989 51.0609L14.838 50.7344ZM2.78781 41.1314L2.25823 40.4949L1.4766 41.1453L2.27178 41.7789L2.78781 41.1314ZM66.9739 31.4361L67.5049 30.8008L66.6543 30.0897L66.214 31.1073L66.9739 31.4361ZM78.6833 41.225L79.2161 41.8588L79.9723 41.2233L79.2144 40.5897L78.6833 41.225ZM67.0358 51.0138L66.2747 51.3397L66.714 52.3659L67.5686 51.6477L67.0358 51.0138ZM62.7919 41.1011L62.032 40.7722L61.8905 41.0993L62.0308 41.4269L62.7919 41.1011ZM2.01479 41.7821L2.53102 41.1347L1.14139 40.0266L1.18707 41.8033L2.01479 41.7821ZM13.9411 51.2921L14.2579 52.0571L15.5549 51.52L14.4573 50.6447L13.9411 51.2921ZM4.74081 55.1023L3.9716 55.4088L4.28222 56.1885L5.05762 55.8673L4.74081 55.1023ZM79.4595 41.8443L80.2872 41.8669L80.3376 40.0202L78.9256 41.2115L79.4595 41.8443ZM76.7335 55.1646L76.4172 55.9298L77.1911 56.2498L77.5023 55.4722L76.7335 55.1646ZM67.9669 51.5403L67.433 50.9074L66.3924 51.7853L67.6506 52.3054L67.9669 51.5403ZM62.2364 42.34L62.9969 42.0126L62.2374 40.2486L61.4762 42.0118L62.2364 42.34ZM66.0776 51.2615L66.3886 52.0288L67.1726 51.7111L66.8381 50.934L66.0776 51.2615ZM56.7534 55.0407L55.9932 54.7125L55.1927 56.5667L57.0644 55.8081L56.7534 55.0407ZM19.4227 42.6497L20.1849 42.3263L19.4297 40.5465L18.6626 42.3212L19.4227 42.6497ZM24.7198 55.1336L24.3802 55.8887L26.3076 56.7557L25.482 54.8102L24.7198 55.1336ZM15.7674 51.1065L15.0073 50.778L14.6836 51.5269L15.4277 51.8616L15.7674 51.1065ZM15.4281 52.0358L15.7668 51.2803L14.6935 50.7991L14.6026 51.9718L15.4281 52.0358ZM25.3099 56.4656L26.0718 56.1415L25.9447 55.8428L25.6486 55.71L25.3099 56.4656ZM29.4608 66.2235L29.5576 67.0458L30.6555 66.9166L30.2228 65.8994L29.4608 66.2235ZM14.189 68.0202L13.3635 67.9562L13.2856 68.9602L14.2857 68.8425L14.189 68.0202ZM66.6034 52.1288L67.4292 52.0686L67.3465 50.936L66.2935 51.361L66.6034 52.1288ZM67.7496 67.8344L67.7181 68.6618L68.6427 68.6969L68.5754 67.7741L67.7496 67.8344ZM51.4555 67.2148L50.6956 66.8858L50.2148 67.9962L51.424 68.0422L51.4555 67.2148ZM56.164 56.3418L55.8541 55.5739L55.5392 55.701L55.4042 56.0127L56.164 56.3418ZM14.4052 52.1903L15.2308 52.2532L15.3326 50.9168L14.092 51.4238L14.4052 52.1903ZM13.1971 68.0507L12.6089 68.6335L13.885 69.9212L14.0227 68.1136L13.1971 68.0507ZM5.08098 56.0005L4.76777 55.234L3.98863 55.5524L4.31975 56.3262L5.08098 56.0005ZM67.6241 52.5008L67.9368 51.7341L66.7027 51.2308L66.7982 52.5601L67.6241 52.5008ZM76.3597 56.0632L77.1204 56.3903L77.4537 55.6151L76.6724 55.2965L76.3597 56.0632ZM68.7083 67.5868L67.8824 67.6461L68.016 69.5051L69.306 68.1598L68.7083 67.5868ZM54.8613 56.8995L55.6205 57.23L56.4293 55.3721L54.5508 56.132L54.8613 56.8995ZM50.5864 66.7194L50.249 67.4755L51.0121 67.816L51.3456 67.0499L50.5864 66.7194ZM41.0763 62.4755L40.7659 61.7079L38.9607 62.4381L40.7389 63.2316L41.0763 62.4755ZM26.6122 57.054L26.9509 56.2984L25.0196 55.4328L25.8507 57.3792L26.6122 57.054ZM38.5695 62.4131L38.881 63.1802L40.6779 62.4507L38.9081 61.6575L38.5695 62.4131ZM30.3295 65.7586L29.568 66.0838L29.8874 66.8317L30.641 66.5258L30.3295 65.7586ZM39.806 62.9705L40.1445 62.2148L39.8219 62.0703L39.4944 62.2033L39.806 62.9705ZM50.2453 67.648L50.8988 68.1565L51.5467 67.3238L50.5839 66.8924L50.2453 67.648ZM41.4478 78.9548L40.8236 79.4988L41.484 80.2566L42.1012 79.4633L41.4478 78.9548ZM30.7296 66.6568L30.418 65.8896L29.3431 66.3262L30.1054 67.2008L30.7296 66.6568ZM29.0905 67.277L29.8567 67.5908L30.3887 66.292L28.9945 66.4546L29.0905 67.277ZM25.3732 76.3534L25.0446 77.1134L25.8195 77.4484L26.1394 76.6672L25.3732 76.3534ZM14.2213 69.0118L14.1254 68.1893L12.3558 68.3958L13.6545 69.6154L14.2213 69.0118ZM30.0796 67.4937L30.7023 66.948L29.8232 65.9448L29.3142 67.1778L30.0796 67.4937ZM40.6119 79.513L40.6093 80.341L42.4435 80.3468L41.2346 78.9673L40.6119 79.513ZM26.2694 76.725L25.504 76.4091L25.1854 77.1811L25.9601 77.4931L26.2694 76.725ZM51.7951 68.2061L51.8278 67.3787L50.5264 67.3272L51.032 68.5275L51.7951 68.2061ZM67.4386 68.8256L68.0095 69.4254L69.4275 68.0758L67.4714 67.9983L67.4386 68.8256ZM55.3575 76.6629L54.5944 76.9844L54.9121 77.7387L55.6701 77.4297L55.3575 76.6629ZM50.8667 68.4851L51.631 68.1666L51.0859 66.8582L50.2139 67.9757L50.8667 68.4851ZM54.4291 77.0348L54.7218 77.8094L55.5228 77.5067L55.1934 76.7164L54.4291 77.0348ZM42.286 79.482L41.6332 78.9727L40.5351 80.38L42.3187 80.3094L42.286 79.482ZM40.7369 0.188113C18.3348 0.188113 0.16492 18.3578 0.16492 40.7601H1.82092C1.82092 19.2724 19.2493 1.84411 40.7369 1.84411V0.188113ZM0.16492 40.7601C0.16492 63.1623 18.3348 81.3321 40.7369 81.3321V79.6761C19.2493 79.6761 1.82092 62.2477 1.82092 40.7601H0.16492ZM40.7369 81.3321C63.1392 81.3321 81.3089 63.1623 81.3089 40.7601H79.6529C79.6529 62.2477 62.2246 79.6761 40.7369 79.6761V81.3321ZM81.3089 40.7601C81.3089 18.3578 63.1392 0.188113 40.7369 0.188113V1.84411C62.2246 1.84411 79.6529 19.2724 79.6529 40.7601H81.3089ZM39.5556 1.52905L29.7048 14.1678L31.011 15.1858L40.8618 2.54707L39.5556 1.52905ZM31.1247 14.3644L27.0976 4.48257L25.5641 5.10753L29.5911 14.9893L31.1247 14.3644ZM26.6388 5.56366C30.8442 3.87885 35.4226 2.93056 40.2198 2.86599L40.1976 1.21014C35.1949 1.27748 30.4154 2.26669 26.0229 4.02644L26.6388 5.56366ZM41.6453 2.86583C46.1496 2.97275 50.4559 3.86802 54.4381 5.41216L55.0368 3.86817C50.8798 2.25624 46.3844 1.32185 41.6846 1.2103L41.6453 2.86583ZM53.971 4.32686L50.2228 13.4962L51.7556 14.1228L55.5039 4.95347L53.971 4.32686ZM51.6382 13.2954L42.314 1.52395L41.0159 2.55218L50.3401 14.3236L51.6382 13.2954ZM40.3052 3.23326L49.7843 15.2215L51.0833 14.1944L41.6042 2.20615L40.3052 3.23326ZM50.1049 13.9481L39.7275 18.4398L40.3853 19.9596L50.7627 15.4678L50.1049 13.9481ZM40.3711 18.4338L31.3257 14.7165L30.6962 16.2482L39.7416 19.9655L40.3711 18.4338ZM31.6641 15.9913L41.6079 3.2286L40.3016 2.21082L30.3578 14.9735L31.6641 15.9913ZM55.347 5.77608C59.9184 7.68582 64.0479 10.46 67.504 13.9008L68.6723 12.7272C65.0647 9.13557 60.7553 6.24077 55.9854 4.24806L55.347 5.77608ZM68.0454 12.4871L51.8752 13.3235L51.9607 14.9773L68.1309 14.1409L68.0454 12.4871ZM52.684 14.4646L56.4323 5.32629L54.9002 4.69785L51.1519 13.8362L52.684 14.4646ZM24.6678 5.48073L28.6329 15.1767L30.1657 14.5498L26.2006 4.85391L24.6678 5.48073ZM29.4877 14.04L13.6273 12.3362L13.4504 13.9828L29.3109 15.6865L29.4877 14.04ZM14.1198 13.7495C17.4523 10.4683 21.4008 7.80351 25.7614 5.92794L25.107 4.4067C20.5572 6.36369 16.4367 9.14434 12.958 12.5695L14.1198 13.7495ZM13.3259 14.9423L29.7439 16.739L29.9241 15.0929L13.506 13.2962L13.3259 14.9423ZM29.0733 15.5889L24.9843 25.0989L26.5056 25.7531L30.5947 16.243L29.0733 15.5889ZM25.4159 24.6662L14.7597 29.2819L15.4178 30.8014L26.0741 26.1858L25.4159 24.6662ZM15.9122 29.9551L14.2394 14.0327L12.5925 14.2058L14.2653 30.1282L15.9122 29.9551ZM11.5994 14.3923L13.2412 29.912L14.888 29.7378L13.2462 14.2181L11.5994 14.3923ZM14.3792 29.059L5.17889 25.2798L4.54967 26.8116L13.75 30.5908L14.3792 29.059ZM5.63023 26.3602C7.38766 22.0798 9.91432 18.1999 13.0275 14.8708L11.818 13.7397C8.57183 17.211 5.93412 21.26 4.09833 25.7312L5.63023 26.3602ZM67.4843 14.2166L65.7805 30.0461L67.427 30.2233L69.1308 14.3938L67.4843 14.2166ZM66.9191 29.3691L56.5417 25.0942L55.911 26.6254L66.2884 30.9003L66.9191 29.3691ZM56.9868 25.5323L52.3712 14.8141L50.8502 15.4691L55.4659 26.1873L56.9868 25.5323ZM51.6521 15.9686L68.3489 15.1322L68.2661 13.4783L51.5693 14.3147L51.6521 15.9686ZM68.6585 15.0827C71.7175 18.4063 74.1809 22.2844 75.9038 26.542L77.4389 25.9208C75.6413 21.4786 73.0705 17.4311 69.877 13.9612L68.6585 15.0827ZM76.3553 25.4661L67.2789 29.2144L67.911 30.745L76.9874 26.9967L76.3553 25.4661ZM68.4182 30.0687L70.091 14.611L68.4446 14.4329L66.7718 29.8906L68.4182 30.0687ZM49.9817 15.9637L54.1327 25.6287L55.6543 24.9752L51.5033 15.3102L49.9817 15.9637ZM55.2082 24.5361L41.6401 18.9602L41.0107 20.4919L54.5788 26.0678L55.2082 24.5361ZM41.6552 20.4855L51.0723 16.3965L50.4127 14.8775L40.9956 18.9665L41.6552 20.4855ZM30.385 17.2085L38.4701 20.5231L39.0983 18.9908L31.0132 15.6762L30.385 17.2085ZM38.4546 18.9973L26.7452 24.0776L27.4043 25.5968L39.1137 20.5165L38.4546 18.9973ZM27.8349 25.1654L31.4593 16.7705L29.9389 16.1142L26.3146 24.509L27.8349 25.1654ZM39.7386 21.0496L55.1653 27.4L55.7957 25.8687L40.3689 19.5183L39.7386 21.0496ZM54.7197 26.9611L60.9461 41.4585L62.4677 40.805L56.2413 26.3076L54.7197 26.9611ZM60.9478 40.8011L54.6594 55.2366L56.1776 55.8979L62.466 41.4625L60.9478 40.8011ZM55.1073 54.7999L39.5257 61.1193L40.1481 62.6539L55.7297 56.3345L55.1073 54.7999ZM40.1749 61.1308L26.39 54.9663L25.7139 56.478L39.4989 62.6425L40.1749 61.1308ZM26.8136 55.3974L20.7111 41.0858L19.1878 41.7353L25.2903 56.0469L26.8136 55.3974ZM20.7101 41.7377L27.2773 26.4658L25.756 25.8116L19.1888 41.0835L20.7101 41.7377ZM26.8453 26.8987L40.3824 21.0439L39.7251 19.524L26.1879 25.3787L26.8453 26.8987ZM24.3934 26.4001L18.6316 39.8133L20.1531 40.4669L25.9149 27.0537L24.3934 26.4001ZM20.1546 39.8167L16.2514 30.6164L14.727 31.2632L18.6301 40.4634L20.1546 39.8167ZM15.8201 31.6988L25.485 27.4859L24.8233 25.9678L15.1583 30.1808L15.8201 31.6988ZM4.20487 27.709L13.3742 31.5192L14.0096 29.99L4.84033 26.1798L4.20487 27.709ZM13.1638 30.1168L1.45437 39.8128L2.51053 41.0883L14.22 31.3923L13.1638 30.1168ZM2.81043 40.4571C2.84722 35.8009 3.72692 31.3507 5.29616 27.2396L3.74904 26.6491C2.11097 30.9404 1.19287 35.586 1.15448 40.444L2.81043 40.4571ZM56.4671 27.9267L65.7913 31.7678L66.4221 30.2367L57.0979 26.3955L56.4671 27.9267ZM65.3475 30.6716L61.4754 39.5622L62.9936 40.2234L66.8658 31.3329L65.3475 30.6716ZM62.9956 39.5668L57.5436 26.8351L56.0213 27.487L61.4733 40.2187L62.9956 39.5668ZM76.2376 27.4518C77.7722 31.5438 78.6411 35.9575 78.663 40.5782L80.319 40.5704C80.2961 35.745 79.3885 31.1375 77.7881 26.8703L76.2376 27.4518ZM80.0214 39.9385L68.4359 30.2735L67.3751 31.5451L78.9606 41.2101L80.0214 39.9385ZM68.2206 31.675L77.328 27.9268L76.6977 26.3954L67.5903 30.1436L68.2206 31.675ZM13.8284 31.636L18.1033 41.6727L19.6269 41.0238L15.352 30.9871L13.8284 31.636ZM18.1042 41.0218L14.0771 50.4079L15.5989 51.0609L19.626 41.6747L18.1042 41.0218ZM15.354 50.0869L3.30384 40.4839L2.27178 41.7789L14.322 51.3819L15.354 50.0869ZM3.31739 41.7679L15.1198 31.9481L14.0606 30.6751L2.25823 40.4949L3.31739 41.7679ZM66.4428 32.0714L78.1523 41.8602L79.2144 40.5897L67.5049 30.8008L66.4428 32.0714ZM78.1506 40.5911L66.5031 50.38L67.5686 51.6477L79.2161 41.8588L78.1506 40.5911ZM67.797 50.6879L63.5531 40.7752L62.0308 41.4269L66.2747 51.3397L67.797 50.6879ZM63.5518 41.4299L67.7338 31.7649L66.214 31.1073L62.032 40.7722L63.5518 41.4299ZM1.49857 42.4294L13.4249 51.9395L14.4573 50.6447L2.53102 41.1347L1.49857 42.4294ZM13.6243 50.5271L4.42399 54.3374L5.05762 55.8673L14.2579 52.0571L13.6243 50.5271ZM5.51001 54.7959C3.89685 50.7467 2.96075 46.3597 2.84252 41.7608L1.18707 41.8033C1.31041 46.6013 2.28734 51.1812 3.9716 55.4088L5.51001 54.7959ZM78.6319 41.8218C78.5064 46.4216 77.583 50.8131 75.9648 54.857L77.5023 55.4722C79.1937 51.2452 80.1565 46.6605 80.2872 41.8669L78.6319 41.8218ZM77.0499 54.3994L68.2833 50.7751L67.6506 52.3054L76.4172 55.9298L77.0499 54.3994ZM68.5009 52.1731L79.9935 42.4772L78.9256 41.2115L67.433 50.9074L68.5009 52.1731ZM61.4759 42.6674L65.317 51.5889L66.8381 50.934L62.9969 42.0126L61.4759 42.6674ZM65.7665 50.4941L56.4423 54.2734L57.0644 55.8081L66.3886 52.0288L65.7665 50.4941ZM57.5135 55.3689L62.9965 42.6682L61.4762 42.0118L55.9932 54.7125L57.5135 55.3689ZM18.6605 42.9731L23.9576 55.457L25.482 54.8102L20.1849 42.3263L18.6605 42.9731ZM25.0595 54.3785L16.107 50.3514L15.4277 51.8616L24.3802 55.8887L25.0595 54.3785ZM16.5274 51.435L20.1827 42.9782L18.6626 42.3212L15.0073 50.778L16.5274 51.435ZM15.0894 52.7914L24.9712 57.2212L25.6486 55.71L15.7668 51.2803L15.0894 52.7914ZM24.5479 56.7897L28.6989 66.5476L30.2228 65.8994L26.0718 56.1415L24.5479 56.7897ZM29.3641 65.4012L14.0922 67.1978L14.2857 68.8425L29.5576 67.0458L29.3641 65.4012ZM15.0145 68.0842L16.2536 52.0998L14.6026 51.9718L13.3635 67.9562L15.0145 68.0842ZM65.7776 52.1891L66.9238 67.8946L68.5754 67.7741L67.4292 52.0686L65.7776 52.1891ZM67.781 67.007L51.4869 66.3874L51.424 68.0422L67.7181 68.6618L67.781 67.007ZM52.2153 67.5439L56.9238 56.6708L55.4042 56.0127L50.6956 66.8858L52.2153 67.5439ZM56.4739 57.1096L66.9133 52.8967L66.2935 51.361L55.8541 55.5739L56.4739 57.1096ZM13.5796 52.1274L12.3715 67.9878L14.0227 68.1136L15.2308 52.2532L13.5796 52.1274ZM13.7852 67.4679C10.4476 64.0998 7.73523 60.0987 5.84222 55.6748L4.31975 56.3262C6.29556 60.9437 9.12601 65.1188 12.6089 68.6335L13.7852 67.4679ZM5.39419 56.767L14.7184 52.9568L14.092 51.4238L4.76777 55.234L5.39419 56.767ZM67.3114 53.2675L76.0471 56.8299L76.6724 55.2965L67.9368 51.7341L67.3114 53.2675ZM75.5991 55.7361C73.7918 59.939 71.2331 63.7572 68.1106 67.0137L69.306 68.1598C72.5625 64.7634 75.233 60.7794 77.1204 56.3903L75.5991 55.7361ZM69.5342 67.5274L68.45 52.4414L66.7982 52.5601L67.8824 67.6461L69.5342 67.5274ZM54.1021 56.569L49.8272 66.3889L51.3456 67.0499L55.6205 57.23L54.1021 56.569ZM50.9238 65.9632L41.4138 61.7193L40.7389 63.2316L50.249 67.4755L50.9238 65.9632ZM41.3868 63.243L55.1718 57.6671L54.5508 56.132L40.7659 61.7079L41.3868 63.243ZM26.2736 57.8096L38.2309 63.1686L38.9081 61.6575L26.9509 56.2984L26.2736 57.8096ZM38.258 61.6459L30.018 64.9914L30.641 66.5258L38.881 63.1802L38.258 61.6459ZM31.091 65.4334L27.3737 56.7288L25.8507 57.3792L29.568 66.0838L31.091 65.4334ZM39.4674 63.7261L49.9068 68.4037L50.5839 66.8924L40.1445 62.2148L39.4674 63.7261ZM49.5918 67.1396L40.7943 78.4463L42.1012 79.4633L50.8988 68.1565L49.5918 67.1396ZM42.072 78.4108L31.3538 66.1127L30.1054 67.2008L40.8236 79.4988L42.072 78.4108ZM31.0411 67.4239L40.1175 63.7376L39.4944 62.2033L30.418 65.8896L31.0411 67.4239ZM28.3242 66.9632L24.607 76.0396L26.1394 76.6672L29.8567 67.5908L28.3242 66.9632ZM25.7017 75.5934C21.6487 73.8414 17.9638 71.3902 14.7881 68.4082L13.6545 69.6154C16.9658 72.7247 20.8109 75.2833 25.0446 77.1134L25.7017 75.5934ZM14.3173 69.8342L29.1864 68.0994L28.9945 66.4546L14.1254 68.1893L14.3173 69.8342ZM29.4569 68.0394L39.9892 80.0587L41.2346 78.9673L30.7023 66.948L29.4569 68.0394ZM40.6145 78.685C35.6488 78.6693 30.9178 77.7043 26.5787 75.9569L25.9601 77.4931C30.4915 79.3178 35.4305 80.3246 40.6093 80.341L40.6145 78.685ZM27.0347 77.0409L30.845 67.8096L29.3142 67.1778L25.504 76.4091L27.0347 77.0409ZM51.7623 69.0335L67.4059 69.653L67.4714 67.9983L51.8278 67.3787L51.7623 69.0335ZM66.8678 68.2259C63.4629 71.4666 59.4639 74.0945 55.0449 75.8962L55.6701 77.4297C60.287 75.5473 64.4598 72.8039 68.0095 69.4254L66.8678 68.2259ZM56.1205 76.3415L52.5581 67.8847L51.032 68.5275L54.5944 76.9844L56.1205 76.3415ZM50.1024 68.8035L53.6648 77.3533L55.1934 76.7164L51.631 68.1666L50.1024 68.8035ZM54.1365 76.2603C50.4218 77.664 46.4253 78.4896 42.2533 78.6547L42.3187 80.3094C46.6678 80.1373 50.8399 79.2762 54.7218 77.8094L54.1365 76.2603ZM42.9388 79.9914L51.5195 68.9944L50.2139 67.9757L41.6332 78.9727L42.9388 79.9914Z" fill="#D2AB8B"/>
</svg>
