<svg width="130" height="132" viewBox="0 0 130 132" fill="none" xmlns="http://www.w3.org/2000/svg">
<g id="i/search">
    <g id="Search">
        <path id="Combined Shape" d="M96.0637 104.227L100.748 99.5433C98.3254 97.1212 94.4561 96.9453 91.8242 99.1376L96.0637 104.227ZM103.09 97.2014L97.9999 92.9619C95.8076 95.5938 95.9835 99.4631 98.4056 101.885L103.09 97.2014ZM61.2504 11.2729C33.0203 11.2729 10.1352 34.158 10.1352 62.3881H23.3832C23.3832 41.4747 40.337 24.5209 61.2504 24.5209V11.2729ZM112.366 62.3881C112.366 34.158 89.4806 11.2729 61.2504 11.2729V24.5209C82.1639 24.5209 99.1176 41.4747 99.1176 62.3881H112.366ZM61.2504 113.503C89.4806 113.503 112.366 90.6183 112.366 62.3881H99.1176C99.1176 83.3016 82.1639 100.255 61.2504 100.255V113.503ZM10.1352 62.3881C10.1352 90.6183 33.0203 113.503 61.2504 113.503V100.255C40.337 100.255 23.3832 83.3016 23.3832 62.3881H10.1352ZM13.4472 62.3881C13.4472 35.9872 34.8495 14.5849 61.2504 14.5849V1.33694C27.5328 1.33694 0.199242 28.6705 0.199242 62.3881H13.4472ZM61.2504 110.191C34.8495 110.191 13.4472 88.7891 13.4472 62.3881H0.199242C0.199242 96.1058 27.5328 123.439 61.2504 123.439V110.191ZM91.8242 99.1376C83.5342 106.043 72.8855 110.191 61.2504 110.191V123.439C76.097 123.439 89.7213 118.131 100.303 109.317L91.8242 99.1376ZM118.945 117.741L100.748 99.5433L91.3798 108.911L109.577 127.108L118.945 117.741ZM116.603 117.741C117.25 117.094 118.298 117.094 118.945 117.741L109.577 127.108C114.104 131.635 121.444 131.635 125.971 127.108L116.603 117.741ZM116.603 120.083C115.956 119.436 115.956 118.387 116.603 117.741L125.971 127.108C130.498 122.581 130.498 115.242 125.971 110.715L116.603 120.083ZM98.4056 101.885L116.603 120.083L125.971 110.715L107.773 92.5175L98.4056 101.885ZM109.054 62.3881C109.054 74.0232 104.905 84.672 97.9999 92.9619L108.179 101.441C116.994 90.859 122.302 77.2347 122.302 62.3881H109.054ZM61.2504 14.5849C87.6514 14.5849 109.054 35.9872 109.054 62.3881H122.302C122.302 28.6705 94.9681 1.33694 61.2504 1.33694V14.5849Z" fill="#D2AB8B"/>
    </g>
</g>
</svg>
